<svg width="400" height="81" viewBox="0 0 400 81" fill="none" xmlns="http://www.w3.org/2000/svg">
<path d="M62.9359 20.0042C62.9359 20.0042 59.0834 20.0042 51.1034 17.7897C43.1103 15.5752 38.0131 10.3862 38.0131 10.3862C38.0131 10.3862 32.9028 15.5621 24.9228 17.7897C16.9297 20.0042 13.0903 20.0042 13.0903 20.0042C13.0903 20.0042 10.2338 49.5524 20.4021 59.7076C25.7221 65.0276 29.9545 68.0545 32.9421 69.758C36.1 71.5662 39.9655 71.5662 43.1234 69.758C46.0979 68.0545 50.3303 65.0276 55.6634 59.7076C65.8186 49.5524 62.9752 20.0042 62.9752 20.0042H62.9359Z" stroke="#E9A5B2" stroke-width="2" stroke-miterlimit="10"/>
<path d="M38 67.0062C36.9386 67.0062 35.8773 66.7311 34.9469 66.1938C32.5097 64.8049 28.5131 62.04 23.2717 56.7986C16.9297 50.4566 16.4317 33.0683 16.9166 23.7386C19.0393 23.4242 22.0662 22.8345 25.9973 21.7338C31.2648 20.2662 35.4186 17.6849 37.9869 15.7455C40.5683 17.6849 44.7221 20.2793 49.9766 21.7338C53.9207 22.8345 56.9345 23.4242 59.0573 23.7386C59.529 33.0814 59.0179 50.4828 52.7021 56.7986C47.4607 62.04 43.4642 64.8049 41.0269 66.1938C40.0966 66.7311 39.0483 67.0062 37.9738 67.0062H38Z" stroke="#E9A5B2" stroke-width="2" stroke-miterlimit="10"/>
<path d="M38 38.3752C41.6763 38.3752 44.6566 35.3949 44.6566 31.7186C44.6566 28.0423 41.6763 25.0621 38 25.0621C34.3237 25.0621 31.3434 28.0423 31.3434 31.7186C31.3434 35.3949 34.3237 38.3752 38 38.3752Z" stroke="#E9A5B2" stroke-width="2" stroke-miterlimit="10"/>
<path d="M50.1469 54.0207C50.1469 46.0276 44.709 39.5414 38 39.5414C31.291 39.5414 25.8531 46.0276 25.8531 54.0207H50.1469Z" stroke="#E9A5B2" stroke-width="2" stroke-miterlimit="10"/>
<path d="M88.976 18.192C88.976 18.7573 88.8427 19.2907 88.576 19.792C88.3093 20.2933 87.8827 20.704 87.296 21.024C86.7093 21.3333 85.9573 21.488 85.04 21.488H83.024V26H81.2V14.88H85.04C85.8933 14.88 86.6133 15.0293 87.2 15.328C87.7973 15.616 88.24 16.0107 88.528 16.512C88.8267 17.0133 88.976 17.5733 88.976 18.192ZM85.04 20C85.7333 20 86.2507 19.8453 86.592 19.536C86.9333 19.216 87.104 18.768 87.104 18.192C87.104 16.976 86.416 16.368 85.04 16.368H83.024V20H85.04ZM96.4916 26L93.9316 21.552H92.5396V26H90.7156V14.88H94.5556C95.409 14.88 96.129 15.0293 96.7156 15.328C97.313 15.6267 97.7556 16.0267 98.0436 16.528C98.3423 17.0293 98.4916 17.5893 98.4916 18.208C98.4916 18.9333 98.2783 19.5947 97.8516 20.192C97.4356 20.7787 96.7903 21.1787 95.9156 21.392L98.6676 26H96.4916ZM92.5396 20.096H94.5556C95.2383 20.096 95.7503 19.9253 96.0916 19.584C96.4436 19.2427 96.6196 18.784 96.6196 18.208C96.6196 17.632 96.449 17.184 96.1076 16.864C95.7663 16.5333 95.249 16.368 94.5556 16.368H92.5396V20.096ZM105.897 26.112C104.862 26.112 103.908 25.872 103.033 25.392C102.169 24.9013 101.481 24.224 100.969 23.36C100.468 22.4853 100.217 21.504 100.217 20.416C100.217 19.328 100.468 18.352 100.969 17.488C101.481 16.624 102.169 15.952 103.033 15.472C103.908 14.9813 104.862 14.736 105.897 14.736C106.942 14.736 107.897 14.9813 108.761 15.472C109.636 15.952 110.324 16.624 110.825 17.488C111.326 18.352 111.577 19.328 111.577 20.416C111.577 21.504 111.326 22.4853 110.825 23.36C110.324 24.224 109.636 24.9013 108.761 25.392C107.897 25.872 106.942 26.112 105.897 26.112ZM105.897 24.528C106.633 24.528 107.289 24.3627 107.865 24.032C108.441 23.6907 108.889 23.2107 109.209 22.592C109.54 21.9627 109.705 21.2373 109.705 20.416C109.705 19.5947 109.54 18.8747 109.209 18.256C108.889 17.6373 108.441 17.1627 107.865 16.832C107.289 16.5013 106.633 16.336 105.897 16.336C105.161 16.336 104.505 16.5013 103.929 16.832C103.353 17.1627 102.9 17.6373 102.569 18.256C102.249 18.8747 102.089 19.5947 102.089 20.416C102.089 21.2373 102.249 21.9627 102.569 22.592C102.9 23.2107 103.353 23.6907 103.929 24.032C104.505 24.3627 105.161 24.528 105.897 24.528ZM120.556 14.88V16.368H117.596V26H115.772V16.368H112.796V14.88H120.556ZM124.227 16.352V19.616H128.067V21.104H124.227V24.512H128.547V26H122.403V14.864H128.547V16.352H124.227ZM138.842 18.08C138.554 17.5253 138.154 17.1093 137.642 16.832C137.13 16.544 136.538 16.4 135.866 16.4C135.13 16.4 134.474 16.5653 133.898 16.896C133.322 17.2267 132.868 17.696 132.538 18.304C132.218 18.912 132.058 19.616 132.058 20.416C132.058 21.216 132.218 21.9253 132.538 22.544C132.868 23.152 133.322 23.6213 133.898 23.952C134.474 24.2827 135.13 24.448 135.866 24.448C136.858 24.448 137.663 24.1707 138.282 23.616C138.9 23.0613 139.279 22.3093 139.418 21.36H135.242V19.904H141.37V21.328C141.252 22.192 140.943 22.9867 140.442 23.712C139.951 24.4373 139.306 25.0187 138.506 25.456C137.716 25.8827 136.836 26.096 135.866 26.096C134.82 26.096 133.866 25.856 133.002 25.376C132.138 24.8853 131.45 24.208 130.938 23.344C130.436 22.48 130.186 21.504 130.186 20.416C130.186 19.328 130.436 18.352 130.938 17.488C131.45 16.624 132.138 15.952 133.002 15.472C133.876 14.9813 134.831 14.736 135.866 14.736C137.05 14.736 138.1 15.0293 139.018 15.616C139.946 16.192 140.618 17.0133 141.034 18.08H138.842ZM144.993 16.352V19.616H148.833V21.104H144.993V24.512H149.313V26H143.169V14.864H149.313V16.352H144.993ZM163.271 14.88V26H161.447V18.384L158.055 26H156.791L153.383 18.384V26H151.559V14.88H153.527L157.431 23.6L161.319 14.88H163.271ZM170.741 26.112C169.706 26.112 168.751 25.872 167.877 25.392C167.013 24.9013 166.325 24.224 165.813 23.36C165.311 22.4853 165.061 21.504 165.061 20.416C165.061 19.328 165.311 18.352 165.813 17.488C166.325 16.624 167.013 15.952 167.877 15.472C168.751 14.9813 169.706 14.736 170.741 14.736C171.786 14.736 172.741 14.9813 173.605 15.472C174.479 15.952 175.167 16.624 175.669 17.488C176.17 18.352 176.421 19.328 176.421 20.416C176.421 21.504 176.17 22.4853 175.669 23.36C175.167 24.224 174.479 24.9013 173.605 25.392C172.741 25.872 171.786 26.112 170.741 26.112ZM170.741 24.528C171.477 24.528 172.133 24.3627 172.709 24.032C173.285 23.6907 173.733 23.2107 174.053 22.592C174.383 21.9627 174.549 21.2373 174.549 20.416C174.549 19.5947 174.383 18.8747 174.053 18.256C173.733 17.6373 173.285 17.1627 172.709 16.832C172.133 16.5013 171.477 16.336 170.741 16.336C170.005 16.336 169.349 16.5013 168.773 16.832C168.197 17.1627 167.743 17.6373 167.413 18.256C167.093 18.8747 166.933 19.5947 166.933 20.416C166.933 21.2373 167.093 21.9627 167.413 22.592C167.743 23.2107 168.197 23.6907 168.773 24.032C169.349 24.3627 170.005 24.528 170.741 24.528ZM181.88 26.112C181.133 26.112 180.461 25.984 179.864 25.728C179.266 25.4613 178.797 25.088 178.456 24.608C178.114 24.128 177.944 23.568 177.944 22.928H179.896C179.938 23.408 180.125 23.8027 180.456 24.112C180.797 24.4213 181.272 24.576 181.88 24.576C182.509 24.576 183 24.4267 183.352 24.128C183.704 23.8187 183.88 23.424 183.88 22.944C183.88 22.5707 183.768 22.2667 183.544 22.032C183.33 21.7973 183.058 21.616 182.728 21.488C182.408 21.36 181.96 21.2213 181.384 21.072C180.658 20.88 180.066 20.688 179.608 20.496C179.16 20.2933 178.776 19.984 178.456 19.568C178.136 19.152 177.976 18.5973 177.976 17.904C177.976 17.264 178.136 16.704 178.456 16.224C178.776 15.744 179.224 15.376 179.8 15.12C180.376 14.864 181.042 14.736 181.8 14.736C182.877 14.736 183.757 15.008 184.44 15.552C185.133 16.0853 185.517 16.8213 185.592 17.76H183.576C183.544 17.3547 183.352 17.008 183 16.72C182.648 16.432 182.184 16.288 181.608 16.288C181.085 16.288 180.658 16.4213 180.328 16.688C179.997 16.9547 179.832 17.3387 179.832 17.84C179.832 18.1813 179.933 18.464 180.136 18.688C180.349 18.9013 180.616 19.072 180.936 19.2C181.256 19.328 181.693 19.4667 182.248 19.616C182.984 19.8187 183.581 20.0213 184.04 20.224C184.509 20.4267 184.904 20.7413 185.224 21.168C185.554 21.584 185.72 22.144 185.72 22.848C185.72 23.4133 185.565 23.9467 185.256 24.448C184.957 24.9493 184.514 25.3547 183.928 25.664C183.352 25.9627 182.669 26.112 181.88 26.112ZM199.212 14.88V16.368H196.252V26H194.428V16.368H191.452V14.88H199.212ZM202.867 14.88V21.968C202.867 22.8107 203.086 23.4453 203.523 23.872C203.971 24.2987 204.59 24.512 205.379 24.512C206.179 24.512 206.798 24.2987 207.235 23.872C207.683 23.4453 207.907 22.8107 207.907 21.968V14.88H209.731V21.936C209.731 22.8427 209.534 23.6107 209.139 24.24C208.745 24.8693 208.217 25.3387 207.555 25.648C206.894 25.9573 206.163 26.112 205.363 26.112C204.563 26.112 203.833 25.9573 203.171 25.648C202.521 25.3387 202.003 24.8693 201.619 24.24C201.235 23.6107 201.043 22.8427 201.043 21.936V14.88H202.867ZM215.77 26.112C215.024 26.112 214.352 25.984 213.754 25.728C213.157 25.4613 212.688 25.088 212.346 24.608C212.005 24.128 211.834 23.568 211.834 22.928H213.786C213.829 23.408 214.016 23.8027 214.346 24.112C214.688 24.4213 215.162 24.576 215.77 24.576C216.4 24.576 216.89 24.4267 217.242 24.128C217.594 23.8187 217.77 23.424 217.77 22.944C217.77 22.5707 217.658 22.2667 217.434 22.032C217.221 21.7973 216.949 21.616 216.618 21.488C216.298 21.36 215.85 21.2213 215.274 21.072C214.549 20.88 213.957 20.688 213.498 20.496C213.05 20.2933 212.666 19.984 212.346 19.568C212.026 19.152 211.866 18.5973 211.866 17.904C211.866 17.264 212.026 16.704 212.346 16.224C212.666 15.744 213.114 15.376 213.69 15.12C214.266 14.864 214.933 14.736 215.69 14.736C216.768 14.736 217.648 15.008 218.33 15.552C219.024 16.0853 219.408 16.8213 219.482 17.76H217.466C217.434 17.3547 217.242 17.008 216.89 16.72C216.538 16.432 216.074 16.288 215.498 16.288C214.976 16.288 214.549 16.4213 214.218 16.688C213.888 16.9547 213.722 17.3387 213.722 17.84C213.722 18.1813 213.824 18.464 214.026 18.688C214.24 18.9013 214.506 19.072 214.826 19.2C215.146 19.328 215.584 19.4667 216.138 19.616C216.874 19.8187 217.472 20.0213 217.93 20.224C218.4 20.4267 218.794 20.7413 219.114 21.168C219.445 21.584 219.61 22.144 219.61 22.848C219.61 23.4133 219.456 23.9467 219.146 24.448C218.848 24.9493 218.405 25.3547 217.818 25.664C217.242 25.9627 216.56 26.112 215.77 26.112ZM229.551 14.88C230.735 14.88 231.769 15.1093 232.655 15.568C233.551 16.016 234.239 16.6667 234.719 17.52C235.209 18.3627 235.455 19.3493 235.455 20.48C235.455 21.6107 235.209 22.592 234.719 23.424C234.239 24.256 233.551 24.896 232.655 25.344C231.769 25.7813 230.735 26 229.551 26H225.919V14.88H229.551ZM229.551 24.512C230.852 24.512 231.849 24.16 232.543 23.456C233.236 22.752 233.583 21.76 233.583 20.48C233.583 19.1893 233.236 18.1813 232.543 17.456C231.849 16.7307 230.852 16.368 229.551 16.368H227.743V24.512H229.551ZM243.967 23.728H239.311L238.511 26H236.607L240.591 14.864H242.703L246.687 26H244.767L243.967 23.728ZM243.455 22.24L241.647 17.072L239.823 22.24H243.455ZM255.603 14.88V16.368H252.643V26H250.819V16.368H247.843V14.88H255.603ZM262.522 26.112C261.487 26.112 260.533 25.872 259.658 25.392C258.794 24.9013 258.106 24.224 257.594 23.36C257.093 22.4853 256.842 21.504 256.842 20.416C256.842 19.328 257.093 18.352 257.594 17.488C258.106 16.624 258.794 15.952 259.658 15.472C260.533 14.9813 261.487 14.736 262.522 14.736C263.567 14.736 264.522 14.9813 265.386 15.472C266.261 15.952 266.949 16.624 267.45 17.488C267.951 18.352 268.202 19.328 268.202 20.416C268.202 21.504 267.951 22.4853 267.45 23.36C266.949 24.224 266.261 24.9013 265.386 25.392C264.522 25.872 263.567 26.112 262.522 26.112ZM262.522 24.528C263.258 24.528 263.914 24.3627 264.49 24.032C265.066 23.6907 265.514 23.2107 265.834 22.592C266.165 21.9627 266.33 21.2373 266.33 20.416C266.33 19.5947 266.165 18.8747 265.834 18.256C265.514 17.6373 265.066 17.1627 264.49 16.832C263.914 16.5013 263.258 16.336 262.522 16.336C261.786 16.336 261.13 16.5013 260.554 16.832C259.978 17.1627 259.525 17.6373 259.194 18.256C258.874 18.8747 258.714 19.5947 258.714 20.416C258.714 21.2373 258.874 21.9627 259.194 22.592C259.525 23.2107 259.978 23.6907 260.554 24.032C261.13 24.3627 261.786 24.528 262.522 24.528ZM273.661 26.112C272.914 26.112 272.242 25.984 271.645 25.728C271.048 25.4613 270.578 25.088 270.237 24.608C269.896 24.128 269.725 23.568 269.725 22.928H271.677C271.72 23.408 271.906 23.8027 272.237 24.112C272.578 24.4213 273.053 24.576 273.661 24.576C274.29 24.576 274.781 24.4267 275.133 24.128C275.485 23.8187 275.661 23.424 275.661 22.944C275.661 22.5707 275.549 22.2667 275.325 22.032C275.112 21.7973 274.84 21.616 274.509 21.488C274.189 21.36 273.741 21.2213 273.165 21.072C272.44 20.88 271.848 20.688 271.389 20.496C270.941 20.2933 270.557 19.984 270.237 19.568C269.917 19.152 269.757 18.5973 269.757 17.904C269.757 17.264 269.917 16.704 270.237 16.224C270.557 15.744 271.005 15.376 271.581 15.12C272.157 14.864 272.824 14.736 273.581 14.736C274.658 14.736 275.538 15.008 276.221 15.552C276.914 16.0853 277.298 16.8213 277.373 17.76H275.357C275.325 17.3547 275.133 17.008 274.781 16.72C274.429 16.432 273.965 16.288 273.389 16.288C272.866 16.288 272.44 16.4213 272.109 16.688C271.778 16.9547 271.613 17.3387 271.613 17.84C271.613 18.1813 271.714 18.464 271.917 18.688C272.13 18.9013 272.397 19.072 272.717 19.2C273.037 19.328 273.474 19.4667 274.029 19.616C274.765 19.8187 275.362 20.0213 275.821 20.224C276.29 20.4267 276.685 20.7413 277.005 21.168C277.336 21.584 277.501 22.144 277.501 22.848C277.501 23.4133 277.346 23.9467 277.037 24.448C276.738 24.9493 276.296 25.3547 275.709 25.664C275.133 25.9627 274.45 26.112 273.661 26.112Z" fill="#E9A5B2"/>
<path d="M86.357 38.913V39.667H83.835V48H82.925V39.667H80.39V38.913H86.357ZM93.9429 40.902V48H93.0329V46.752C92.8249 47.194 92.5042 47.532 92.0709 47.766C91.6376 48 91.1522 48.117 90.6149 48.117C89.7656 48.117 89.0722 47.857 88.5349 47.337C87.9976 46.8083 87.7289 46.0457 87.7289 45.049V40.902H88.6259V44.945C88.6259 45.7163 88.8166 46.3057 89.1979 46.713C89.5879 47.1203 90.1166 47.324 90.7839 47.324C91.4686 47.324 92.0146 47.1073 92.4219 46.674C92.8292 46.2407 93.0329 45.6037 93.0329 44.763V40.902H93.9429ZM98.4645 48.104C97.6498 48.104 96.9825 47.9177 96.4625 47.545C95.9511 47.1637 95.6651 46.648 95.6045 45.998H96.5405C96.5838 46.3967 96.7701 46.7217 97.0995 46.973C97.4375 47.2157 97.8881 47.337 98.4515 47.337C98.9455 47.337 99.3311 47.22 99.6085 46.986C99.8945 46.752 100.037 46.4617 100.037 46.115C100.037 45.8723 99.9595 45.673 99.8035 45.517C99.6475 45.361 99.4481 45.2397 99.2055 45.153C98.9715 45.0577 98.6508 44.958 98.2435 44.854C97.7148 44.7153 97.2858 44.5767 96.9565 44.438C96.6271 44.2993 96.3455 44.0957 96.1115 43.827C95.8861 43.5497 95.7735 43.1813 95.7735 42.722C95.7735 42.3753 95.8775 42.0547 96.0855 41.76C96.2935 41.4653 96.5881 41.2313 96.9695 41.058C97.3508 40.8847 97.7841 40.798 98.2695 40.798C99.0321 40.798 99.6475 40.993 100.115 41.383C100.583 41.7643 100.835 42.293 100.869 42.969H99.9595C99.9335 42.553 99.7688 42.2193 99.4655 41.968C99.1708 41.708 98.7635 41.578 98.2435 41.578C97.7841 41.578 97.4115 41.6863 97.1255 41.903C96.8395 42.1197 96.6965 42.3883 96.6965 42.709C96.6965 42.9863 96.7788 43.216 96.9435 43.398C97.1168 43.5713 97.3291 43.71 97.5805 43.814C97.8318 43.9093 98.1698 44.0177 98.5945 44.139C99.1058 44.2777 99.5131 44.412 99.8165 44.542C100.12 44.672 100.38 44.8627 100.596 45.114C100.813 45.3653 100.926 45.699 100.934 46.115C100.934 46.4963 100.83 46.8387 100.622 47.142C100.414 47.4367 100.124 47.6707 99.7515 47.844C99.3788 48.0173 98.9498 48.104 98.4645 48.104ZM105.799 44.438C105.799 43.71 105.946 43.073 106.241 42.527C106.535 41.9723 106.938 41.5477 107.45 41.253C107.97 40.9497 108.555 40.798 109.205 40.798C109.829 40.798 110.392 40.9497 110.895 41.253C111.397 41.5563 111.766 41.9507 112 42.436V38.38H112.91V48H112V46.414C111.783 46.908 111.428 47.3153 110.934 47.636C110.44 47.948 109.859 48.104 109.192 48.104C108.542 48.104 107.957 47.9523 107.437 47.649C106.925 47.3457 106.522 46.9167 106.228 46.362C105.942 45.8073 105.799 45.166 105.799 44.438ZM112 44.451C112 43.879 111.883 43.3763 111.649 42.943C111.415 42.5097 111.094 42.176 110.687 41.942C110.288 41.708 109.846 41.591 109.361 41.591C108.858 41.591 108.407 41.7037 108.009 41.929C107.61 42.1543 107.294 42.4837 107.06 42.917C106.834 43.3417 106.722 43.8487 106.722 44.438C106.722 45.0187 106.834 45.53 107.06 45.972C107.294 46.4053 107.61 46.739 108.009 46.973C108.407 47.1983 108.858 47.311 109.361 47.311C109.846 47.311 110.288 47.194 110.687 46.96C111.094 46.726 111.415 46.3923 111.649 45.959C111.883 45.5257 112 45.023 112 44.451ZM114.571 44.438C114.571 43.71 114.714 43.073 115 42.527C115.295 41.9723 115.698 41.5477 116.209 41.253C116.729 40.9497 117.314 40.798 117.964 40.798C118.64 40.798 119.221 40.954 119.706 41.266C120.2 41.578 120.556 41.9767 120.772 42.462V40.902H121.682V48H120.772V46.427C120.547 46.9123 120.187 47.3153 119.693 47.636C119.208 47.948 118.627 48.104 117.951 48.104C117.31 48.104 116.729 47.9523 116.209 47.649C115.698 47.3457 115.295 46.9167 115 46.362C114.714 45.8073 114.571 45.166 114.571 44.438ZM120.772 44.451C120.772 43.879 120.655 43.3763 120.421 42.943C120.187 42.5097 119.867 42.176 119.459 41.942C119.061 41.708 118.619 41.591 118.133 41.591C117.631 41.591 117.18 41.7037 116.781 41.929C116.383 42.1543 116.066 42.4837 115.832 42.917C115.607 43.3417 115.494 43.8487 115.494 44.438C115.494 45.0187 115.607 45.53 115.832 45.972C116.066 46.4053 116.383 46.739 116.781 46.973C117.18 47.1983 117.631 47.311 118.133 47.311C118.619 47.311 119.061 47.194 119.459 46.96C119.867 46.726 120.187 46.3923 120.421 45.959C120.655 45.5257 120.772 45.023 120.772 44.451ZM124.943 41.669V46.076C124.943 46.5093 125.025 46.8083 125.19 46.973C125.354 47.1377 125.645 47.22 126.061 47.22H126.893V48H125.918C125.276 48 124.8 47.8527 124.488 47.558C124.176 47.2547 124.02 46.7607 124.02 46.076V41.669H123.032V40.902H124.02V39.121H124.943V40.902H126.893V41.669H124.943ZM131.501 48.104C130.833 48.104 130.231 47.9567 129.694 47.662C129.165 47.3587 128.745 46.934 128.433 46.388C128.129 45.8333 127.978 45.1877 127.978 44.451C127.978 43.7143 128.134 43.073 128.446 42.527C128.758 41.9723 129.182 41.5477 129.72 41.253C130.257 40.9497 130.859 40.798 131.527 40.798C132.194 40.798 132.796 40.9497 133.334 41.253C133.88 41.5477 134.304 41.9723 134.608 42.527C134.92 43.073 135.076 43.7143 135.076 44.451C135.076 45.179 134.92 45.8203 134.608 46.375C134.296 46.9297 133.867 47.3587 133.321 47.662C132.775 47.9567 132.168 48.104 131.501 48.104ZM131.501 47.311C131.969 47.311 132.402 47.207 132.801 46.999C133.199 46.7823 133.52 46.4617 133.763 46.037C134.014 45.6037 134.14 45.075 134.14 44.451C134.14 43.827 134.018 43.3027 133.776 42.878C133.533 42.4447 133.212 42.124 132.814 41.916C132.415 41.6993 131.982 41.591 131.514 41.591C131.046 41.591 130.612 41.6993 130.214 41.916C129.815 42.124 129.494 42.4447 129.252 42.878C129.018 43.3027 128.901 43.827 128.901 44.451C128.901 45.075 129.018 45.6037 129.252 46.037C129.494 46.4617 129.811 46.7823 130.201 46.999C130.599 47.207 131.033 47.311 131.501 47.311ZM139.178 48.104C138.364 48.104 137.696 47.9177 137.176 47.545C136.665 47.1637 136.379 46.648 136.318 45.998H137.254C137.298 46.3967 137.484 46.7217 137.813 46.973C138.151 47.2157 138.602 47.337 139.165 47.337C139.659 47.337 140.045 47.22 140.322 46.986C140.608 46.752 140.751 46.4617 140.751 46.115C140.751 45.8723 140.673 45.673 140.517 45.517C140.361 45.361 140.162 45.2397 139.919 45.153C139.685 45.0577 139.365 44.958 138.957 44.854C138.429 44.7153 138 44.5767 137.67 44.438C137.341 44.2993 137.059 44.0957 136.825 43.827C136.6 43.5497 136.487 43.1813 136.487 42.722C136.487 42.3753 136.591 42.0547 136.799 41.76C137.007 41.4653 137.302 41.2313 137.683 41.058C138.065 40.8847 138.498 40.798 138.983 40.798C139.746 40.798 140.361 40.993 140.829 41.383C141.297 41.7643 141.549 42.293 141.583 42.969H140.673C140.647 42.553 140.483 42.2193 140.179 41.968C139.885 41.708 139.477 41.578 138.957 41.578C138.498 41.578 138.125 41.6863 137.839 41.903C137.553 42.1197 137.41 42.3883 137.41 42.709C137.41 42.9863 137.493 43.216 137.657 43.398C137.831 43.5713 138.043 43.71 138.294 43.814C138.546 43.9093 138.884 44.0177 139.308 44.139C139.82 44.2777 140.227 44.412 140.53 44.542C140.834 44.672 141.094 44.8627 141.31 45.114C141.527 45.3653 141.64 45.699 141.648 46.115C141.648 46.4963 141.544 46.8387 141.336 47.142C141.128 47.4367 140.838 47.6707 140.465 47.844C140.093 48.0173 139.664 48.104 139.178 48.104ZM147.826 42.462C148.051 41.9853 148.406 41.591 148.892 41.279C149.386 40.9583 149.971 40.798 150.647 40.798C151.288 40.798 151.864 40.9497 152.376 41.253C152.896 41.5477 153.299 41.9723 153.585 42.527C153.879 43.073 154.027 43.71 154.027 44.438C154.027 45.166 153.879 45.8073 153.585 46.362C153.299 46.9167 152.896 47.3457 152.376 47.649C151.864 47.9523 151.288 48.104 150.647 48.104C149.979 48.104 149.399 47.948 148.905 47.636C148.411 47.3153 148.051 46.9167 147.826 46.44V51.354H146.929V40.902H147.826V42.462ZM153.104 44.438C153.104 43.8487 152.987 43.3417 152.753 42.917C152.527 42.4837 152.215 42.1543 151.817 41.929C151.418 41.7037 150.967 41.591 150.465 41.591C149.979 41.591 149.533 41.708 149.126 41.942C148.727 42.176 148.411 42.5097 148.177 42.943C147.943 43.3763 147.826 43.879 147.826 44.451C147.826 45.023 147.943 45.5257 148.177 45.959C148.411 46.3923 148.727 46.726 149.126 46.96C149.533 47.194 149.979 47.311 150.465 47.311C150.967 47.311 151.418 47.1983 151.817 46.973C152.215 46.739 152.527 46.4053 152.753 45.972C152.987 45.53 153.104 45.0187 153.104 44.438ZM162.123 44.087C162.123 44.399 162.114 44.6373 162.097 44.802H156.208C156.234 45.3393 156.364 45.7987 156.598 46.18C156.832 46.5613 157.14 46.8517 157.521 47.051C157.902 47.2417 158.318 47.337 158.769 47.337C159.358 47.337 159.852 47.194 160.251 46.908C160.658 46.622 160.927 46.2363 161.057 45.751H162.019C161.846 46.4443 161.473 47.012 160.901 47.454C160.338 47.8873 159.627 48.104 158.769 48.104C158.102 48.104 157.504 47.9567 156.975 47.662C156.446 47.3587 156.03 46.934 155.727 46.388C155.432 45.8333 155.285 45.1877 155.285 44.451C155.285 43.7143 155.432 43.0687 155.727 42.514C156.022 41.9593 156.433 41.5347 156.962 41.24C157.491 40.9453 158.093 40.798 158.769 40.798C159.445 40.798 160.034 40.9453 160.537 41.24C161.048 41.5347 161.438 41.9333 161.707 42.436C161.984 42.93 162.123 43.4803 162.123 44.087ZM161.2 44.061C161.209 43.5323 161.1 43.0817 160.875 42.709C160.658 42.3363 160.359 42.0547 159.978 41.864C159.597 41.6733 159.181 41.578 158.73 41.578C158.054 41.578 157.478 41.7947 157.001 42.228C156.524 42.6613 156.26 43.2723 156.208 44.061H161.2ZM164.698 42.163C164.897 41.721 165.201 41.3787 165.608 41.136C166.024 40.8933 166.531 40.772 167.129 40.772V41.721H166.882C166.223 41.721 165.695 41.8987 165.296 42.254C164.897 42.6093 164.698 43.203 164.698 44.035V48H163.788V40.902H164.698V42.163ZM170.942 48.104C170.127 48.104 169.46 47.9177 168.94 47.545C168.429 47.1637 168.143 46.648 168.082 45.998H169.018C169.061 46.3967 169.248 46.7217 169.577 46.973C169.915 47.2157 170.366 47.337 170.929 47.337C171.423 47.337 171.809 47.22 172.086 46.986C172.372 46.752 172.515 46.4617 172.515 46.115C172.515 45.8723 172.437 45.673 172.281 45.517C172.125 45.361 171.926 45.2397 171.683 45.153C171.449 45.0577 171.128 44.958 170.721 44.854C170.192 44.7153 169.763 44.5767 169.434 44.438C169.105 44.2993 168.823 44.0957 168.589 43.827C168.364 43.5497 168.251 43.1813 168.251 42.722C168.251 42.3753 168.355 42.0547 168.563 41.76C168.771 41.4653 169.066 41.2313 169.447 41.058C169.828 40.8847 170.262 40.798 170.747 40.798C171.51 40.798 172.125 40.993 172.593 41.383C173.061 41.7643 173.312 42.293 173.347 42.969H172.437C172.411 42.553 172.246 42.2193 171.943 41.968C171.648 41.708 171.241 41.578 170.721 41.578C170.262 41.578 169.889 41.6863 169.603 41.903C169.317 42.1197 169.174 42.3883 169.174 42.709C169.174 42.9863 169.256 43.216 169.421 43.398C169.594 43.5713 169.807 43.71 170.058 43.814C170.309 43.9093 170.647 44.0177 171.072 44.139C171.583 44.2777 171.991 44.412 172.294 44.542C172.597 44.672 172.857 44.8627 173.074 45.114C173.291 45.3653 173.403 45.699 173.412 46.115C173.412 46.4963 173.308 46.8387 173.1 47.142C172.892 47.4367 172.602 47.6707 172.229 47.844C171.856 48.0173 171.427 48.104 170.942 48.104ZM178.232 48.104C177.565 48.104 176.962 47.9567 176.425 47.662C175.896 47.3587 175.476 46.934 175.164 46.388C174.861 45.8333 174.709 45.1877 174.709 44.451C174.709 43.7143 174.865 43.073 175.177 42.527C175.489 41.9723 175.914 41.5477 176.451 41.253C176.988 40.9497 177.591 40.798 178.258 40.798C178.925 40.798 179.528 40.9497 180.065 41.253C180.611 41.5477 181.036 41.9723 181.339 42.527C181.651 43.073 181.807 43.7143 181.807 44.451C181.807 45.179 181.651 45.8203 181.339 46.375C181.027 46.9297 180.598 47.3587 180.052 47.662C179.506 47.9567 178.899 48.104 178.232 48.104ZM178.232 47.311C178.7 47.311 179.133 47.207 179.532 46.999C179.931 46.7823 180.251 46.4617 180.494 46.037C180.745 45.6037 180.871 45.075 180.871 44.451C180.871 43.827 180.75 43.3027 180.507 42.878C180.264 42.4447 179.944 42.124 179.545 41.916C179.146 41.6993 178.713 41.591 178.245 41.591C177.777 41.591 177.344 41.6993 176.945 41.916C176.546 42.124 176.226 42.4447 175.983 42.878C175.749 43.3027 175.632 43.827 175.632 44.451C175.632 45.075 175.749 45.6037 175.983 46.037C176.226 46.4617 176.542 46.7823 176.932 46.999C177.331 47.207 177.764 47.311 178.232 47.311ZM186.794 40.772C187.643 40.772 188.336 41.0363 188.874 41.565C189.411 42.085 189.68 42.8433 189.68 43.84V48H188.783V43.944C188.783 43.1727 188.588 42.5833 188.198 42.176C187.816 41.7687 187.292 41.565 186.625 41.565C185.94 41.565 185.394 41.7817 184.987 42.215C184.579 42.6483 184.376 43.2853 184.376 44.126V48H183.466V40.902H184.376V42.111C184.601 41.6777 184.926 41.3483 185.351 41.123C185.775 40.889 186.256 40.772 186.794 40.772ZM191.276 44.438C191.276 43.71 191.419 43.073 191.705 42.527C192 41.9723 192.403 41.5477 192.914 41.253C193.434 40.9497 194.019 40.798 194.669 40.798C195.345 40.798 195.926 40.954 196.411 41.266C196.905 41.578 197.261 41.9767 197.477 42.462V40.902H198.387V48H197.477V46.427C197.252 46.9123 196.892 47.3153 196.398 47.636C195.913 47.948 195.332 48.104 194.656 48.104C194.015 48.104 193.434 47.9523 192.914 47.649C192.403 47.3457 192 46.9167 191.705 46.362C191.419 45.8073 191.276 45.166 191.276 44.438ZM197.477 44.451C197.477 43.879 197.36 43.3763 197.126 42.943C196.892 42.5097 196.572 42.176 196.164 41.942C195.766 41.708 195.324 41.591 194.838 41.591C194.336 41.591 193.885 41.7037 193.486 41.929C193.088 42.1543 192.771 42.4837 192.537 42.917C192.312 43.3417 192.199 43.8487 192.199 44.438C192.199 45.0187 192.312 45.53 192.537 45.972C192.771 46.4053 193.088 46.739 193.486 46.973C193.885 47.1983 194.336 47.311 194.838 47.311C195.324 47.311 195.766 47.194 196.164 46.96C196.572 46.726 196.892 46.3923 197.126 45.959C197.36 45.5257 197.477 45.023 197.477 44.451ZM201.375 38.38V48H200.465V38.38H201.375ZM209.858 44.087C209.858 44.399 209.849 44.6373 209.832 44.802H203.943C203.969 45.3393 204.099 45.7987 204.333 46.18C204.567 46.5613 204.874 46.8517 205.256 47.051C205.637 47.2417 206.053 47.337 206.504 47.337C207.093 47.337 207.587 47.194 207.986 46.908C208.393 46.622 208.662 46.2363 208.792 45.751H209.754C209.58 46.4443 209.208 47.012 208.636 47.454C208.072 47.8873 207.362 48.104 206.504 48.104C205.836 48.104 205.238 47.9567 204.71 47.662C204.181 47.3587 203.765 46.934 203.462 46.388C203.167 45.8333 203.02 45.1877 203.02 44.451C203.02 43.7143 203.167 43.0687 203.462 42.514C203.756 41.9593 204.168 41.5347 204.697 41.24C205.225 40.9453 205.828 40.798 206.504 40.798C207.18 40.798 207.769 40.9453 208.272 41.24C208.783 41.5347 209.173 41.9333 209.442 42.436C209.719 42.93 209.858 43.4803 209.858 44.087ZM208.935 44.061C208.943 43.5323 208.835 43.0817 208.61 42.709C208.393 42.3363 208.094 42.0547 207.713 41.864C207.331 41.6733 206.915 41.578 206.465 41.578C205.789 41.578 205.212 41.7947 204.736 42.228C204.259 42.6613 203.995 43.2723 203.943 44.061H208.935ZM213.966 48.104C213.152 48.104 212.484 47.9177 211.964 47.545C211.453 47.1637 211.167 46.648 211.106 45.998H212.042C212.086 46.3967 212.272 46.7217 212.601 46.973C212.939 47.2157 213.39 47.337 213.953 47.337C214.447 47.337 214.833 47.22 215.11 46.986C215.396 46.752 215.539 46.4617 215.539 46.115C215.539 45.8723 215.461 45.673 215.305 45.517C215.149 45.361 214.95 45.2397 214.707 45.153C214.473 45.0577 214.153 44.958 213.745 44.854C213.217 44.7153 212.788 44.5767 212.458 44.438C212.129 44.2993 211.847 44.0957 211.613 43.827C211.388 43.5497 211.275 43.1813 211.275 42.722C211.275 42.3753 211.379 42.0547 211.587 41.76C211.795 41.4653 212.09 41.2313 212.471 41.058C212.853 40.8847 213.286 40.798 213.771 40.798C214.534 40.798 215.149 40.993 215.617 41.383C216.085 41.7643 216.337 42.293 216.371 42.969H215.461C215.435 42.553 215.271 42.2193 214.967 41.968C214.673 41.708 214.265 41.578 213.745 41.578C213.286 41.578 212.913 41.6863 212.627 41.903C212.341 42.1197 212.198 42.3883 212.198 42.709C212.198 42.9863 212.281 43.216 212.445 43.398C212.619 43.5713 212.831 43.71 213.082 43.814C213.334 43.9093 213.672 44.0177 214.096 44.139C214.608 44.2777 215.015 44.412 215.318 44.542C215.622 44.672 215.882 44.8627 216.098 45.114C216.315 45.3653 216.428 45.699 216.436 46.115C216.436 46.4963 216.332 46.8387 216.124 47.142C215.916 47.4367 215.626 47.6707 215.253 47.844C214.881 48.0173 214.452 48.104 213.966 48.104ZM228.139 44.087C228.139 44.399 228.13 44.6373 228.113 44.802H222.224C222.25 45.3393 222.38 45.7987 222.614 46.18C222.848 46.5613 223.155 46.8517 223.537 47.051C223.918 47.2417 224.334 47.337 224.785 47.337C225.374 47.337 225.868 47.194 226.267 46.908C226.674 46.622 226.943 46.2363 227.073 45.751H228.035C227.861 46.4443 227.489 47.012 226.917 47.454C226.353 47.8873 225.643 48.104 224.785 48.104C224.117 48.104 223.519 47.9567 222.991 47.662C222.462 47.3587 222.046 46.934 221.743 46.388C221.448 45.8333 221.301 45.1877 221.301 44.451C221.301 43.7143 221.448 43.0687 221.743 42.514C222.037 41.9593 222.449 41.5347 222.978 41.24C223.506 40.9453 224.109 40.798 224.785 40.798C225.461 40.798 226.05 40.9453 226.553 41.24C227.064 41.5347 227.454 41.9333 227.723 42.436C228 42.93 228.139 43.4803 228.139 44.087ZM227.216 44.061C227.224 43.5323 227.116 43.0817 226.891 42.709C226.674 42.3363 226.375 42.0547 225.994 41.864C225.612 41.6733 225.196 41.578 224.746 41.578C224.07 41.578 223.493 41.7947 223.017 42.228C222.54 42.6613 222.276 43.2723 222.224 44.061H227.216ZM232.248 48.104C231.433 48.104 230.766 47.9177 230.246 47.545C229.734 47.1637 229.448 46.648 229.388 45.998H230.324C230.367 46.3967 230.553 46.7217 230.883 46.973C231.221 47.2157 231.671 47.337 232.235 47.337C232.729 47.337 233.114 47.22 233.392 46.986C233.678 46.752 233.821 46.4617 233.821 46.115C233.821 45.8723 233.743 45.673 233.587 45.517C233.431 45.361 233.231 45.2397 232.989 45.153C232.755 45.0577 232.434 44.958 232.027 44.854C231.498 44.7153 231.069 44.5767 230.74 44.438C230.41 44.2993 230.129 44.0957 229.895 43.827C229.669 43.5497 229.557 43.1813 229.557 42.722C229.557 42.3753 229.661 42.0547 229.869 41.76C230.077 41.4653 230.371 41.2313 230.753 41.058C231.134 40.8847 231.567 40.798 232.053 40.798C232.815 40.798 233.431 40.993 233.899 41.383C234.367 41.7643 234.618 42.293 234.653 42.969H233.743C233.717 42.553 233.552 42.2193 233.249 41.968C232.954 41.708 232.547 41.578 232.027 41.578C231.567 41.578 231.195 41.6863 230.909 41.903C230.623 42.1197 230.48 42.3883 230.48 42.709C230.48 42.9863 230.562 43.216 230.727 43.398C230.9 43.5713 231.112 43.71 231.364 43.814C231.615 43.9093 231.953 44.0177 232.378 44.139C232.889 44.2777 233.296 44.412 233.6 44.542C233.903 44.672 234.163 44.8627 234.38 45.114C234.596 45.3653 234.709 45.699 234.718 46.115C234.718 46.4963 234.614 46.8387 234.406 47.142C234.198 47.4367 233.907 47.6707 233.535 47.844C233.162 48.0173 232.733 48.104 232.248 48.104ZM237.614 41.669V46.076C237.614 46.5093 237.696 46.8083 237.861 46.973C238.025 47.1377 238.316 47.22 238.732 47.22H239.564V48H238.589C237.947 48 237.471 47.8527 237.159 47.558C236.847 47.2547 236.691 46.7607 236.691 46.076V41.669H235.703V40.902H236.691V39.121H237.614V40.902H239.564V41.669H237.614ZM240.648 44.438C240.648 43.71 240.791 43.073 241.077 42.527C241.372 41.9723 241.775 41.5477 242.286 41.253C242.806 40.9497 243.391 40.798 244.041 40.798C244.717 40.798 245.298 40.954 245.783 41.266C246.277 41.578 246.633 41.9767 246.849 42.462V40.902H247.759V48H246.849V46.427C246.624 46.9123 246.264 47.3153 245.77 47.636C245.285 47.948 244.704 48.104 244.028 48.104C243.387 48.104 242.806 47.9523 242.286 47.649C241.775 47.3457 241.372 46.9167 241.077 46.362C240.791 45.8073 240.648 45.166 240.648 44.438ZM246.849 44.451C246.849 43.879 246.732 43.3763 246.498 42.943C246.264 42.5097 245.944 42.176 245.536 41.942C245.138 41.708 244.696 41.591 244.21 41.591C243.708 41.591 243.257 41.7037 242.858 41.929C242.46 42.1543 242.143 42.4837 241.909 42.917C241.684 43.3417 241.571 43.8487 241.571 44.438C241.571 45.0187 241.684 45.53 241.909 45.972C242.143 46.4053 242.46 46.739 242.858 46.973C243.257 47.1983 243.708 47.311 244.21 47.311C244.696 47.311 245.138 47.194 245.536 46.96C245.944 46.726 246.264 46.3923 246.498 45.959C246.732 45.5257 246.849 45.023 246.849 44.451ZM245.627 38.809L242.962 40.356V39.654L245.627 37.99V38.809ZM253.165 40.772C254.014 40.772 254.708 41.0363 255.245 41.565C255.782 42.085 256.051 42.8433 256.051 43.84V48H255.154V43.944C255.154 43.1727 254.959 42.5833 254.569 42.176C254.188 41.7687 253.663 41.565 252.996 41.565C252.311 41.565 251.765 41.7817 251.358 42.215C250.951 42.6483 250.747 43.2853 250.747 44.126V48H249.837V40.902H250.747V42.111C250.972 41.6777 251.297 41.3483 251.722 41.123C252.147 40.889 252.628 40.772 253.165 40.772ZM264.075 48.104C263.26 48.104 262.593 47.9177 262.073 47.545C261.561 47.1637 261.275 46.648 261.215 45.998H262.151C262.194 46.3967 262.38 46.7217 262.71 46.973C263.048 47.2157 263.498 47.337 264.062 47.337C264.556 47.337 264.941 47.22 265.219 46.986C265.505 46.752 265.648 46.4617 265.648 46.115C265.648 45.8723 265.57 45.673 265.414 45.517C265.258 45.361 265.058 45.2397 264.816 45.153C264.582 45.0577 264.261 44.958 263.854 44.854C263.325 44.7153 262.896 44.5767 262.567 44.438C262.237 44.2993 261.956 44.0957 261.722 43.827C261.496 43.5497 261.384 43.1813 261.384 42.722C261.384 42.3753 261.488 42.0547 261.696 41.76C261.904 41.4653 262.198 41.2313 262.58 41.058C262.961 40.8847 263.394 40.798 263.88 40.798C264.642 40.798 265.258 40.993 265.726 41.383C266.194 41.7643 266.445 42.293 266.48 42.969H265.57C265.544 42.553 265.379 42.2193 265.076 41.968C264.781 41.708 264.374 41.578 263.854 41.578C263.394 41.578 263.022 41.6863 262.736 41.903C262.45 42.1197 262.307 42.3883 262.307 42.709C262.307 42.9863 262.389 43.216 262.554 43.398C262.727 43.5713 262.939 43.71 263.191 43.814C263.442 43.9093 263.78 44.0177 264.205 44.139C264.716 44.2777 265.123 44.412 265.427 44.542C265.73 44.672 265.99 44.8627 266.207 45.114C266.423 45.3653 266.536 45.699 266.545 46.115C266.545 46.4963 266.441 46.8387 266.233 47.142C266.025 47.4367 265.734 47.6707 265.362 47.844C264.989 48.0173 264.56 48.104 264.075 48.104ZM268.713 39.563C268.531 39.563 268.375 39.498 268.245 39.368C268.115 39.238 268.05 39.0777 268.05 38.887C268.05 38.6963 268.115 38.5403 268.245 38.419C268.375 38.289 268.531 38.224 268.713 38.224C268.895 38.224 269.051 38.289 269.181 38.419C269.311 38.5403 269.376 38.6963 269.376 38.887C269.376 39.0777 269.311 39.238 269.181 39.368C269.051 39.498 268.895 39.563 268.713 39.563ZM269.168 40.902V48H268.258V40.902H269.168ZM277.65 44.087C277.65 44.399 277.642 44.6373 277.624 44.802H271.735C271.761 45.3393 271.891 45.7987 272.125 46.18C272.359 46.5613 272.667 46.8517 273.048 47.051C273.43 47.2417 273.846 47.337 274.296 47.337C274.886 47.337 275.38 47.194 275.778 46.908C276.186 46.622 276.454 46.2363 276.584 45.751H277.546C277.373 46.4443 277 47.012 276.428 47.454C275.865 47.8873 275.154 48.104 274.296 48.104C273.629 48.104 273.031 47.9567 272.502 47.662C271.974 47.3587 271.558 46.934 271.254 46.388C270.96 45.8333 270.812 45.1877 270.812 44.451C270.812 43.7143 270.96 43.0687 271.254 42.514C271.549 41.9593 271.961 41.5347 272.489 41.24C273.018 40.9453 273.62 40.798 274.296 40.798C274.972 40.798 275.562 40.9453 276.064 41.24C276.576 41.5347 276.966 41.9333 277.234 42.436C277.512 42.93 277.65 43.4803 277.65 44.087ZM276.727 44.061C276.736 43.5323 276.628 43.0817 276.402 42.709C276.186 42.3363 275.887 42.0547 275.505 41.864C275.124 41.6733 274.708 41.578 274.257 41.578C273.581 41.578 273.005 41.7947 272.528 42.228C272.052 42.6613 271.787 43.2723 271.735 44.061H276.727ZM287.765 40.772C288.597 40.772 289.273 41.0363 289.793 41.565C290.322 42.085 290.586 42.8433 290.586 43.84V48H289.689V43.944C289.689 43.1727 289.503 42.5833 289.13 42.176C288.758 41.7687 288.251 41.565 287.609 41.565C286.942 41.565 286.409 41.786 286.01 42.228C285.612 42.67 285.412 43.3113 285.412 44.152V48H284.515V43.944C284.515 43.1727 284.329 42.5833 283.956 42.176C283.584 41.7687 283.072 41.565 282.422 41.565C281.755 41.565 281.222 41.786 280.823 42.228C280.425 42.67 280.225 43.3113 280.225 44.152V48H279.315V40.902H280.225V42.124C280.451 41.682 280.771 41.3483 281.187 41.123C281.603 40.889 282.067 40.772 282.578 40.772C283.194 40.772 283.731 40.9193 284.19 41.214C284.658 41.5087 284.996 41.942 285.204 42.514C285.395 41.9507 285.72 41.5217 286.179 41.227C286.647 40.9237 287.176 40.772 287.765 40.772ZM293.504 42.462C293.73 41.9853 294.085 41.591 294.57 41.279C295.064 40.9583 295.649 40.798 296.325 40.798C296.967 40.798 297.543 40.9497 298.054 41.253C298.574 41.5477 298.977 41.9723 299.263 42.527C299.558 43.073 299.705 43.71 299.705 44.438C299.705 45.166 299.558 45.8073 299.263 46.362C298.977 46.9167 298.574 47.3457 298.054 47.649C297.543 47.9523 296.967 48.104 296.325 48.104C295.658 48.104 295.077 47.948 294.583 47.636C294.089 47.3153 293.73 46.9167 293.504 46.44V51.354H292.607V40.902H293.504V42.462ZM298.782 44.438C298.782 43.8487 298.665 43.3417 298.431 42.917C298.206 42.4837 297.894 42.1543 297.495 41.929C297.097 41.7037 296.646 41.591 296.143 41.591C295.658 41.591 295.212 41.708 294.804 41.942C294.406 42.176 294.089 42.5097 293.855 42.943C293.621 43.3763 293.504 43.879 293.504 44.451C293.504 45.023 293.621 45.5257 293.855 45.959C294.089 46.3923 294.406 46.726 294.804 46.96C295.212 47.194 295.658 47.311 296.143 47.311C296.646 47.311 297.097 47.1983 297.495 46.973C297.894 46.739 298.206 46.4053 298.431 45.972C298.665 45.53 298.782 45.0187 298.782 44.438ZM302.29 42.163C302.489 41.721 302.793 41.3787 303.2 41.136C303.616 40.8933 304.123 40.772 304.721 40.772V41.721H304.474C303.815 41.721 303.287 41.8987 302.888 42.254C302.489 42.6093 302.29 43.203 302.29 44.035V48H301.38V40.902H302.29V42.163ZM312.512 44.087C312.512 44.399 312.503 44.6373 312.486 44.802H306.597C306.623 45.3393 306.753 45.7987 306.987 46.18C307.221 46.5613 307.528 46.8517 307.91 47.051C308.291 47.2417 308.707 47.337 309.158 47.337C309.747 47.337 310.241 47.194 310.64 46.908C311.047 46.622 311.316 46.2363 311.446 45.751H312.408C312.234 46.4443 311.862 47.012 311.29 47.454C310.726 47.8873 310.016 48.104 309.158 48.104C308.49 48.104 307.892 47.9567 307.364 47.662C306.835 47.3587 306.419 46.934 306.116 46.388C305.821 45.8333 305.674 45.1877 305.674 44.451C305.674 43.7143 305.821 43.0687 306.116 42.514C306.41 41.9593 306.822 41.5347 307.351 41.24C307.879 40.9453 308.482 40.798 309.158 40.798C309.834 40.798 310.423 40.9453 310.926 41.24C311.437 41.5347 311.827 41.9333 312.096 42.436C312.373 42.93 312.512 43.4803 312.512 44.087ZM311.589 44.061C311.597 43.5323 311.489 43.0817 311.264 42.709C311.047 42.3363 310.748 42.0547 310.367 41.864C309.985 41.6733 309.569 41.578 309.119 41.578C308.443 41.578 307.866 41.7947 307.39 42.228C306.913 42.6613 306.649 43.2723 306.597 44.061H311.589ZM320.188 48.104C319.373 48.104 318.706 47.9177 318.186 47.545C317.675 47.1637 317.389 46.648 317.328 45.998H318.264C318.307 46.3967 318.494 46.7217 318.823 46.973C319.161 47.2157 319.612 47.337 320.175 47.337C320.669 47.337 321.055 47.22 321.332 46.986C321.618 46.752 321.761 46.4617 321.761 46.115C321.761 45.8723 321.683 45.673 321.527 45.517C321.371 45.361 321.172 45.2397 320.929 45.153C320.695 45.0577 320.374 44.958 319.967 44.854C319.438 44.7153 319.009 44.5767 318.68 44.438C318.351 44.2993 318.069 44.0957 317.835 43.827C317.61 43.5497 317.497 43.1813 317.497 42.722C317.497 42.3753 317.601 42.0547 317.809 41.76C318.017 41.4653 318.312 41.2313 318.693 41.058C319.074 40.8847 319.508 40.798 319.993 40.798C320.756 40.798 321.371 40.993 321.839 41.383C322.307 41.7643 322.558 42.293 322.593 42.969H321.683C321.657 42.553 321.492 42.2193 321.189 41.968C320.894 41.708 320.487 41.578 319.967 41.578C319.508 41.578 319.135 41.6863 318.849 41.903C318.563 42.1197 318.42 42.3883 318.42 42.709C318.42 42.9863 318.502 43.216 318.667 43.398C318.84 43.5713 319.053 43.71 319.304 43.814C319.555 43.9093 319.893 44.0177 320.318 44.139C320.829 44.2777 321.237 44.412 321.54 44.542C321.843 44.672 322.103 44.8627 322.32 45.114C322.537 45.3653 322.649 45.699 322.658 46.115C322.658 46.4963 322.554 46.8387 322.346 47.142C322.138 47.4367 321.848 47.6707 321.475 47.844C321.102 48.0173 320.673 48.104 320.188 48.104ZM330.793 44.087C330.793 44.399 330.784 44.6373 330.767 44.802H324.878C324.904 45.3393 325.034 45.7987 325.268 46.18C325.502 46.5613 325.81 46.8517 326.191 47.051C326.572 47.2417 326.988 47.337 327.439 47.337C328.028 47.337 328.522 47.194 328.921 46.908C329.328 46.622 329.597 46.2363 329.727 45.751H330.689C330.516 46.4443 330.143 47.012 329.571 47.454C329.008 47.8873 328.297 48.104 327.439 48.104C326.772 48.104 326.174 47.9567 325.645 47.662C325.116 47.3587 324.7 46.934 324.397 46.388C324.102 45.8333 323.955 45.1877 323.955 44.451C323.955 43.7143 324.102 43.0687 324.397 42.514C324.692 41.9593 325.103 41.5347 325.632 41.24C326.161 40.9453 326.763 40.798 327.439 40.798C328.115 40.798 328.704 40.9453 329.207 41.24C329.718 41.5347 330.108 41.9333 330.377 42.436C330.654 42.93 330.793 43.4803 330.793 44.087ZM329.87 44.061C329.879 43.5323 329.77 43.0817 329.545 42.709C329.328 42.3363 329.029 42.0547 328.648 41.864C328.267 41.6733 327.851 41.578 327.4 41.578C326.724 41.578 326.148 41.7947 325.671 42.228C325.194 42.6613 324.93 43.2723 324.878 44.061H329.87ZM335.435 40.798C336.102 40.798 336.683 40.954 337.177 41.266C337.671 41.578 338.026 41.9723 338.243 42.449V40.902H339.153V48.182C339.153 48.832 339.01 49.4083 338.724 49.911C338.447 50.4137 338.057 50.7993 337.554 51.068C337.051 51.3453 336.479 51.484 335.838 51.484C334.928 51.484 334.17 51.2673 333.563 50.834C332.965 50.4007 332.592 49.8113 332.445 49.066H333.342C333.498 49.56 333.793 49.9543 334.226 50.249C334.668 50.5437 335.205 50.691 335.838 50.691C336.297 50.691 336.709 50.5913 337.073 50.392C337.437 50.2013 337.723 49.9153 337.931 49.534C338.139 49.1527 338.243 48.702 338.243 48.182V46.427C338.018 46.9123 337.658 47.3153 337.164 47.636C336.679 47.948 336.102 48.104 335.435 48.104C334.785 48.104 334.2 47.9523 333.68 47.649C333.169 47.3457 332.766 46.9167 332.471 46.362C332.185 45.8073 332.042 45.166 332.042 44.438C332.042 43.71 332.185 43.073 332.471 42.527C332.766 41.9723 333.169 41.5477 333.68 41.253C334.2 40.9497 334.785 40.798 335.435 40.798ZM338.243 44.451C338.243 43.879 338.126 43.3763 337.892 42.943C337.658 42.5097 337.337 42.176 336.93 41.942C336.531 41.708 336.089 41.591 335.604 41.591C335.101 41.591 334.651 41.7037 334.252 41.929C333.853 42.1543 333.537 42.4837 333.303 42.917C333.078 43.3417 332.965 43.8487 332.965 44.438C332.965 45.0187 333.078 45.53 333.303 45.972C333.537 46.4053 333.853 46.739 334.252 46.973C334.651 47.1983 335.101 47.311 335.604 47.311C336.089 47.311 336.531 47.194 336.93 46.96C337.337 46.726 337.658 46.3923 337.892 45.959C338.126 45.5257 338.243 45.023 338.243 44.451ZM347.379 40.902V48H346.469V46.752C346.261 47.194 345.941 47.532 345.507 47.766C345.074 48 344.589 48.117 344.051 48.117C343.202 48.117 342.509 47.857 341.971 47.337C341.434 46.8083 341.165 46.0457 341.165 45.049V40.902H342.062V44.945C342.062 45.7163 342.253 46.3057 342.634 46.713C343.024 47.1203 343.553 47.324 344.22 47.324C344.905 47.324 345.451 47.1073 345.858 46.674C346.266 46.2407 346.469 45.6037 346.469 44.763V40.902H347.379ZM350.367 42.163C350.566 41.721 350.87 41.3787 351.277 41.136C351.693 40.8933 352.2 40.772 352.798 40.772V41.721H352.551C351.892 41.721 351.364 41.8987 350.965 42.254C350.566 42.6093 350.367 43.203 350.367 44.035V48H349.457V40.902H350.367V42.163ZM357.274 48.104C356.607 48.104 356.004 47.9567 355.467 47.662C354.938 47.3587 354.518 46.934 354.206 46.388C353.903 45.8333 353.751 45.1877 353.751 44.451C353.751 43.7143 353.907 43.073 354.219 42.527C354.531 41.9723 354.956 41.5477 355.493 41.253C356.03 40.9497 356.633 40.798 357.3 40.798C357.967 40.798 358.57 40.9497 359.107 41.253C359.653 41.5477 360.078 41.9723 360.381 42.527C360.693 43.073 360.849 43.7143 360.849 44.451C360.849 45.179 360.693 45.8203 360.381 46.375C360.069 46.9297 359.64 47.3587 359.094 47.662C358.548 47.9567 357.941 48.104 357.274 48.104ZM357.274 47.311C357.742 47.311 358.175 47.207 358.574 46.999C358.973 46.7823 359.293 46.4617 359.536 46.037C359.787 45.6037 359.913 45.075 359.913 44.451C359.913 43.827 359.792 43.3027 359.549 42.878C359.306 42.4447 358.986 42.124 358.587 41.916C358.188 41.6993 357.755 41.591 357.287 41.591C356.819 41.591 356.386 41.6993 355.987 41.916C355.588 42.124 355.268 42.4447 355.025 42.878C354.791 43.3027 354.674 43.827 354.674 44.451C354.674 45.075 354.791 45.6037 355.025 46.037C355.268 46.4617 355.584 46.7823 355.974 46.999C356.373 47.207 356.806 47.311 357.274 47.311ZM364.952 48.104C364.137 48.104 363.47 47.9177 362.95 47.545C362.438 47.1637 362.152 46.648 362.092 45.998H363.028C363.071 46.3967 363.257 46.7217 363.587 46.973C363.925 47.2157 364.375 47.337 364.939 47.337C365.433 47.337 365.818 47.22 366.096 46.986C366.382 46.752 366.525 46.4617 366.525 46.115C366.525 45.8723 366.447 45.673 366.291 45.517C366.135 45.361 365.935 45.2397 365.693 45.153C365.459 45.0577 365.138 44.958 364.731 44.854C364.202 44.7153 363.773 44.5767 363.444 44.438C363.114 44.2993 362.833 44.0957 362.599 43.827C362.373 43.5497 362.261 43.1813 362.261 42.722C362.261 42.3753 362.365 42.0547 362.573 41.76C362.781 41.4653 363.075 41.2313 363.457 41.058C363.838 40.8847 364.271 40.798 364.757 40.798C365.519 40.798 366.135 40.993 366.603 41.383C367.071 41.7643 367.322 42.293 367.357 42.969H366.447C366.421 42.553 366.256 42.2193 365.953 41.968C365.658 41.708 365.251 41.578 364.731 41.578C364.271 41.578 363.899 41.6863 363.613 41.903C363.327 42.1197 363.184 42.3883 363.184 42.709C363.184 42.9863 363.266 43.216 363.431 43.398C363.604 43.5713 363.816 43.71 364.068 43.814C364.319 43.9093 364.657 44.0177 365.082 44.139C365.593 44.2777 366 44.412 366.304 44.542C366.607 44.672 366.867 44.8627 367.084 45.114C367.3 45.3653 367.413 45.699 367.422 46.115C367.422 46.4963 367.318 46.8387 367.11 47.142C366.902 47.4367 366.611 47.6707 366.239 47.844C365.866 48.0173 365.437 48.104 364.952 48.104ZM80.624 63.451C80.624 62.7143 80.7713 62.073 81.066 61.527C81.3607 60.9723 81.768 60.5477 82.288 60.253C82.808 59.9497 83.4017 59.798 84.069 59.798C84.9443 59.798 85.6637 60.0147 86.227 60.448C86.799 60.8813 87.1673 61.4707 87.332 62.216H86.357C86.2357 61.7047 85.9713 61.306 85.564 61.02C85.1653 60.7253 84.667 60.578 84.069 60.578C83.5923 60.578 83.1633 60.6863 82.782 60.903C82.4007 61.1197 82.0973 61.4447 81.872 61.878C81.6553 62.3027 81.547 62.827 81.547 63.451C81.547 64.075 81.6553 64.6037 81.872 65.037C82.0973 65.4703 82.4007 65.7953 82.782 66.012C83.1633 66.2287 83.5923 66.337 84.069 66.337C84.667 66.337 85.1653 66.194 85.564 65.908C85.9713 65.6133 86.2357 65.206 86.357 64.686H87.332C87.1673 65.414 86.799 65.999 86.227 66.441C85.655 66.883 84.9357 67.104 84.069 67.104C83.4017 67.104 82.808 66.9567 82.288 66.662C81.768 66.3587 81.3607 65.934 81.066 65.388C80.7713 64.8333 80.624 64.1877 80.624 63.451ZM92.1197 67.104C91.4523 67.104 90.85 66.9567 90.3127 66.662C89.784 66.3587 89.3637 65.934 89.0517 65.388C88.7483 64.8333 88.5967 64.1877 88.5967 63.451C88.5967 62.7143 88.7527 62.073 89.0647 61.527C89.3767 60.9723 89.8013 60.5477 90.3387 60.253C90.876 59.9497 91.4783 59.798 92.1457 59.798C92.813 59.798 93.4153 59.9497 93.9527 60.253C94.4987 60.5477 94.9233 60.9723 95.2267 61.527C95.5387 62.073 95.6947 62.7143 95.6947 63.451C95.6947 64.179 95.5387 64.8203 95.2267 65.375C94.9147 65.9297 94.4857 66.3587 93.9397 66.662C93.3937 66.9567 92.787 67.104 92.1197 67.104ZM92.1197 66.311C92.5877 66.311 93.021 66.207 93.4197 65.999C93.8183 65.7823 94.139 65.4617 94.3817 65.037C94.633 64.6037 94.7587 64.075 94.7587 63.451C94.7587 62.827 94.6373 62.3027 94.3947 61.878C94.152 61.4447 93.8313 61.124 93.4327 60.916C93.034 60.6993 92.6007 60.591 92.1327 60.591C91.6647 60.591 91.2313 60.6993 90.8327 60.916C90.434 61.124 90.1133 61.4447 89.8707 61.878C89.6367 62.3027 89.5197 62.827 89.5197 63.451C89.5197 64.075 89.6367 64.6037 89.8707 65.037C90.1133 65.4617 90.4297 65.7823 90.8197 65.999C91.2183 66.207 91.6517 66.311 92.1197 66.311ZM100.681 59.772C101.531 59.772 102.224 60.0363 102.761 60.565C103.299 61.085 103.567 61.8433 103.567 62.84V67H102.67V62.944C102.67 62.1727 102.475 61.5833 102.085 61.176C101.704 60.7687 101.18 60.565 100.512 60.565C99.8278 60.565 99.2818 60.7817 98.8745 61.215C98.4671 61.6483 98.2635 62.2853 98.2635 63.126V67H97.3535V59.902H98.2635V61.111C98.4888 60.6777 98.8138 60.3483 99.2385 60.123C99.6631 59.889 100.144 59.772 100.681 59.772ZM112.475 59.772C113.325 59.772 114.018 60.0363 114.555 60.565C115.093 61.085 115.361 61.8433 115.361 62.84V67H114.464V62.944C114.464 62.1727 114.269 61.5833 113.879 61.176C113.498 60.7687 112.974 60.565 112.306 60.565C111.622 60.565 111.076 60.7817 110.668 61.215C110.261 61.6483 110.057 62.2853 110.057 63.126V67H109.147V59.902H110.057V61.111C110.283 60.6777 110.608 60.3483 111.032 60.123C111.457 59.889 111.938 59.772 112.475 59.772ZM120.481 67.104C119.814 67.104 119.211 66.9567 118.674 66.662C118.145 66.3587 117.725 65.934 117.413 65.388C117.11 64.8333 116.958 64.1877 116.958 63.451C116.958 62.7143 117.114 62.073 117.426 61.527C117.738 60.9723 118.163 60.5477 118.7 60.253C119.237 59.9497 119.84 59.798 120.507 59.798C121.174 59.798 121.777 59.9497 122.314 60.253C122.86 60.5477 123.285 60.9723 123.588 61.527C123.9 62.073 124.056 62.7143 124.056 63.451C124.056 64.179 123.9 64.8203 123.588 65.375C123.276 65.9297 122.847 66.3587 122.301 66.662C121.755 66.9567 121.148 67.104 120.481 67.104ZM120.481 66.311C120.949 66.311 121.382 66.207 121.781 65.999C122.18 65.7823 122.5 65.4617 122.743 65.037C122.994 64.6037 123.12 64.075 123.12 63.451C123.12 62.827 122.999 62.3027 122.756 61.878C122.513 61.4447 122.193 61.124 121.794 60.916C121.395 60.6993 120.962 60.591 120.494 60.591C120.026 60.591 119.593 60.6993 119.194 60.916C118.795 61.124 118.475 61.4447 118.232 61.878C117.998 62.3027 117.881 62.827 117.881 63.451C117.881 64.075 117.998 64.6037 118.232 65.037C118.475 65.4617 118.791 65.7823 119.181 65.999C119.58 66.207 120.013 66.311 120.481 66.311ZM128.159 67.104C127.344 67.104 126.677 66.9177 126.157 66.545C125.645 66.1637 125.359 65.648 125.299 64.998H126.235C126.278 65.3967 126.464 65.7217 126.794 65.973C127.132 66.2157 127.582 66.337 128.146 66.337C128.64 66.337 129.025 66.22 129.303 65.986C129.589 65.752 129.732 65.4617 129.732 65.115C129.732 64.8723 129.654 64.673 129.498 64.517C129.342 64.361 129.142 64.2397 128.9 64.153C128.666 64.0577 128.345 63.958 127.938 63.854C127.409 63.7153 126.98 63.5767 126.651 63.438C126.321 63.2993 126.04 63.0957 125.806 62.827C125.58 62.5497 125.468 62.1813 125.468 61.722C125.468 61.3753 125.572 61.0547 125.78 60.76C125.988 60.4653 126.282 60.2313 126.664 60.058C127.045 59.8847 127.478 59.798 127.964 59.798C128.726 59.798 129.342 59.993 129.81 60.383C130.278 60.7643 130.529 61.293 130.564 61.969H129.654C129.628 61.553 129.463 61.2193 129.16 60.968C128.865 60.708 128.458 60.578 127.938 60.578C127.478 60.578 127.106 60.6863 126.82 60.903C126.534 61.1197 126.391 61.3883 126.391 61.709C126.391 61.9863 126.473 62.216 126.638 62.398C126.811 62.5713 127.023 62.71 127.275 62.814C127.526 62.9093 127.864 63.0177 128.289 63.139C128.8 63.2777 129.207 63.412 129.511 63.542C129.814 63.672 130.074 63.8627 130.291 64.114C130.507 64.3653 130.62 64.699 130.629 65.115C130.629 65.4963 130.525 65.8387 130.317 66.142C130.109 66.4367 129.818 66.6707 129.446 66.844C129.073 67.0173 128.644 67.104 128.159 67.104ZM135.449 67.104C134.781 67.104 134.179 66.9567 133.642 66.662C133.113 66.3587 132.693 65.934 132.381 65.388C132.077 64.8333 131.926 64.1877 131.926 63.451C131.926 62.7143 132.082 62.073 132.394 61.527C132.706 60.9723 133.13 60.5477 133.668 60.253C134.205 59.9497 134.807 59.798 135.475 59.798C136.142 59.798 136.744 59.9497 137.282 60.253C137.828 60.5477 138.252 60.9723 138.556 61.527C138.868 62.073 139.024 62.7143 139.024 63.451C139.024 64.179 138.868 64.8203 138.556 65.375C138.244 65.9297 137.815 66.3587 137.269 66.662C136.723 66.9567 136.116 67.104 135.449 67.104ZM135.449 66.311C135.917 66.311 136.35 66.207 136.749 65.999C137.147 65.7823 137.468 65.4617 137.711 65.037C137.962 64.6037 138.088 64.075 138.088 63.451C138.088 62.827 137.966 62.3027 137.724 61.878C137.481 61.4447 137.16 61.124 136.762 60.916C136.363 60.6993 135.93 60.591 135.462 60.591C134.994 60.591 134.56 60.6993 134.162 60.916C133.763 61.124 133.442 61.4447 133.2 61.878C132.966 62.3027 132.849 62.827 132.849 63.451C132.849 64.075 132.966 64.6037 133.2 65.037C133.442 65.4617 133.759 65.7823 134.149 65.999C134.547 66.207 134.981 66.311 135.449 66.311ZM141.866 60.669V65.076C141.866 65.5093 141.948 65.8083 142.113 65.973C142.277 66.1377 142.568 66.22 142.984 66.22H143.816V67H142.841C142.199 67 141.723 66.8527 141.411 66.558C141.099 66.2547 140.943 65.7607 140.943 65.076V60.669H139.955V59.902H140.943V58.121H141.866V59.902H143.816V60.669H141.866ZM146.226 61.163C146.426 60.721 146.729 60.3787 147.136 60.136C147.552 59.8933 148.059 59.772 148.657 59.772V60.721H148.41C147.752 60.721 147.223 60.8987 146.824 61.254C146.426 61.6093 146.226 62.203 146.226 63.035V67H145.316V59.902H146.226V61.163ZM153.133 67.104C152.466 67.104 151.864 66.9567 151.326 66.662C150.798 66.3587 150.377 65.934 150.065 65.388C149.762 64.8333 149.61 64.1877 149.61 63.451C149.61 62.7143 149.766 62.073 150.078 61.527C150.39 60.9723 150.815 60.5477 151.352 60.253C151.89 59.9497 152.492 59.798 153.159 59.798C153.827 59.798 154.429 59.9497 154.966 60.253C155.512 60.5477 155.937 60.9723 156.24 61.527C156.552 62.073 156.708 62.7143 156.708 63.451C156.708 64.179 156.552 64.8203 156.24 65.375C155.928 65.9297 155.499 66.3587 154.953 66.662C154.407 66.9567 153.801 67.104 153.133 67.104ZM153.133 66.311C153.601 66.311 154.035 66.207 154.433 65.999C154.832 65.7823 155.153 65.4617 155.395 65.037C155.647 64.6037 155.772 64.075 155.772 63.451C155.772 62.827 155.651 62.3027 155.408 61.878C155.166 61.4447 154.845 61.124 154.446 60.916C154.048 60.6993 153.614 60.591 153.146 60.591C152.678 60.591 152.245 60.6993 151.846 60.916C151.448 61.124 151.127 61.4447 150.884 61.878C150.65 62.3027 150.533 62.827 150.533 63.451C150.533 64.075 150.65 64.6037 150.884 65.037C151.127 65.4617 151.443 65.7823 151.833 65.999C152.232 66.207 152.665 66.311 153.133 66.311ZM160.811 67.104C159.996 67.104 159.329 66.9177 158.809 66.545C158.298 66.1637 158.012 65.648 157.951 64.998H158.887C158.93 65.3967 159.117 65.7217 159.446 65.973C159.784 66.2157 160.235 66.337 160.798 66.337C161.292 66.337 161.678 66.22 161.955 65.986C162.241 65.752 162.384 65.4617 162.384 65.115C162.384 64.8723 162.306 64.673 162.15 64.517C161.994 64.361 161.795 64.2397 161.552 64.153C161.318 64.0577 160.997 63.958 160.59 63.854C160.061 63.7153 159.632 63.5767 159.303 63.438C158.974 63.2993 158.692 63.0957 158.458 62.827C158.233 62.5497 158.12 62.1813 158.12 61.722C158.12 61.3753 158.224 61.0547 158.432 60.76C158.64 60.4653 158.935 60.2313 159.316 60.058C159.697 59.8847 160.131 59.798 160.616 59.798C161.379 59.798 161.994 59.993 162.462 60.383C162.93 60.7643 163.181 61.293 163.216 61.969H162.306C162.28 61.553 162.115 61.2193 161.812 60.968C161.517 60.708 161.11 60.578 160.59 60.578C160.131 60.578 159.758 60.6863 159.472 60.903C159.186 61.1197 159.043 61.3883 159.043 61.709C159.043 61.9863 159.125 62.216 159.29 62.398C159.463 62.5713 159.676 62.71 159.927 62.814C160.178 62.9093 160.516 63.0177 160.941 63.139C161.452 63.2777 161.86 63.412 162.163 63.542C162.466 63.672 162.726 63.8627 162.943 64.114C163.16 64.3653 163.272 64.699 163.281 65.115C163.281 65.4963 163.177 65.8387 162.969 66.142C162.761 66.4367 162.471 66.6707 162.098 66.844C161.725 67.0173 161.296 67.104 160.811 67.104ZM165.15 67.065C164.959 67.065 164.799 67 164.669 66.87C164.548 66.74 164.487 66.5797 164.487 66.389C164.487 66.1983 164.548 66.0423 164.669 65.921C164.799 65.791 164.959 65.726 165.15 65.726C165.332 65.726 165.484 65.791 165.605 65.921C165.735 66.0423 165.8 66.1983 165.8 66.389C165.8 66.5797 165.735 66.74 165.605 66.87C165.484 67 165.332 67.065 165.15 67.065Z" fill="black"/>
</svg>
