<svg width="400" height="81" viewBox="0 0 400 81" fill="none" xmlns="http://www.w3.org/2000/svg">
<path d="M55.4136 36.8793H11.5864V70.853H55.4136V36.8793Z" stroke="#E9A5B2" stroke-width="2" stroke-linecap="round" stroke-linejoin="round"/>
<path d="M11.5864 37.9767V35.7588L17.5124 29.336C17.651 29.1859 17.8474 29.0934 18.0553 29.0934H49.0024C49.2103 29.0934 49.4067 29.1859 49.5569 29.336L55.4252 36.0476V39.9636" stroke="#E9A5B2" stroke-width="2" stroke-linecap="round" stroke-linejoin="round"/>
<path d="M26.5695 67.2857H23.7162C23.3234 67.2857 23 66.9622 23 66.5695V63.7162C23 63.3234 23.3234 63 23.7162 63H26.5695C26.9622 63 27.2857 63.3234 27.2857 63.7162V66.5695C27.2857 66.9622 26.9622 67.2857 26.5695 67.2857Z" fill="#E9A5B2"/>
<path d="M19.3333 67H16.6667C16.3056 67 16 66.7083 16 66.3333V63.6667C16 63.3056 16.2917 63 16.6667 63H19.3333C19.6944 63 20 63.2917 20 63.6667V66.3333C20 66.6944 19.7083 67 19.3333 67Z" stroke="#E9A5B2" stroke-width="2" stroke-miterlimit="10"/>
<path d="M32.3564 29.4747L28.9833 36.6367C28.914 36.7985 28.8678 36.9717 28.8678 37.145V41.8697C28.8678 42.5281 29.3991 43.0595 30.0576 43.0595H36.954C37.6124 43.0595 38.1438 42.5281 38.1438 41.8697V37.1681C38.1438 36.9717 38.0976 36.7869 38.0052 36.6252L34.274 29.4862" stroke="#E9A5B2" stroke-width="2" stroke-linecap="round" stroke-linejoin="round"/>
<path d="M37.7048 64H55.044" stroke="#E9A5B2" stroke-width="2" stroke-linecap="round" stroke-linejoin="round"/>
<path d="M37.7048 67.0957H46.3802" stroke="#E9A5B2" stroke-width="2" stroke-linecap="round" stroke-linejoin="round"/>
<path d="M55.4136 22.0815H11.5864" stroke="#E9A5B2" stroke-width="2" stroke-linecap="round" stroke-linejoin="round"/>
<path d="M53.2419 19.829L55.4136 22.07L53.2419 24.3342" stroke="#E9A5B2" stroke-width="2" stroke-linecap="round" stroke-linejoin="round"/>
<path d="M11.5864 14.3997H55.4136" stroke="#E9A5B2" stroke-width="2" stroke-linecap="round" stroke-linejoin="round"/>
<path d="M13.7581 16.6523L11.5864 14.3997L13.7581 12.1471" stroke="#E9A5B2" stroke-width="2" stroke-linecap="round" stroke-linejoin="round"/>
<path d="M79.8889 20.416C79.8889 19.328 80.1395 18.352 80.6409 17.488C81.1529 16.624 81.8409 15.952 82.7049 15.472C83.5795 14.9813 84.5342 14.736 85.5689 14.736C86.7529 14.736 87.8035 15.0293 88.7209 15.616C89.6489 16.192 90.3209 17.0133 90.7369 18.08H88.5449C88.2569 17.4933 87.8569 17.056 87.3449 16.768C86.8329 16.48 86.2409 16.336 85.5689 16.336C84.8329 16.336 84.1769 16.5013 83.6009 16.832C83.0249 17.1627 82.5715 17.6373 82.2409 18.256C81.9209 18.8747 81.7609 19.5947 81.7609 20.416C81.7609 21.2373 81.9209 21.9573 82.2409 22.576C82.5715 23.1947 83.0249 23.6747 83.6009 24.016C84.1769 24.3467 84.8329 24.512 85.5689 24.512C86.2409 24.512 86.8329 24.368 87.3449 24.08C87.8569 23.792 88.2569 23.3547 88.5449 22.768H90.7369C90.3209 23.8347 89.6489 24.656 88.7209 25.232C87.8035 25.808 86.7529 26.096 85.5689 26.096C84.5235 26.096 83.5689 25.856 82.7049 25.376C81.8409 24.8853 81.1529 24.208 80.6409 23.344C80.1395 22.48 79.8889 21.504 79.8889 20.416ZM99.5759 23.728H94.9199L94.1199 26H92.2159L96.1999 14.864H98.3119L102.296 26H100.376L99.5759 23.728ZM99.0639 22.24L97.2559 17.072L95.4319 22.24H99.0639ZM115.74 14.88V26H113.916V18.384L110.524 26H109.26L105.852 18.384V26H104.028V14.88H105.996L109.9 23.6L113.788 14.88H115.74ZM124.09 20.288C124.687 20.3947 125.194 20.7093 125.61 21.232C126.026 21.7547 126.234 22.3467 126.234 23.008C126.234 23.5733 126.084 24.0853 125.786 24.544C125.498 24.992 125.076 25.3493 124.522 25.616C123.967 25.872 123.322 26 122.586 26H118.138V14.88H122.378C123.135 14.88 123.786 15.008 124.33 15.264C124.874 15.52 125.284 15.8667 125.562 16.304C125.839 16.7307 125.977 17.2107 125.977 17.744C125.977 18.384 125.807 18.9173 125.466 19.344C125.124 19.7707 124.666 20.0853 124.09 20.288ZM119.962 19.552H122.218C122.815 19.552 123.279 19.4187 123.61 19.152C123.951 18.8747 124.122 18.48 124.122 17.968C124.122 17.4667 123.951 17.0773 123.61 16.8C123.279 16.512 122.815 16.368 122.218 16.368H119.962V19.552ZM122.426 24.512C123.044 24.512 123.53 24.3627 123.882 24.064C124.234 23.7653 124.41 23.3493 124.41 22.816C124.41 22.272 124.223 21.84 123.85 21.52C123.476 21.2 122.98 21.04 122.362 21.04H119.962V24.512H122.426ZM130.04 14.88V26H128.216V14.88H130.04ZM137.506 26.112C136.472 26.112 135.517 25.872 134.642 25.392C133.778 24.9013 133.09 24.224 132.578 23.36C132.077 22.4853 131.826 21.504 131.826 20.416C131.826 19.328 132.077 18.352 132.578 17.488C133.09 16.624 133.778 15.952 134.642 15.472C135.517 14.9813 136.472 14.736 137.506 14.736C138.552 14.736 139.506 14.9813 140.37 15.472C141.245 15.952 141.933 16.624 142.434 17.488C142.936 18.352 143.186 19.328 143.186 20.416C143.186 21.504 142.936 22.4853 142.434 23.36C141.933 24.224 141.245 24.9013 140.37 25.392C139.506 25.872 138.552 26.112 137.506 26.112ZM137.506 24.528C138.242 24.528 138.898 24.3627 139.474 24.032C140.05 23.6907 140.498 23.2107 140.818 22.592C141.149 21.9627 141.314 21.2373 141.314 20.416C141.314 19.5947 141.149 18.8747 140.818 18.256C140.498 17.6373 140.05 17.1627 139.474 16.832C138.898 16.5013 138.242 16.336 137.506 16.336C136.77 16.336 136.114 16.5013 135.538 16.832C134.962 17.1627 134.509 17.6373 134.178 18.256C133.858 18.8747 133.698 19.5947 133.698 20.416C133.698 21.2373 133.858 21.9627 134.178 22.592C134.509 23.2107 134.962 23.6907 135.538 24.032C136.114 24.3627 136.77 24.528 137.506 24.528ZM148.645 26.112C147.899 26.112 147.227 25.984 146.629 25.728C146.032 25.4613 145.563 25.088 145.221 24.608C144.88 24.128 144.709 23.568 144.709 22.928H146.661C146.704 23.408 146.891 23.8027 147.221 24.112C147.563 24.4213 148.037 24.576 148.645 24.576C149.275 24.576 149.765 24.4267 150.117 24.128C150.469 23.8187 150.645 23.424 150.645 22.944C150.645 22.5707 150.533 22.2667 150.309 22.032C150.096 21.7973 149.824 21.616 149.493 21.488C149.173 21.36 148.725 21.2213 148.149 21.072C147.424 20.88 146.832 20.688 146.373 20.496C145.925 20.2933 145.541 19.984 145.221 19.568C144.901 19.152 144.741 18.5973 144.741 17.904C144.741 17.264 144.901 16.704 145.221 16.224C145.541 15.744 145.989 15.376 146.565 15.12C147.141 14.864 147.808 14.736 148.565 14.736C149.643 14.736 150.523 15.008 151.205 15.552C151.899 16.0853 152.283 16.8213 152.357 17.76H150.341C150.309 17.3547 150.117 17.008 149.765 16.72C149.413 16.432 148.949 16.288 148.373 16.288C147.851 16.288 147.424 16.4213 147.093 16.688C146.763 16.9547 146.597 17.3387 146.597 17.84C146.597 18.1813 146.699 18.464 146.901 18.688C147.115 18.9013 147.381 19.072 147.701 19.2C148.021 19.328 148.459 19.4667 149.013 19.616C149.749 19.8187 150.347 20.0213 150.805 20.224C151.275 20.4267 151.669 20.7413 151.989 21.168C152.32 21.584 152.485 22.144 152.485 22.848C152.485 23.4133 152.331 23.9467 152.021 24.448C151.723 24.9493 151.28 25.3547 150.693 25.664C150.117 25.9627 149.435 26.112 148.645 26.112ZM167.034 14.88L163.354 21.968V26H161.53V21.968L157.834 14.88H159.866L162.442 20.336L165.018 14.88H167.034ZM176.27 14.88C177.454 14.88 178.488 15.1093 179.374 15.568C180.27 16.016 180.958 16.6667 181.438 17.52C181.928 18.3627 182.174 19.3493 182.174 20.48C182.174 21.6107 181.928 22.592 181.438 23.424C180.958 24.256 180.27 24.896 179.374 25.344C178.488 25.7813 177.454 26 176.27 26H172.638V14.88H176.27ZM176.27 24.512C177.571 24.512 178.568 24.16 179.262 23.456C179.955 22.752 180.302 21.76 180.302 20.48C180.302 19.1893 179.955 18.1813 179.262 17.456C178.568 16.7307 177.571 16.368 176.27 16.368H174.462V24.512H176.27ZM185.805 16.352V19.616H189.645V21.104H185.805V24.512H190.125V26H183.981V14.864H190.125V16.352H185.805ZM201.956 14.88L197.78 26H195.668L191.476 14.88H193.428L196.724 24.128L200.036 14.88H201.956ZM208.553 26.112C207.519 26.112 206.564 25.872 205.689 25.392C204.825 24.9013 204.137 24.224 203.625 23.36C203.124 22.4853 202.873 21.504 202.873 20.416C202.873 19.328 203.124 18.352 203.625 17.488C204.137 16.624 204.825 15.952 205.689 15.472C206.564 14.9813 207.519 14.736 208.553 14.736C209.599 14.736 210.553 14.9813 211.417 15.472C212.292 15.952 212.98 16.624 213.481 17.488C213.983 18.352 214.233 19.328 214.233 20.416C214.233 21.504 213.983 22.4853 213.481 23.36C212.98 24.224 212.292 24.9013 211.417 25.392C210.553 25.872 209.599 26.112 208.553 26.112ZM208.553 24.528C209.289 24.528 209.945 24.3627 210.521 24.032C211.097 23.6907 211.545 23.2107 211.865 22.592C212.196 21.9627 212.361 21.2373 212.361 20.416C212.361 19.5947 212.196 18.8747 211.865 18.256C211.545 17.6373 211.097 17.1627 210.521 16.832C209.945 16.5013 209.289 16.336 208.553 16.336C207.817 16.336 207.161 16.5013 206.585 16.832C206.009 17.1627 205.556 17.6373 205.225 18.256C204.905 18.8747 204.745 19.5947 204.745 20.416C204.745 21.2373 204.905 21.9627 205.225 22.592C205.556 23.2107 206.009 23.6907 206.585 24.032C207.161 24.3627 207.817 24.528 208.553 24.528ZM217.852 24.528H221.612V26H216.028V14.88H217.852V24.528ZM224.946 14.88V21.968C224.946 22.8107 225.164 23.4453 225.602 23.872C226.05 24.2987 226.668 24.512 227.458 24.512C228.258 24.512 228.876 24.2987 229.314 23.872C229.762 23.4453 229.986 22.8107 229.986 21.968V14.88H231.81V21.936C231.81 22.8427 231.612 23.6107 231.218 24.24C230.823 24.8693 230.295 25.3387 229.634 25.648C228.972 25.9573 228.242 26.112 227.442 26.112C226.642 26.112 225.911 25.9573 225.25 25.648C224.599 25.3387 224.082 24.8693 223.698 24.24C223.314 23.6107 223.122 22.8427 223.122 21.936V14.88H224.946ZM233.576 20.416C233.576 19.328 233.827 18.352 234.328 17.488C234.84 16.624 235.528 15.952 236.392 15.472C237.267 14.9813 238.222 14.736 239.256 14.736C240.44 14.736 241.491 15.0293 242.408 15.616C243.336 16.192 244.008 17.0133 244.424 18.08H242.232C241.944 17.4933 241.544 17.056 241.032 16.768C240.52 16.48 239.928 16.336 239.256 16.336C238.52 16.336 237.864 16.5013 237.288 16.832C236.712 17.1627 236.259 17.6373 235.928 18.256C235.608 18.8747 235.448 19.5947 235.448 20.416C235.448 21.2373 235.608 21.9573 235.928 22.576C236.259 23.1947 236.712 23.6747 237.288 24.016C237.864 24.3467 238.52 24.512 239.256 24.512C239.928 24.512 240.52 24.368 241.032 24.08C241.544 23.792 241.944 23.3547 242.232 22.768H244.424C244.008 23.8347 243.336 24.656 242.408 25.232C241.491 25.808 240.44 26.096 239.256 26.096C238.211 26.096 237.256 25.856 236.392 25.376C235.528 24.8853 234.84 24.208 234.328 23.344C233.827 22.48 233.576 21.504 233.576 20.416ZM248.383 14.88V26H246.559V14.88H248.383ZM255.85 26.112C254.815 26.112 253.861 25.872 252.986 25.392C252.122 24.9013 251.434 24.224 250.922 23.36C250.421 22.4853 250.17 21.504 250.17 20.416C250.17 19.328 250.421 18.352 250.922 17.488C251.434 16.624 252.122 15.952 252.986 15.472C253.861 14.9813 254.815 14.736 255.85 14.736C256.895 14.736 257.85 14.9813 258.714 15.472C259.589 15.952 260.277 16.624 260.778 17.488C261.279 18.352 261.53 19.328 261.53 20.416C261.53 21.504 261.279 22.4853 260.778 23.36C260.277 24.224 259.589 24.9013 258.714 25.392C257.85 25.872 256.895 26.112 255.85 26.112ZM255.85 24.528C256.586 24.528 257.242 24.3627 257.818 24.032C258.394 23.6907 258.842 23.2107 259.162 22.592C259.493 21.9627 259.658 21.2373 259.658 20.416C259.658 19.5947 259.493 18.8747 259.162 18.256C258.842 17.6373 258.394 17.1627 257.818 16.832C257.242 16.5013 256.586 16.336 255.85 16.336C255.114 16.336 254.458 16.5013 253.882 16.832C253.306 17.1627 252.853 17.6373 252.522 18.256C252.202 18.8747 252.042 19.5947 252.042 20.416C252.042 21.2373 252.202 21.9627 252.522 22.592C252.853 23.2107 253.306 23.6907 253.882 24.032C254.458 24.3627 255.114 24.528 255.85 24.528ZM272.461 26H270.637L265.149 17.696V26H263.325V14.864H265.149L270.637 23.152V14.864H272.461V26ZM276.68 16.352V19.616H280.52V21.104H276.68V24.512H281V26H274.856V14.864H281V16.352H276.68ZM286.911 26.112C286.164 26.112 285.492 25.984 284.895 25.728C284.298 25.4613 283.828 25.088 283.487 24.608C283.146 24.128 282.975 23.568 282.975 22.928H284.927C284.97 23.408 285.156 23.8027 285.487 24.112C285.828 24.4213 286.303 24.576 286.911 24.576C287.54 24.576 288.031 24.4267 288.383 24.128C288.735 23.8187 288.911 23.424 288.911 22.944C288.911 22.5707 288.799 22.2667 288.575 22.032C288.362 21.7973 288.09 21.616 287.759 21.488C287.439 21.36 286.991 21.2213 286.415 21.072C285.69 20.88 285.098 20.688 284.639 20.496C284.191 20.2933 283.807 19.984 283.487 19.568C283.167 19.152 283.007 18.5973 283.007 17.904C283.007 17.264 283.167 16.704 283.487 16.224C283.807 15.744 284.255 15.376 284.831 15.12C285.407 14.864 286.074 14.736 286.831 14.736C287.908 14.736 288.788 15.008 289.471 15.552C290.164 16.0853 290.548 16.8213 290.623 17.76H288.607C288.575 17.3547 288.383 17.008 288.031 16.72C287.679 16.432 287.215 16.288 286.639 16.288C286.116 16.288 285.69 16.4213 285.359 16.688C285.028 16.9547 284.863 17.3387 284.863 17.84C284.863 18.1813 284.964 18.464 285.167 18.688C285.38 18.9013 285.647 19.072 285.967 19.2C286.287 19.328 286.724 19.4667 287.279 19.616C288.015 19.8187 288.612 20.0213 289.071 20.224C289.54 20.4267 289.935 20.7413 290.255 21.168C290.586 21.584 290.751 22.144 290.751 22.848C290.751 23.4133 290.596 23.9467 290.287 24.448C289.988 24.9493 289.546 25.3547 288.959 25.664C288.383 25.9627 287.7 26.112 286.911 26.112Z" fill="#E9A5B2"/>
<path d="M87.19 40.565C86.93 39.967 86.5313 39.499 85.994 39.161C85.4653 38.8143 84.8413 38.641 84.122 38.641C83.446 38.641 82.8393 38.797 82.302 39.109C81.7647 39.421 81.34 39.8673 81.028 40.448C80.716 41.02 80.56 41.6873 80.56 42.45C80.56 43.2127 80.716 43.8843 81.028 44.465C81.34 45.0457 81.7647 45.492 82.302 45.804C82.8393 46.116 83.446 46.272 84.122 46.272C84.7547 46.272 85.3223 46.1377 85.825 45.869C86.3363 45.5917 86.7437 45.2017 87.047 44.699C87.359 44.1877 87.5367 43.594 87.58 42.918H83.758V42.177H88.542V42.84C88.4987 43.6373 88.282 44.361 87.892 45.011C87.502 45.6523 86.9777 46.1593 86.319 46.532C85.669 46.9047 84.9367 47.091 84.122 47.091C83.2813 47.091 82.5187 46.896 81.834 46.506C81.1493 46.1073 80.6077 45.557 80.209 44.855C79.819 44.1443 79.624 43.3427 79.624 42.45C79.624 41.5573 79.819 40.76 80.209 40.058C80.6077 39.3473 81.1493 38.797 81.834 38.407C82.5187 38.0083 83.2813 37.809 84.122 37.809C85.0927 37.809 85.942 38.0517 86.67 38.537C87.398 39.0223 87.9267 39.6983 88.256 40.565H87.19ZM96.6309 43.087C96.6309 43.399 96.6223 43.6373 96.6049 43.802H90.7159C90.7419 44.3393 90.8719 44.7987 91.1059 45.18C91.3399 45.5613 91.6476 45.8517 92.0289 46.051C92.4103 46.2417 92.8263 46.337 93.2769 46.337C93.8663 46.337 94.3603 46.194 94.7589 45.908C95.1663 45.622 95.4349 45.2363 95.5649 44.751H96.5269C96.3536 45.4443 95.9809 46.012 95.4089 46.454C94.8456 46.8873 94.1349 47.104 93.2769 47.104C92.6096 47.104 92.0116 46.9567 91.4829 46.662C90.9543 46.3587 90.5383 45.934 90.2349 45.388C89.9403 44.8333 89.7929 44.1877 89.7929 43.451C89.7929 42.7143 89.9403 42.0687 90.2349 41.514C90.5296 40.9593 90.9413 40.5347 91.4699 40.24C91.9986 39.9453 92.6009 39.798 93.2769 39.798C93.9529 39.798 94.5423 39.9453 95.0449 40.24C95.5563 40.5347 95.9463 40.9333 96.2149 41.436C96.4923 41.93 96.6309 42.4803 96.6309 43.087ZM95.7079 43.061C95.7166 42.5323 95.6083 42.0817 95.3829 41.709C95.1663 41.3363 94.8673 41.0547 94.4859 40.864C94.1046 40.6733 93.6886 40.578 93.2379 40.578C92.5619 40.578 91.9856 40.7947 91.5089 41.228C91.0323 41.6613 90.7679 42.2723 90.7159 43.061H95.7079ZM100.74 47.104C99.9252 47.104 99.2579 46.9177 98.7379 46.545C98.2265 46.1637 97.9405 45.648 97.8799 44.998H98.8159C98.8592 45.3967 99.0455 45.7217 99.3749 45.973C99.7129 46.2157 100.164 46.337 100.727 46.337C101.221 46.337 101.607 46.22 101.884 45.986C102.17 45.752 102.313 45.4617 102.313 45.115C102.313 44.8723 102.235 44.673 102.079 44.517C101.923 44.361 101.724 44.2397 101.481 44.153C101.247 44.0577 100.926 43.958 100.519 43.854C99.9902 43.7153 99.5612 43.5767 99.2319 43.438C98.9025 43.2993 98.6209 43.0957 98.3869 42.827C98.1615 42.5497 98.0489 42.1813 98.0489 41.722C98.0489 41.3753 98.1529 41.0547 98.3609 40.76C98.5689 40.4653 98.8635 40.2313 99.2449 40.058C99.6262 39.8847 100.06 39.798 100.545 39.798C101.308 39.798 101.923 39.993 102.391 40.383C102.859 40.7643 103.11 41.293 103.145 41.969H102.235C102.209 41.553 102.044 41.2193 101.741 40.968C101.446 40.708 101.039 40.578 100.519 40.578C100.06 40.578 99.6869 40.6863 99.4009 40.903C99.1149 41.1197 98.9719 41.3883 98.9719 41.709C98.9719 41.9863 99.0542 42.216 99.2189 42.398C99.3922 42.5713 99.6045 42.71 99.8559 42.814C100.107 42.9093 100.445 43.0177 100.87 43.139C101.381 43.2777 101.789 43.412 102.092 43.542C102.395 43.672 102.655 43.8627 102.872 44.114C103.089 44.3653 103.201 44.699 103.21 45.115C103.21 45.4963 103.106 45.8387 102.898 46.142C102.69 46.4367 102.4 46.6707 102.027 46.844C101.654 47.0173 101.225 47.104 100.74 47.104ZM106.106 40.669V45.076C106.106 45.5093 106.188 45.8083 106.353 45.973C106.517 46.1377 106.808 46.22 107.224 46.22H108.056V47H107.081C106.439 47 105.963 46.8527 105.651 46.558C105.339 46.2547 105.183 45.7607 105.183 45.076V40.669H104.195V39.902H105.183V38.121H106.106V39.902H108.056V40.669H106.106ZM110.012 38.563C109.83 38.563 109.674 38.498 109.544 38.368C109.414 38.238 109.349 38.0777 109.349 37.887C109.349 37.6963 109.414 37.5403 109.544 37.419C109.674 37.289 109.83 37.224 110.012 37.224C110.194 37.224 110.35 37.289 110.48 37.419C110.61 37.5403 110.675 37.6963 110.675 37.887C110.675 38.0777 110.61 38.238 110.48 38.368C110.35 38.498 110.194 38.563 110.012 38.563ZM110.467 39.902V47H109.557V39.902H110.467ZM115.634 47.104C114.967 47.104 114.365 46.9567 113.827 46.662C113.299 46.3587 112.878 45.934 112.566 45.388C112.263 44.8333 112.111 44.1877 112.111 43.451C112.111 42.7143 112.267 42.073 112.579 41.527C112.891 40.9723 113.316 40.5477 113.853 40.253C114.391 39.9497 114.993 39.798 115.66 39.798C116.328 39.798 116.93 39.9497 117.467 40.253C118.013 40.5477 118.438 40.9723 118.741 41.527C119.053 42.073 119.209 42.7143 119.209 43.451C119.209 44.179 119.053 44.8203 118.741 45.375C118.429 45.9297 118 46.3587 117.454 46.662C116.908 46.9567 116.302 47.104 115.634 47.104ZM115.634 46.311C116.102 46.311 116.536 46.207 116.934 45.999C117.333 45.7823 117.654 45.4617 117.896 45.037C118.148 44.6037 118.273 44.075 118.273 43.451C118.273 42.827 118.152 42.3027 117.909 41.878C117.667 41.4447 117.346 41.124 116.947 40.916C116.549 40.6993 116.115 40.591 115.647 40.591C115.179 40.591 114.746 40.6993 114.347 40.916C113.949 41.124 113.628 41.4447 113.385 41.878C113.151 42.3027 113.034 42.827 113.034 43.451C113.034 44.075 113.151 44.6037 113.385 45.037C113.628 45.4617 113.944 45.7823 114.334 45.999C114.733 46.207 115.166 46.311 115.634 46.311ZM124.196 39.772C125.045 39.772 125.739 40.0363 126.276 40.565C126.813 41.085 127.082 41.8433 127.082 42.84V47H126.185V42.944C126.185 42.1727 125.99 41.5833 125.6 41.176C125.219 40.7687 124.694 40.565 124.027 40.565C123.342 40.565 122.796 40.7817 122.389 41.215C121.982 41.6483 121.778 42.2853 121.778 43.126V47H120.868V39.902H121.778V41.111C122.003 40.6777 122.328 40.3483 122.753 40.123C123.178 39.889 123.659 39.772 124.196 39.772ZM128.679 43.438C128.679 42.71 128.822 42.073 129.108 41.527C129.402 40.9723 129.805 40.5477 130.317 40.253C130.837 39.9497 131.422 39.798 132.072 39.798C132.748 39.798 133.328 39.954 133.814 40.266C134.308 40.578 134.663 40.9767 134.88 41.462V39.902H135.79V47H134.88V45.427C134.654 45.9123 134.295 46.3153 133.801 46.636C133.315 46.948 132.735 47.104 132.059 47.104C131.417 47.104 130.837 46.9523 130.317 46.649C129.805 46.3457 129.402 45.9167 129.108 45.362C128.822 44.8073 128.679 44.166 128.679 43.438ZM134.88 43.451C134.88 42.879 134.763 42.3763 134.529 41.943C134.295 41.5097 133.974 41.176 133.567 40.942C133.168 40.708 132.726 40.591 132.241 40.591C131.738 40.591 131.287 40.7037 130.889 40.929C130.49 41.1543 130.174 41.4837 129.94 41.917C129.714 42.3417 129.602 42.8487 129.602 43.438C129.602 44.0187 129.714 44.53 129.94 44.972C130.174 45.4053 130.49 45.739 130.889 45.973C131.287 46.1983 131.738 46.311 132.241 46.311C132.726 46.311 133.168 46.194 133.567 45.96C133.974 45.726 134.295 45.3923 134.529 44.959C134.763 44.5257 134.88 44.023 134.88 43.451ZM138.777 37.38V47H137.867V37.38H138.777ZM143.945 47.104C143.278 47.104 142.675 46.9567 142.138 46.662C141.609 46.3587 141.189 45.934 140.877 45.388C140.574 44.8333 140.422 44.1877 140.422 43.451C140.422 42.7143 140.578 42.073 140.89 41.527C141.202 40.9723 141.627 40.5477 142.164 40.253C142.701 39.9497 143.304 39.798 143.971 39.798C144.638 39.798 145.241 39.9497 145.778 40.253C146.324 40.5477 146.749 40.9723 147.052 41.527C147.364 42.073 147.52 42.7143 147.52 43.451C147.52 44.179 147.364 44.8203 147.052 45.375C146.74 45.9297 146.311 46.3587 145.765 46.662C145.219 46.9567 144.612 47.104 143.945 47.104ZM143.945 46.311C144.413 46.311 144.846 46.207 145.245 45.999C145.644 45.7823 145.964 45.4617 146.207 45.037C146.458 44.6037 146.584 44.075 146.584 43.451C146.584 42.827 146.463 42.3027 146.22 41.878C145.977 41.4447 145.657 41.124 145.258 40.916C144.859 40.6993 144.426 40.591 143.958 40.591C143.49 40.591 143.057 40.6993 142.658 40.916C142.259 41.124 141.939 41.4447 141.696 41.878C141.462 42.3027 141.345 42.827 141.345 43.451C141.345 44.075 141.462 44.6037 141.696 45.037C141.939 45.4617 142.255 45.7823 142.645 45.999C143.044 46.207 143.477 46.311 143.945 46.311ZM151.623 47.104C150.808 47.104 150.141 46.9177 149.621 46.545C149.109 46.1637 148.823 45.648 148.763 44.998H149.699C149.742 45.3967 149.928 45.7217 150.258 45.973C150.596 46.2157 151.046 46.337 151.61 46.337C152.104 46.337 152.489 46.22 152.767 45.986C153.053 45.752 153.196 45.4617 153.196 45.115C153.196 44.8723 153.118 44.673 152.962 44.517C152.806 44.361 152.606 44.2397 152.364 44.153C152.13 44.0577 151.809 43.958 151.402 43.854C150.873 43.7153 150.444 43.5767 150.115 43.438C149.785 43.2993 149.504 43.0957 149.27 42.827C149.044 42.5497 148.932 42.1813 148.932 41.722C148.932 41.3753 149.036 41.0547 149.244 40.76C149.452 40.4653 149.746 40.2313 150.128 40.058C150.509 39.8847 150.942 39.798 151.428 39.798C152.19 39.798 152.806 39.993 153.274 40.383C153.742 40.7643 153.993 41.293 154.028 41.969H153.118C153.092 41.553 152.927 41.2193 152.624 40.968C152.329 40.708 151.922 40.578 151.402 40.578C150.942 40.578 150.57 40.6863 150.284 40.903C149.998 41.1197 149.855 41.3883 149.855 41.709C149.855 41.9863 149.937 42.216 150.102 42.398C150.275 42.5713 150.487 42.71 150.739 42.814C150.99 42.9093 151.328 43.0177 151.753 43.139C152.264 43.2777 152.671 43.412 152.975 43.542C153.278 43.672 153.538 43.8627 153.755 44.114C153.971 44.3653 154.084 44.699 154.093 45.115C154.093 45.4963 153.989 45.8387 153.781 46.142C153.573 46.4367 153.282 46.6707 152.91 46.844C152.537 47.0173 152.108 47.104 151.623 47.104ZM165.795 43.087C165.795 43.399 165.786 43.6373 165.769 43.802H159.88C159.906 44.3393 160.036 44.7987 160.27 45.18C160.504 45.5613 160.812 45.8517 161.193 46.051C161.574 46.2417 161.99 46.337 162.441 46.337C163.03 46.337 163.524 46.194 163.923 45.908C164.33 45.622 164.599 45.2363 164.729 44.751H165.691C165.518 45.4443 165.145 46.012 164.573 46.454C164.01 46.8873 163.299 47.104 162.441 47.104C161.774 47.104 161.176 46.9567 160.647 46.662C160.118 46.3587 159.702 45.934 159.399 45.388C159.104 44.8333 158.957 44.1877 158.957 43.451C158.957 42.7143 159.104 42.0687 159.399 41.514C159.694 40.9593 160.105 40.5347 160.634 40.24C161.163 39.9453 161.765 39.798 162.441 39.798C163.117 39.798 163.706 39.9453 164.209 40.24C164.72 40.5347 165.11 40.9333 165.379 41.436C165.656 41.93 165.795 42.4803 165.795 43.087ZM164.872 43.061C164.881 42.5323 164.772 42.0817 164.547 41.709C164.33 41.3363 164.031 41.0547 163.65 40.864C163.269 40.6733 162.853 40.578 162.402 40.578C161.726 40.578 161.15 40.7947 160.673 41.228C160.196 41.6613 159.932 42.2723 159.88 43.061H164.872ZM170.788 39.772C171.637 39.772 172.331 40.0363 172.868 40.565C173.405 41.085 173.674 41.8433 173.674 42.84V47H172.777V42.944C172.777 42.1727 172.582 41.5833 172.192 41.176C171.811 40.7687 171.286 40.565 170.619 40.565C169.934 40.565 169.388 40.7817 168.981 41.215C168.574 41.6483 168.37 42.2853 168.37 43.126V47H167.46V39.902H168.37V41.111C168.595 40.6777 168.92 40.3483 169.345 40.123C169.77 39.889 170.251 39.772 170.788 39.772ZM178.208 46.116L180.6 39.902H181.562L178.715 47H177.688L174.841 39.902H175.816L178.208 46.116ZM183.251 38.563C183.069 38.563 182.913 38.498 182.783 38.368C182.653 38.238 182.588 38.0777 182.588 37.887C182.588 37.6963 182.653 37.5403 182.783 37.419C182.913 37.289 183.069 37.224 183.251 37.224C183.433 37.224 183.589 37.289 183.719 37.419C183.849 37.5403 183.914 37.6963 183.914 37.887C183.914 38.0777 183.849 38.238 183.719 38.368C183.589 38.498 183.433 38.563 183.251 38.563ZM183.706 39.902V47H182.796V39.902H183.706ZM185.351 43.438C185.351 42.71 185.494 42.073 185.78 41.527C186.074 40.9723 186.477 40.5477 186.989 40.253C187.509 39.9497 188.094 39.798 188.744 39.798C189.42 39.798 190 39.954 190.486 40.266C190.98 40.578 191.335 40.9767 191.552 41.462V39.902H192.462V47H191.552V45.427C191.326 45.9123 190.967 46.3153 190.473 46.636C189.987 46.948 189.407 47.104 188.731 47.104C188.089 47.104 187.509 46.9523 186.989 46.649C186.477 46.3457 186.074 45.9167 185.78 45.362C185.494 44.8073 185.351 44.166 185.351 43.438ZM191.552 43.451C191.552 42.879 191.435 42.3763 191.201 41.943C190.967 41.5097 190.646 41.176 190.239 40.942C189.84 40.708 189.398 40.591 188.913 40.591C188.41 40.591 187.959 40.7037 187.561 40.929C187.162 41.1543 186.846 41.4837 186.612 41.917C186.386 42.3417 186.274 42.8487 186.274 43.438C186.274 44.0187 186.386 44.53 186.612 44.972C186.846 45.4053 187.162 45.739 187.561 45.973C187.959 46.1983 188.41 46.311 188.913 46.311C189.398 46.311 189.84 46.194 190.239 45.96C190.646 45.726 190.967 45.3923 191.201 44.959C191.435 44.5257 191.552 44.023 191.552 43.451ZM197.867 39.772C198.716 39.772 199.41 40.0363 199.947 40.565C200.484 41.085 200.753 41.8433 200.753 42.84V47H199.856V42.944C199.856 42.1727 199.661 41.5833 199.271 41.176C198.89 40.7687 198.365 40.565 197.698 40.565C197.013 40.565 196.467 40.7817 196.06 41.215C195.653 41.6483 195.449 42.2853 195.449 43.126V47H194.539V39.902H195.449V41.111C195.674 40.6777 195.999 40.3483 196.424 40.123C196.849 39.889 197.33 39.772 197.867 39.772ZM202.35 43.438C202.35 42.71 202.497 42.073 202.792 41.527C203.086 40.9723 203.489 40.5477 204.001 40.253C204.521 39.9497 205.106 39.798 205.756 39.798C206.38 39.798 206.943 39.9497 207.446 40.253C207.948 40.5563 208.317 40.9507 208.551 41.436V37.38H209.461V47H208.551V45.414C208.334 45.908 207.979 46.3153 207.485 46.636C206.991 46.948 206.41 47.104 205.743 47.104C205.093 47.104 204.508 46.9523 203.988 46.649C203.476 46.3457 203.073 45.9167 202.779 45.362C202.493 44.8073 202.35 44.166 202.35 43.438ZM208.551 43.451C208.551 42.879 208.434 42.3763 208.2 41.943C207.966 41.5097 207.645 41.176 207.238 40.942C206.839 40.708 206.397 40.591 205.912 40.591C205.409 40.591 204.958 40.7037 204.56 40.929C204.161 41.1543 203.845 41.4837 203.611 41.917C203.385 42.3417 203.273 42.8487 203.273 43.438C203.273 44.0187 203.385 44.53 203.611 44.972C203.845 45.4053 204.161 45.739 204.56 45.973C204.958 46.1983 205.409 46.311 205.912 46.311C206.397 46.311 206.839 46.194 207.238 45.96C207.645 45.726 207.966 45.3923 208.2 44.959C208.434 44.5257 208.551 44.023 208.551 43.451ZM214.645 47.104C213.978 47.104 213.375 46.9567 212.838 46.662C212.309 46.3587 211.889 45.934 211.577 45.388C211.274 44.8333 211.122 44.1877 211.122 43.451C211.122 42.7143 211.278 42.073 211.59 41.527C211.902 40.9723 212.327 40.5477 212.864 40.253C213.401 39.9497 214.004 39.798 214.671 39.798C215.338 39.798 215.941 39.9497 216.478 40.253C217.024 40.5477 217.449 40.9723 217.752 41.527C218.064 42.073 218.22 42.7143 218.22 43.451C218.22 44.179 218.064 44.8203 217.752 45.375C217.44 45.9297 217.011 46.3587 216.465 46.662C215.919 46.9567 215.312 47.104 214.645 47.104ZM214.645 46.311C215.113 46.311 215.546 46.207 215.945 45.999C216.344 45.7823 216.664 45.4617 216.907 45.037C217.158 44.6037 217.284 44.075 217.284 43.451C217.284 42.827 217.163 42.3027 216.92 41.878C216.677 41.4447 216.357 41.124 215.958 40.916C215.559 40.6993 215.126 40.591 214.658 40.591C214.19 40.591 213.757 40.6993 213.358 40.916C212.959 41.124 212.639 41.4447 212.396 41.878C212.162 42.3027 212.045 42.827 212.045 43.451C212.045 44.075 212.162 44.6037 212.396 45.037C212.639 45.4617 212.955 45.7823 213.345 45.999C213.744 46.207 214.177 46.311 214.645 46.311ZM229.595 39.902V47H228.685V45.752C228.477 46.194 228.157 46.532 227.723 46.766C227.29 47 226.805 47.117 226.267 47.117C225.418 47.117 224.725 46.857 224.187 46.337C223.65 45.8083 223.381 45.0457 223.381 44.049V39.902H224.278V43.945C224.278 44.7163 224.469 45.3057 224.85 45.713C225.24 46.1203 225.769 46.324 226.436 46.324C227.121 46.324 227.667 46.1073 228.074 45.674C228.482 45.2407 228.685 44.6037 228.685 43.763V39.902H229.595ZM235.001 39.772C235.85 39.772 236.543 40.0363 237.081 40.565C237.618 41.085 237.887 41.8433 237.887 42.84V47H236.99V42.944C236.99 42.1727 236.795 41.5833 236.405 41.176C236.023 40.7687 235.499 40.565 234.832 40.565C234.147 40.565 233.601 40.7817 233.194 41.215C232.786 41.6483 232.583 42.2853 232.583 43.126V47H231.673V39.902H232.583V41.111C232.808 40.6777 233.133 40.3483 233.558 40.123C233.982 39.889 234.463 39.772 235.001 39.772ZM251.917 39.772C252.749 39.772 253.425 40.0363 253.945 40.565C254.473 41.085 254.738 41.8433 254.738 42.84V47H253.841V42.944C253.841 42.1727 253.654 41.5833 253.282 41.176C252.909 40.7687 252.402 40.565 251.761 40.565C251.093 40.565 250.56 40.786 250.162 41.228C249.763 41.67 249.564 42.3113 249.564 43.152V47H248.667V42.944C248.667 42.1727 248.48 41.5833 248.108 41.176C247.735 40.7687 247.224 40.565 246.574 40.565C245.906 40.565 245.373 40.786 244.975 41.228C244.576 41.67 244.377 42.3113 244.377 43.152V47H243.467V39.902H244.377V41.124C244.602 40.682 244.923 40.3483 245.339 40.123C245.755 39.889 246.218 39.772 246.73 39.772C247.345 39.772 247.882 39.9193 248.342 40.214C248.81 40.5087 249.148 40.942 249.356 41.514C249.546 40.9507 249.871 40.5217 250.331 40.227C250.799 39.9237 251.327 39.772 251.917 39.772ZM256.343 43.438C256.343 42.71 256.486 42.073 256.772 41.527C257.066 40.9723 257.469 40.5477 257.981 40.253C258.501 39.9497 259.086 39.798 259.736 39.798C260.412 39.798 260.992 39.954 261.478 40.266C261.972 40.578 262.327 40.9767 262.544 41.462V39.902H263.454V47H262.544V45.427C262.318 45.9123 261.959 46.3153 261.465 46.636C260.979 46.948 260.399 47.104 259.723 47.104C259.081 47.104 258.501 46.9523 257.981 46.649C257.469 46.3457 257.066 45.9167 256.772 45.362C256.486 44.8073 256.343 44.166 256.343 43.438ZM262.544 43.451C262.544 42.879 262.427 42.3763 262.193 41.943C261.959 41.5097 261.638 41.176 261.231 40.942C260.832 40.708 260.39 40.591 259.905 40.591C259.402 40.591 258.951 40.7037 258.553 40.929C258.154 41.1543 257.838 41.4837 257.604 41.917C257.378 42.3417 257.266 42.8487 257.266 43.438C257.266 44.0187 257.378 44.53 257.604 44.972C257.838 45.4053 258.154 45.739 258.553 45.973C258.951 46.1983 259.402 46.311 259.905 46.311C260.39 46.311 260.832 46.194 261.231 45.96C261.638 45.726 261.959 45.3923 262.193 44.959C262.427 44.5257 262.544 44.023 262.544 43.451ZM265.986 38.563C265.804 38.563 265.648 38.498 265.518 38.368C265.388 38.238 265.323 38.0777 265.323 37.887C265.323 37.6963 265.388 37.5403 265.518 37.419C265.648 37.289 265.804 37.224 265.986 37.224C266.168 37.224 266.324 37.289 266.454 37.419C266.584 37.5403 266.649 37.6963 266.649 37.887C266.649 38.0777 266.584 38.238 266.454 38.368C266.324 38.498 266.168 38.563 265.986 38.563ZM266.441 39.902V47H265.531V39.902H266.441ZM269.412 37.38V47H268.502V37.38H269.412ZM274.624 43.451C274.624 42.7143 274.771 42.073 275.066 41.527C275.361 40.9723 275.768 40.5477 276.288 40.253C276.808 39.9497 277.402 39.798 278.069 39.798C278.944 39.798 279.664 40.0147 280.227 40.448C280.799 40.8813 281.167 41.4707 281.332 42.216H280.357C280.236 41.7047 279.971 41.306 279.564 41.02C279.165 40.7253 278.667 40.578 278.069 40.578C277.592 40.578 277.163 40.6863 276.782 40.903C276.401 41.1197 276.097 41.4447 275.872 41.878C275.655 42.3027 275.547 42.827 275.547 43.451C275.547 44.075 275.655 44.6037 275.872 45.037C276.097 45.4703 276.401 45.7953 276.782 46.012C277.163 46.2287 277.592 46.337 278.069 46.337C278.667 46.337 279.165 46.194 279.564 45.908C279.971 45.6133 280.236 45.206 280.357 44.686H281.332C281.167 45.414 280.799 45.999 280.227 46.441C279.655 46.883 278.936 47.104 278.069 47.104C277.402 47.104 276.808 46.9567 276.288 46.662C275.768 46.3587 275.361 45.934 275.066 45.388C274.771 44.8333 274.624 44.1877 274.624 43.451ZM286.12 47.104C285.452 47.104 284.85 46.9567 284.313 46.662C283.784 46.3587 283.364 45.934 283.052 45.388C282.748 44.8333 282.597 44.1877 282.597 43.451C282.597 42.7143 282.753 42.073 283.065 41.527C283.377 40.9723 283.801 40.5477 284.339 40.253C284.876 39.9497 285.478 39.798 286.146 39.798C286.813 39.798 287.415 39.9497 287.953 40.253C288.499 40.5477 288.923 40.9723 289.227 41.527C289.539 42.073 289.695 42.7143 289.695 43.451C289.695 44.179 289.539 44.8203 289.227 45.375C288.915 45.9297 288.486 46.3587 287.94 46.662C287.394 46.9567 286.787 47.104 286.12 47.104ZM286.12 46.311C286.588 46.311 287.021 46.207 287.42 45.999C287.818 45.7823 288.139 45.4617 288.382 45.037C288.633 44.6037 288.759 44.075 288.759 43.451C288.759 42.827 288.637 42.3027 288.395 41.878C288.152 41.4447 287.831 41.124 287.433 40.916C287.034 40.6993 286.601 40.591 286.133 40.591C285.665 40.591 285.231 40.6993 284.833 40.916C284.434 41.124 284.113 41.4447 283.871 41.878C283.637 42.3027 283.52 42.827 283.52 43.451C283.52 44.075 283.637 44.6037 283.871 45.037C284.113 45.4617 284.43 45.7823 284.82 45.999C285.218 46.207 285.652 46.311 286.12 46.311ZM294.681 39.772C295.531 39.772 296.224 40.0363 296.761 40.565C297.299 41.085 297.567 41.8433 297.567 42.84V47H296.67V42.944C296.67 42.1727 296.475 41.5833 296.085 41.176C295.704 40.7687 295.18 40.565 294.512 40.565C293.828 40.565 293.282 40.7817 292.874 41.215C292.467 41.6483 292.263 42.2853 292.263 43.126V47H291.353V39.902H292.263V41.111C292.489 40.6777 292.814 40.3483 293.238 40.123C293.663 39.889 294.144 39.772 294.681 39.772ZM304.33 40.669V45.076C304.33 45.5093 304.413 45.8083 304.577 45.973C304.742 46.1377 305.032 46.22 305.448 46.22H306.28V47H305.305C304.664 47 304.187 46.8527 303.875 46.558C303.563 46.2547 303.407 45.7607 303.407 45.076V40.669H302.419V39.902H303.407V38.121H304.33V39.902H306.28V40.669H304.33ZM313.93 39.902V47H313.02V45.752C312.812 46.194 312.492 46.532 312.058 46.766C311.625 47 311.14 47.117 310.602 47.117C309.753 47.117 309.06 46.857 308.522 46.337C307.985 45.8083 307.716 45.0457 307.716 44.049V39.902H308.613V43.945C308.613 44.7163 308.804 45.3057 309.185 45.713C309.575 46.1203 310.104 46.324 310.771 46.324C311.456 46.324 312.002 46.1073 312.409 45.674C312.817 45.2407 313.02 44.6037 313.02 43.763V39.902H313.93ZM83.368 58.772C84.2173 58.772 84.9107 59.0363 85.448 59.565C85.9853 60.085 86.254 60.8433 86.254 61.84V66H85.357V61.944C85.357 61.1727 85.162 60.5833 84.772 60.176C84.3907 59.7687 83.8663 59.565 83.199 59.565C82.5143 59.565 81.9683 59.7817 81.561 60.215C81.1537 60.6483 80.95 61.2853 80.95 62.126V66H80.04V58.902H80.95V60.111C81.1753 59.6777 81.5003 59.3483 81.925 59.123C82.3497 58.889 82.8307 58.772 83.368 58.772ZM94.4156 58.902V66H93.5056V64.752C93.2976 65.194 92.9769 65.532 92.5436 65.766C92.1102 66 91.6249 66.117 91.0876 66.117C90.2382 66.117 89.5449 65.857 89.0076 65.337C88.4702 64.8083 88.2016 64.0457 88.2016 63.049V58.902H89.0986V62.945C89.0986 63.7163 89.2892 64.3057 89.6706 64.713C90.0606 65.1203 90.5892 65.324 91.2566 65.324C91.9412 65.324 92.4872 65.1073 92.8946 64.674C93.3019 64.2407 93.5056 63.6037 93.5056 62.763V58.902H94.4156ZM92.5436 56.809L89.8786 58.356V57.654L92.5436 55.99V56.809ZM104.943 58.772C105.775 58.772 106.451 59.0363 106.971 59.565C107.5 60.085 107.764 60.8433 107.764 61.84V66H106.867V61.944C106.867 61.1727 106.681 60.5833 106.308 60.176C105.935 59.7687 105.428 59.565 104.787 59.565C104.12 59.565 103.587 59.786 103.188 60.228C102.789 60.67 102.59 61.3113 102.59 62.152V66H101.693V61.944C101.693 61.1727 101.507 60.5833 101.134 60.176C100.761 59.7687 100.25 59.565 99.6001 59.565C98.9328 59.565 98.3998 59.786 98.0011 60.228C97.6025 60.67 97.4031 61.3113 97.4031 62.152V66H96.4931V58.902H97.4031V60.124C97.6285 59.682 97.9491 59.3483 98.3651 59.123C98.7811 58.889 99.2448 58.772 99.7561 58.772C100.371 58.772 100.909 58.9193 101.368 59.214C101.836 59.5087 102.174 59.942 102.382 60.514C102.573 59.9507 102.898 59.5217 103.357 59.227C103.825 58.9237 104.354 58.772 104.943 58.772ZM116.207 62.087C116.207 62.399 116.198 62.6373 116.181 62.802H110.292C110.318 63.3393 110.448 63.7987 110.682 64.18C110.916 64.5613 111.224 64.8517 111.605 65.051C111.986 65.2417 112.402 65.337 112.853 65.337C113.442 65.337 113.936 65.194 114.335 64.908C114.742 64.622 115.011 64.2363 115.141 63.751H116.103C115.93 64.4443 115.557 65.012 114.985 65.454C114.422 65.8873 113.711 66.104 112.853 66.104C112.186 66.104 111.588 65.9567 111.059 65.662C110.53 65.3587 110.114 64.934 109.811 64.388C109.516 63.8333 109.369 63.1877 109.369 62.451C109.369 61.7143 109.516 61.0687 109.811 60.514C110.106 59.9593 110.517 59.5347 111.046 59.24C111.575 58.9453 112.177 58.798 112.853 58.798C113.529 58.798 114.118 58.9453 114.621 59.24C115.132 59.5347 115.522 59.9333 115.791 60.436C116.068 60.93 116.207 61.4803 116.207 62.087ZM115.284 62.061C115.293 61.5323 115.184 61.0817 114.959 60.709C114.742 60.3363 114.443 60.0547 114.062 59.864C113.681 59.6733 113.265 59.578 112.814 59.578C112.138 59.578 111.562 59.7947 111.085 60.228C110.608 60.6613 110.344 61.2723 110.292 62.061H115.284ZM118.782 60.163C118.981 59.721 119.285 59.3787 119.692 59.136C120.108 58.8933 120.615 58.772 121.213 58.772V59.721H120.966C120.307 59.721 119.779 59.8987 119.38 60.254C118.981 60.6093 118.782 61.203 118.782 62.035V66H117.872V58.902H118.782V60.163ZM125.689 66.104C125.022 66.104 124.419 65.9567 123.882 65.662C123.353 65.3587 122.933 64.934 122.621 64.388C122.318 63.8333 122.166 63.1877 122.166 62.451C122.166 61.7143 122.322 61.073 122.634 60.527C122.946 59.9723 123.371 59.5477 123.908 59.253C124.445 58.9497 125.048 58.798 125.715 58.798C126.382 58.798 126.985 58.9497 127.522 59.253C128.068 59.5477 128.493 59.9723 128.796 60.527C129.108 61.073 129.264 61.7143 129.264 62.451C129.264 63.179 129.108 63.8203 128.796 64.375C128.484 64.9297 128.055 65.3587 127.509 65.662C126.963 65.9567 126.356 66.104 125.689 66.104ZM125.689 65.311C126.157 65.311 126.59 65.207 126.989 64.999C127.388 64.7823 127.708 64.4617 127.951 64.037C128.202 63.6037 128.328 63.075 128.328 62.451C128.328 61.827 128.207 61.3027 127.964 60.878C127.721 60.4447 127.401 60.124 127.002 59.916C126.603 59.6993 126.17 59.591 125.702 59.591C125.234 59.591 124.801 59.6993 124.402 59.916C124.003 60.124 123.683 60.4447 123.44 60.878C123.206 61.3027 123.089 61.827 123.089 62.451C123.089 63.075 123.206 63.6037 123.44 64.037C123.683 64.4617 123.999 64.7823 124.389 64.999C124.788 65.207 125.221 65.311 125.689 65.311ZM134.074 62.438C134.074 61.71 134.222 61.073 134.516 60.527C134.811 59.9723 135.214 59.5477 135.725 59.253C136.245 58.9497 136.83 58.798 137.48 58.798C138.104 58.798 138.668 58.9497 139.17 59.253C139.673 59.5563 140.041 59.9507 140.275 60.436V56.38H141.185V66H140.275V64.414C140.059 64.908 139.703 65.3153 139.209 65.636C138.715 65.948 138.135 66.104 137.467 66.104C136.817 66.104 136.232 65.9523 135.712 65.649C135.201 65.3457 134.798 64.9167 134.503 64.362C134.217 63.8073 134.074 63.166 134.074 62.438ZM140.275 62.451C140.275 61.879 140.158 61.3763 139.924 60.943C139.69 60.5097 139.37 60.176 138.962 59.942C138.564 59.708 138.122 59.591 137.636 59.591C137.134 59.591 136.683 59.7037 136.284 59.929C135.886 60.1543 135.569 60.4837 135.335 60.917C135.11 61.3417 134.997 61.8487 134.997 62.438C134.997 63.0187 135.11 63.53 135.335 63.972C135.569 64.4053 135.886 64.739 136.284 64.973C136.683 65.1983 137.134 65.311 137.636 65.311C138.122 65.311 138.564 65.194 138.962 64.96C139.37 64.726 139.69 64.3923 139.924 63.959C140.158 63.5257 140.275 63.023 140.275 62.451ZM149.685 62.087C149.685 62.399 149.676 62.6373 149.659 62.802H143.77C143.796 63.3393 143.926 63.7987 144.16 64.18C144.394 64.5613 144.701 64.8517 145.083 65.051C145.464 65.2417 145.88 65.337 146.331 65.337C146.92 65.337 147.414 65.194 147.813 64.908C148.22 64.622 148.489 64.2363 148.619 63.751H149.581C149.407 64.4443 149.035 65.012 148.463 65.454C147.899 65.8873 147.189 66.104 146.331 66.104C145.663 66.104 145.065 65.9567 144.537 65.662C144.008 65.3587 143.592 64.934 143.289 64.388C142.994 63.8333 142.847 63.1877 142.847 62.451C142.847 61.7143 142.994 61.0687 143.289 60.514C143.583 59.9593 143.995 59.5347 144.524 59.24C145.052 58.9453 145.655 58.798 146.331 58.798C147.007 58.798 147.596 58.9453 148.099 59.24C148.61 59.5347 149 59.9333 149.269 60.436C149.546 60.93 149.685 61.4803 149.685 62.087ZM148.762 62.061C148.77 61.5323 148.662 61.0817 148.437 60.709C148.22 60.3363 147.921 60.0547 147.54 59.864C147.158 59.6733 146.742 59.578 146.292 59.578C145.616 59.578 145.039 59.7947 144.563 60.228C144.086 60.6613 143.822 61.2723 143.77 62.061H148.762ZM155.814 60.462C156.039 59.9853 156.395 59.591 156.88 59.279C157.374 58.9583 157.959 58.798 158.635 58.798C159.276 58.798 159.853 58.9497 160.364 59.253C160.884 59.5477 161.287 59.9723 161.573 60.527C161.868 61.073 162.015 61.71 162.015 62.438C162.015 63.166 161.868 63.8073 161.573 64.362C161.287 64.9167 160.884 65.3457 160.364 65.649C159.853 65.9523 159.276 66.104 158.635 66.104C157.968 66.104 157.387 65.948 156.893 65.636C156.399 65.3153 156.039 64.9167 155.814 64.44V69.354H154.917V58.902H155.814V60.462ZM161.092 62.438C161.092 61.8487 160.975 61.3417 160.741 60.917C160.516 60.4837 160.204 60.1543 159.805 59.929C159.406 59.7037 158.956 59.591 158.453 59.591C157.968 59.591 157.521 59.708 157.114 59.942C156.715 60.176 156.399 60.5097 156.165 60.943C155.931 61.3763 155.814 61.879 155.814 62.451C155.814 63.023 155.931 63.5257 156.165 63.959C156.399 64.3923 156.715 64.726 157.114 64.96C157.521 65.194 157.968 65.311 158.453 65.311C158.956 65.311 159.406 65.1983 159.805 64.973C160.204 64.739 160.516 64.4053 160.741 63.972C160.975 63.53 161.092 63.0187 161.092 62.438ZM170.111 62.087C170.111 62.399 170.103 62.6373 170.085 62.802H164.196C164.222 63.3393 164.352 63.7987 164.586 64.18C164.82 64.5613 165.128 64.8517 165.509 65.051C165.891 65.2417 166.307 65.337 166.757 65.337C167.347 65.337 167.841 65.194 168.239 64.908C168.647 64.622 168.915 64.2363 169.045 63.751H170.007C169.834 64.4443 169.461 65.012 168.889 65.454C168.326 65.8873 167.615 66.104 166.757 66.104C166.09 66.104 165.492 65.9567 164.963 65.662C164.435 65.3587 164.019 64.934 163.715 64.388C163.421 63.8333 163.273 63.1877 163.273 62.451C163.273 61.7143 163.421 61.0687 163.715 60.514C164.01 59.9593 164.422 59.5347 164.95 59.24C165.479 58.9453 166.081 58.798 166.757 58.798C167.433 58.798 168.023 58.9453 168.525 59.24C169.037 59.5347 169.427 59.9333 169.695 60.436C169.973 60.93 170.111 61.4803 170.111 62.087ZM169.188 62.061C169.197 61.5323 169.089 61.0817 168.863 60.709C168.647 60.3363 168.348 60.0547 167.966 59.864C167.585 59.6733 167.169 59.578 166.718 59.578C166.042 59.578 165.466 59.7947 164.989 60.228C164.513 60.6613 164.248 61.2723 164.196 62.061H169.188ZM171.36 62.438C171.36 61.71 171.508 61.073 171.802 60.527C172.097 59.9723 172.5 59.5477 173.011 59.253C173.531 58.9497 174.116 58.798 174.766 58.798C175.39 58.798 175.954 58.9497 176.456 59.253C176.959 59.5563 177.327 59.9507 177.561 60.436V56.38H178.471V66H177.561V64.414C177.345 64.908 176.989 65.3153 176.495 65.636C176.001 65.948 175.421 66.104 174.753 66.104C174.103 66.104 173.518 65.9523 172.998 65.649C172.487 65.3457 172.084 64.9167 171.789 64.362C171.503 63.8073 171.36 63.166 171.36 62.438ZM177.561 62.451C177.561 61.879 177.444 61.3763 177.21 60.943C176.976 60.5097 176.656 60.176 176.248 59.942C175.85 59.708 175.408 59.591 174.922 59.591C174.42 59.591 173.969 59.7037 173.57 59.929C173.172 60.1543 172.855 60.4837 172.621 60.917C172.396 61.3417 172.283 61.8487 172.283 62.438C172.283 63.0187 172.396 63.53 172.621 63.972C172.855 64.4053 173.172 64.739 173.57 64.973C173.969 65.1983 174.42 65.311 174.922 65.311C175.408 65.311 175.85 65.194 176.248 64.96C176.656 64.726 176.976 64.3923 177.21 63.959C177.444 63.5257 177.561 63.023 177.561 62.451ZM181.004 57.563C180.822 57.563 180.666 57.498 180.536 57.368C180.406 57.238 180.341 57.0777 180.341 56.887C180.341 56.6963 180.406 56.5403 180.536 56.419C180.666 56.289 180.822 56.224 181.004 56.224C181.186 56.224 181.342 56.289 181.472 56.419C181.602 56.5403 181.667 56.6963 181.667 56.887C181.667 57.0777 181.602 57.238 181.472 57.368C181.342 57.498 181.186 57.563 181.004 57.563ZM181.459 58.902V66H180.549V58.902H181.459ZM183.103 62.438C183.103 61.71 183.251 61.073 183.545 60.527C183.84 59.9723 184.243 59.5477 184.754 59.253C185.274 58.9497 185.859 58.798 186.509 58.798C187.133 58.798 187.697 58.9497 188.199 59.253C188.702 59.5563 189.07 59.9507 189.304 60.436V56.38H190.214V66H189.304V64.414C189.088 64.908 188.732 65.3153 188.238 65.636C187.744 65.948 187.164 66.104 186.496 66.104C185.846 66.104 185.261 65.9523 184.741 65.649C184.23 65.3457 183.827 64.9167 183.532 64.362C183.246 63.8073 183.103 63.166 183.103 62.438ZM189.304 62.451C189.304 61.879 189.187 61.3763 188.953 60.943C188.719 60.5097 188.399 60.176 187.991 59.942C187.593 59.708 187.151 59.591 186.665 59.591C186.163 59.591 185.712 59.7037 185.313 59.929C184.915 60.1543 184.598 60.4837 184.364 60.917C184.139 61.3417 184.026 61.8487 184.026 62.438C184.026 63.0187 184.139 63.53 184.364 63.972C184.598 64.4053 184.915 64.739 185.313 64.973C185.712 65.1983 186.163 65.311 186.665 65.311C187.151 65.311 187.593 65.194 187.991 64.96C188.399 64.726 188.719 64.3923 188.953 63.959C189.187 63.5257 189.304 63.023 189.304 62.451ZM195.399 66.104C194.732 66.104 194.129 65.9567 193.592 65.662C193.063 65.3587 192.643 64.934 192.331 64.388C192.028 63.8333 191.876 63.1877 191.876 62.451C191.876 61.7143 192.032 61.073 192.344 60.527C192.656 59.9723 193.081 59.5477 193.618 59.253C194.155 58.9497 194.758 58.798 195.425 58.798C196.092 58.798 196.695 58.9497 197.232 59.253C197.778 59.5477 198.203 59.9723 198.506 60.527C198.818 61.073 198.974 61.7143 198.974 62.451C198.974 63.179 198.818 63.8203 198.506 64.375C198.194 64.9297 197.765 65.3587 197.219 65.662C196.673 65.9567 196.066 66.104 195.399 66.104ZM195.399 65.311C195.867 65.311 196.3 65.207 196.699 64.999C197.098 64.7823 197.418 64.4617 197.661 64.037C197.912 63.6037 198.038 63.075 198.038 62.451C198.038 61.827 197.917 61.3027 197.674 60.878C197.431 60.4447 197.111 60.124 196.712 59.916C196.313 59.6993 195.88 59.591 195.412 59.591C194.944 59.591 194.511 59.6993 194.112 59.916C193.713 60.124 193.393 60.4447 193.15 60.878C192.916 61.3027 192.799 61.827 192.799 62.451C192.799 63.075 192.916 63.6037 193.15 64.037C193.393 64.4617 193.709 64.7823 194.099 64.999C194.498 65.207 194.931 65.311 195.399 65.311ZM203.784 62.438C203.784 61.71 203.927 61.073 204.213 60.527C204.508 59.9723 204.911 59.5477 205.422 59.253C205.942 58.9497 206.527 58.798 207.177 58.798C207.853 58.798 208.434 58.954 208.919 59.266C209.413 59.578 209.768 59.9767 209.985 60.462V58.902H210.895V66H209.985V64.427C209.76 64.9123 209.4 65.3153 208.906 65.636C208.421 65.948 207.84 66.104 207.164 66.104C206.523 66.104 205.942 65.9523 205.422 65.649C204.911 65.3457 204.508 64.9167 204.213 64.362C203.927 63.8073 203.784 63.166 203.784 62.438ZM209.985 62.451C209.985 61.879 209.868 61.3763 209.634 60.943C209.4 60.5097 209.079 60.176 208.672 59.942C208.273 59.708 207.831 59.591 207.346 59.591C206.843 59.591 206.393 59.7037 205.994 59.929C205.595 60.1543 205.279 60.4837 205.045 60.917C204.82 61.3417 204.707 61.8487 204.707 62.438C204.707 63.0187 204.82 63.53 205.045 63.972C205.279 64.4053 205.595 64.739 205.994 64.973C206.393 65.1983 206.843 65.311 207.346 65.311C207.831 65.311 208.273 65.194 208.672 64.96C209.079 64.726 209.4 64.3923 209.634 63.959C209.868 63.5257 209.985 63.023 209.985 62.451ZM218.984 66.104C218.169 66.104 217.502 65.9177 216.982 65.545C216.471 65.1637 216.185 64.648 216.124 63.998H217.06C217.103 64.3967 217.29 64.7217 217.619 64.973C217.957 65.2157 218.408 65.337 218.971 65.337C219.465 65.337 219.851 65.22 220.128 64.986C220.414 64.752 220.557 64.4617 220.557 64.115C220.557 63.8723 220.479 63.673 220.323 63.517C220.167 63.361 219.968 63.2397 219.725 63.153C219.491 63.0577 219.17 62.958 218.763 62.854C218.234 62.7153 217.805 62.5767 217.476 62.438C217.147 62.2993 216.865 62.0957 216.631 61.827C216.406 61.5497 216.293 61.1813 216.293 60.722C216.293 60.3753 216.397 60.0547 216.605 59.76C216.813 59.4653 217.108 59.2313 217.489 59.058C217.87 58.8847 218.304 58.798 218.789 58.798C219.552 58.798 220.167 58.993 220.635 59.383C221.103 59.7643 221.354 60.293 221.389 60.969H220.479C220.453 60.553 220.288 60.2193 219.985 59.968C219.69 59.708 219.283 59.578 218.763 59.578C218.304 59.578 217.931 59.6863 217.645 59.903C217.359 60.1197 217.216 60.3883 217.216 60.709C217.216 60.9863 217.298 61.216 217.463 61.398C217.636 61.5713 217.849 61.71 218.1 61.814C218.351 61.9093 218.689 62.0177 219.114 62.139C219.625 62.2777 220.033 62.412 220.336 62.542C220.639 62.672 220.899 62.8627 221.116 63.114C221.333 63.3653 221.445 63.699 221.454 64.115C221.454 64.4963 221.35 64.8387 221.142 65.142C220.934 65.4367 220.644 65.6707 220.271 65.844C219.898 66.0173 219.469 66.104 218.984 66.104ZM226.547 58.772C227.084 58.772 227.565 58.8847 227.99 59.11C228.423 59.3353 228.761 59.682 229.004 60.15C229.255 60.6093 229.381 61.1727 229.381 61.84V66H228.484V61.944C228.484 61.1727 228.289 60.5833 227.899 60.176C227.518 59.7687 226.993 59.565 226.326 59.565C225.641 59.565 225.095 59.7817 224.688 60.215C224.281 60.6483 224.077 61.2853 224.077 62.126V66H223.167V56.38H224.077V60.111C224.302 59.6863 224.632 59.357 225.065 59.123C225.507 58.889 226.001 58.772 226.547 58.772ZM234.501 66.104C233.833 66.104 233.231 65.9567 232.694 65.662C232.165 65.3587 231.745 64.934 231.433 64.388C231.129 63.8333 230.978 63.1877 230.978 62.451C230.978 61.7143 231.134 61.073 231.446 60.527C231.758 59.9723 232.182 59.5477 232.72 59.253C233.257 58.9497 233.859 58.798 234.527 58.798C235.194 58.798 235.796 58.9497 236.334 59.253C236.88 59.5477 237.304 59.9723 237.608 60.527C237.92 61.073 238.076 61.7143 238.076 62.451C238.076 63.179 237.92 63.8203 237.608 64.375C237.296 64.9297 236.867 65.3587 236.321 65.662C235.775 65.9567 235.168 66.104 234.501 66.104ZM234.501 65.311C234.969 65.311 235.402 65.207 235.801 64.999C236.199 64.7823 236.52 64.4617 236.763 64.037C237.014 63.6037 237.14 63.075 237.14 62.451C237.14 61.827 237.018 61.3027 236.776 60.878C236.533 60.4447 236.212 60.124 235.814 59.916C235.415 59.6993 234.982 59.591 234.514 59.591C234.046 59.591 233.612 59.6993 233.214 59.916C232.815 60.124 232.494 60.4447 232.252 60.878C232.018 61.3027 231.901 61.827 231.901 62.451C231.901 63.075 232.018 63.6037 232.252 64.037C232.494 64.4617 232.811 64.7823 233.201 64.999C233.599 65.207 234.033 65.311 234.501 65.311ZM240.631 60.462C240.857 59.9853 241.212 59.591 241.697 59.279C242.191 58.9583 242.776 58.798 243.452 58.798C244.094 58.798 244.67 58.9497 245.181 59.253C245.701 59.5477 246.104 59.9723 246.39 60.527C246.685 61.073 246.832 61.71 246.832 62.438C246.832 63.166 246.685 63.8073 246.39 64.362C246.104 64.9167 245.701 65.3457 245.181 65.649C244.67 65.9523 244.094 66.104 243.452 66.104C242.785 66.104 242.204 65.948 241.71 65.636C241.216 65.3153 240.857 64.9167 240.631 64.44V69.354H239.734V58.902H240.631V60.462ZM245.909 62.438C245.909 61.8487 245.792 61.3417 245.558 60.917C245.333 60.4837 245.021 60.1543 244.622 59.929C244.224 59.7037 243.773 59.591 243.27 59.591C242.785 59.591 242.339 59.708 241.931 59.942C241.533 60.176 241.216 60.5097 240.982 60.943C240.748 61.3763 240.631 61.879 240.631 62.451C240.631 63.023 240.748 63.5257 240.982 63.959C241.216 64.3923 241.533 64.726 241.931 64.96C242.339 65.194 242.785 65.311 243.27 65.311C243.773 65.311 244.224 65.1983 244.622 64.973C245.021 64.739 245.333 64.4053 245.558 63.972C245.792 63.53 245.909 63.0187 245.909 62.438ZM254.838 57.732C255.774 57.732 256.597 57.914 257.308 58.278C258.018 58.642 258.564 59.1533 258.946 59.812C259.327 60.462 259.518 61.2117 259.518 62.061C259.518 62.737 259.409 63.3827 259.193 63.998C258.976 64.6133 258.664 65.116 258.257 65.506C257.849 65.8873 257.373 66.078 256.827 66.078C256.402 66.078 256.077 65.9653 255.852 65.74C255.635 65.506 255.518 65.1897 255.501 64.791C255.232 65.1897 254.89 65.506 254.474 65.74C254.058 65.9653 253.616 66.078 253.148 66.078C252.489 66.078 251.973 65.8787 251.601 65.48C251.237 65.0813 251.055 64.5397 251.055 63.855C251.055 63.2137 251.189 62.6157 251.458 62.061C251.726 61.4977 252.099 61.047 252.576 60.709C253.052 60.371 253.594 60.202 254.201 60.202C254.634 60.202 254.998 60.2973 255.293 60.488C255.596 60.6787 255.813 60.956 255.943 61.32L256.112 60.358H256.905L256.242 64.141C256.216 64.297 256.203 64.44 256.203 64.57C256.203 65.1507 256.454 65.441 256.957 65.441C257.329 65.441 257.65 65.272 257.919 64.934C258.196 64.596 258.404 64.1713 258.543 63.66C258.69 63.14 258.764 62.6243 258.764 62.113C258.764 61.3503 258.599 60.6917 258.27 60.137C257.949 59.5737 257.485 59.1447 256.879 58.85C256.272 58.5467 255.553 58.395 254.721 58.395C253.681 58.395 252.74 58.6507 251.9 59.162C251.059 59.6733 250.4 60.3667 249.924 61.242C249.447 62.1173 249.209 63.0837 249.209 64.141C249.2 65.3197 249.555 66.234 250.275 66.884C250.994 67.5427 251.978 67.872 253.226 67.872C254.014 67.872 254.729 67.7247 255.371 67.43L255.514 68.067C254.751 68.379 253.923 68.535 253.031 68.535C252.121 68.535 251.319 68.3573 250.626 68.002C249.932 67.6553 249.395 67.157 249.014 66.507C248.632 65.857 248.442 65.0987 248.442 64.232C248.442 63.0273 248.715 61.931 249.261 60.943C249.815 59.9463 250.578 59.162 251.549 58.59C252.528 58.018 253.624 57.732 254.838 57.732ZM253.408 65.363C253.798 65.363 254.157 65.259 254.487 65.051C254.816 64.843 255.085 64.5527 255.293 64.18C255.509 63.8073 255.644 63.3827 255.696 62.906C255.713 62.75 255.722 62.6373 255.722 62.568C255.722 62.0827 255.587 61.6883 255.319 61.385C255.059 61.073 254.686 60.917 254.201 60.917C253.741 60.917 253.338 61.0513 252.992 61.32C252.645 61.5887 252.376 61.9397 252.186 62.373C251.995 62.7977 251.9 63.2483 251.9 63.725C251.9 64.2277 252.03 64.6263 252.29 64.921C252.55 65.2157 252.922 65.363 253.408 65.363ZM263.976 66.104C263.162 66.104 262.494 65.9177 261.974 65.545C261.463 65.1637 261.177 64.648 261.116 63.998H262.052C262.096 64.3967 262.282 64.7217 262.611 64.973C262.949 65.2157 263.4 65.337 263.963 65.337C264.457 65.337 264.843 65.22 265.12 64.986C265.406 64.752 265.549 64.4617 265.549 64.115C265.549 63.8723 265.471 63.673 265.315 63.517C265.159 63.361 264.96 63.2397 264.717 63.153C264.483 63.0577 264.163 62.958 263.755 62.854C263.227 62.7153 262.798 62.5767 262.468 62.438C262.139 62.2993 261.857 62.0957 261.623 61.827C261.398 61.5497 261.285 61.1813 261.285 60.722C261.285 60.3753 261.389 60.0547 261.597 59.76C261.805 59.4653 262.1 59.2313 262.481 59.058C262.863 58.8847 263.296 58.798 263.781 58.798C264.544 58.798 265.159 58.993 265.627 59.383C266.095 59.7643 266.347 60.293 266.381 60.969H265.471C265.445 60.553 265.281 60.2193 264.977 59.968C264.683 59.708 264.275 59.578 263.755 59.578C263.296 59.578 262.923 59.6863 262.637 59.903C262.351 60.1197 262.208 60.3883 262.208 60.709C262.208 60.9863 262.291 61.216 262.455 61.398C262.629 61.5713 262.841 61.71 263.092 61.814C263.344 61.9093 263.682 62.0177 264.106 62.139C264.618 62.2777 265.025 62.412 265.328 62.542C265.632 62.672 265.892 62.8627 266.108 63.114C266.325 63.3653 266.438 63.699 266.446 64.115C266.446 64.4963 266.342 64.8387 266.134 65.142C265.926 65.4367 265.636 65.6707 265.263 65.844C264.891 66.0173 264.462 66.104 263.976 66.104ZM274.581 62.087C274.581 62.399 274.572 62.6373 274.555 62.802H268.666C268.692 63.3393 268.822 63.7987 269.056 64.18C269.29 64.5613 269.598 64.8517 269.979 65.051C270.36 65.2417 270.776 65.337 271.227 65.337C271.816 65.337 272.31 65.194 272.709 64.908C273.116 64.622 273.385 64.2363 273.515 63.751H274.477C274.304 64.4443 273.931 65.012 273.359 65.454C272.796 65.8873 272.085 66.104 271.227 66.104C270.56 66.104 269.962 65.9567 269.433 65.662C268.904 65.3587 268.488 64.934 268.185 64.388C267.89 63.8333 267.743 63.1877 267.743 62.451C267.743 61.7143 267.89 61.0687 268.185 60.514C268.48 59.9593 268.891 59.5347 269.42 59.24C269.949 58.9453 270.551 58.798 271.227 58.798C271.903 58.798 272.492 58.9453 272.995 59.24C273.506 59.5347 273.896 59.9333 274.165 60.436C274.442 60.93 274.581 61.4803 274.581 62.087ZM273.658 62.061C273.667 61.5323 273.558 61.0817 273.333 60.709C273.116 60.3363 272.817 60.0547 272.436 59.864C272.055 59.6733 271.639 59.578 271.188 59.578C270.512 59.578 269.936 59.7947 269.459 60.228C268.982 60.6613 268.718 61.2723 268.666 62.061H273.658ZM277.156 56.38V66H276.246V56.38H277.156ZM285.366 58.902V66H284.456V64.752C284.248 65.194 283.927 65.532 283.494 65.766C283.06 66 282.575 66.117 282.038 66.117C281.188 66.117 280.495 65.857 279.958 65.337C279.42 64.8083 279.152 64.0457 279.152 63.049V58.902H280.049V62.945C280.049 63.7163 280.239 64.3057 280.621 64.713C281.011 65.1203 281.539 65.324 282.207 65.324C282.891 65.324 283.437 65.1073 283.845 64.674C284.252 64.2407 284.456 63.6037 284.456 62.763V58.902H285.366ZM287.599 66.065C287.409 66.065 287.248 66 287.118 65.87C286.997 65.74 286.936 65.5797 286.936 65.389C286.936 65.1983 286.997 65.0423 287.118 64.921C287.248 64.791 287.409 64.726 287.599 64.726C287.781 64.726 287.933 64.791 288.054 64.921C288.184 65.0423 288.249 65.1983 288.249 65.389C288.249 65.5797 288.184 65.74 288.054 65.87C287.933 66 287.781 66.065 287.599 66.065ZM289.389 62.451C289.389 61.7143 289.536 61.073 289.831 60.527C290.125 59.9723 290.533 59.5477 291.053 59.253C291.573 58.9497 292.166 58.798 292.834 58.798C293.709 58.798 294.428 59.0147 294.992 59.448C295.564 59.8813 295.932 60.4707 296.097 61.216H295.122C295 60.7047 294.736 60.306 294.329 60.02C293.93 59.7253 293.432 59.578 292.834 59.578C292.357 59.578 291.928 59.6863 291.547 59.903C291.165 60.1197 290.862 60.4447 290.637 60.878C290.42 61.3027 290.312 61.827 290.312 62.451C290.312 63.075 290.42 63.6037 290.637 64.037C290.862 64.4703 291.165 64.7953 291.547 65.012C291.928 65.2287 292.357 65.337 292.834 65.337C293.432 65.337 293.93 65.194 294.329 64.908C294.736 64.6133 295 64.206 295.122 63.686H296.097C295.932 64.414 295.564 64.999 294.992 65.441C294.42 65.883 293.7 66.104 292.834 66.104C292.166 66.104 291.573 65.9567 291.053 65.662C290.533 65.3587 290.125 64.934 289.831 64.388C289.536 63.8333 289.389 63.1877 289.389 62.451ZM300.884 66.104C300.217 66.104 299.615 65.9567 299.077 65.662C298.549 65.3587 298.128 64.934 297.816 64.388C297.513 63.8333 297.361 63.1877 297.361 62.451C297.361 61.7143 297.517 61.073 297.829 60.527C298.141 59.9723 298.566 59.5477 299.103 59.253C299.641 58.9497 300.243 58.798 300.91 58.798C301.578 58.798 302.18 58.9497 302.717 59.253C303.263 59.5477 303.688 59.9723 303.991 60.527C304.303 61.073 304.459 61.7143 304.459 62.451C304.459 63.179 304.303 63.8203 303.991 64.375C303.679 64.9297 303.25 65.3587 302.704 65.662C302.158 65.9567 301.552 66.104 300.884 66.104ZM300.884 65.311C301.352 65.311 301.786 65.207 302.184 64.999C302.583 64.7823 302.904 64.4617 303.146 64.037C303.398 63.6037 303.523 63.075 303.523 62.451C303.523 61.827 303.402 61.3027 303.159 60.878C302.917 60.4447 302.596 60.124 302.197 59.916C301.799 59.6993 301.365 59.591 300.897 59.591C300.429 59.591 299.996 59.6993 299.597 59.916C299.199 60.124 298.878 60.4447 298.635 60.878C298.401 61.3027 298.284 61.827 298.284 62.451C298.284 63.075 298.401 63.6037 298.635 64.037C298.878 64.4617 299.194 64.7823 299.584 64.999C299.983 65.207 300.416 65.311 300.884 65.311ZM314.568 58.772C315.4 58.772 316.076 59.0363 316.596 59.565C317.125 60.085 317.389 60.8433 317.389 61.84V66H316.492V61.944C316.492 61.1727 316.306 60.5833 315.933 60.176C315.56 59.7687 315.053 59.565 314.412 59.565C313.745 59.565 313.212 59.786 312.813 60.228C312.414 60.67 312.215 61.3113 312.215 62.152V66H311.318V61.944C311.318 61.1727 311.132 60.5833 310.759 60.176C310.386 59.7687 309.875 59.565 309.225 59.565C308.558 59.565 308.025 59.786 307.626 60.228C307.227 60.67 307.028 61.3113 307.028 62.152V66H306.118V58.902H307.028V60.124C307.253 59.682 307.574 59.3483 307.99 59.123C308.406 58.889 308.87 58.772 309.381 58.772C309.996 58.772 310.534 58.9193 310.993 59.214C311.461 59.5087 311.799 59.942 312.007 60.514C312.198 59.9507 312.523 59.5217 312.982 59.227C313.45 58.9237 313.979 58.772 314.568 58.772ZM319.566 66.065C319.375 66.065 319.215 66 319.085 65.87C318.964 65.74 318.903 65.5797 318.903 65.389C318.903 65.1983 318.964 65.0423 319.085 64.921C319.215 64.791 319.375 64.726 319.566 64.726C319.748 64.726 319.9 64.791 320.021 64.921C320.151 65.0423 320.216 65.1983 320.216 65.389C320.216 65.5797 320.151 65.74 320.021 65.87C319.9 66 319.748 66.065 319.566 66.065ZM321.355 62.438C321.355 61.71 321.498 61.073 321.784 60.527C322.079 59.9723 322.482 59.5477 322.993 59.253C323.513 58.9497 324.098 58.798 324.748 58.798C325.424 58.798 326.005 58.954 326.49 59.266C326.984 59.578 327.34 59.9767 327.556 60.462V58.902H328.466V66H327.556V64.427C327.331 64.9123 326.971 65.3153 326.477 65.636C325.992 65.948 325.411 66.104 324.735 66.104C324.094 66.104 323.513 65.9523 322.993 65.649C322.482 65.3457 322.079 64.9167 321.784 64.362C321.498 63.8073 321.355 63.166 321.355 62.438ZM327.556 62.451C327.556 61.879 327.439 61.3763 327.205 60.943C326.971 60.5097 326.651 60.176 326.243 59.942C325.845 59.708 325.403 59.591 324.917 59.591C324.415 59.591 323.964 59.7037 323.565 59.929C323.167 60.1543 322.85 60.4837 322.616 60.917C322.391 61.3417 322.278 61.8487 322.278 62.438C322.278 63.0187 322.391 63.53 322.616 63.972C322.85 64.4053 323.167 64.739 323.565 64.973C323.964 65.1983 324.415 65.311 324.917 65.311C325.403 65.311 325.845 65.194 326.243 64.96C326.651 64.726 326.971 64.3923 327.205 63.959C327.439 63.5257 327.556 63.023 327.556 62.451ZM331.454 60.163C331.653 59.721 331.957 59.3787 332.364 59.136C332.78 58.8933 333.287 58.772 333.885 58.772V59.721H333.638C332.979 59.721 332.451 59.8987 332.052 60.254C331.653 60.6093 331.454 61.203 331.454 62.035V66H330.544V58.902H331.454V60.163Z" fill="black"/>
</svg>
