<svg width="400" height="81" viewBox="0 0 400 81" fill="none" xmlns="http://www.w3.org/2000/svg">
<g clip-path="url(#clip0_1_165)">
<path d="M43.2752 42.2579L5.95655 42.1531" stroke="#E9A5B2" stroke-width="2" stroke-linecap="round" stroke-linejoin="round"/>
<path d="M73.7931 62.6862H80.3579V40.9607C80.3579 34.2386 74.9069 28.8007 68.1979 28.8007H57.2303V21.7642H11.1455V32.0111L5.94345 31.9193" stroke="#E9A5B2" stroke-width="2" stroke-linecap="round" stroke-linejoin="round"/>
<path d="M31.3772 62.6862H57.7938H62.249" stroke="#E9A5B2" stroke-width="2" stroke-linecap="round" stroke-linejoin="round"/>
<path d="M5.93034 52.3083L11.1455 52.4131V62.6862H19.6497" stroke="#E9A5B2" stroke-width="2" stroke-linecap="round" stroke-linejoin="round"/>
<path d="M37.9421 36.0993L44.5462 42.2055L37.9421 48.22" stroke="#E9A5B2" stroke-width="2" stroke-linecap="round" stroke-linejoin="round"/>
<path d="M57.2303 28.7876V62.6862" stroke="#E9A5B2" stroke-width="2" stroke-linecap="round" stroke-linejoin="round"/>
<path d="M25.52 68.1766C28.5522 68.1766 31.0103 65.7184 31.0103 62.6862C31.0103 59.654 28.5522 57.1959 25.52 57.1959C22.4878 57.1959 20.0297 59.654 20.0297 62.6862C20.0297 65.7184 22.4878 68.1766 25.52 68.1766Z" stroke="#E9A5B2" stroke-width="2" stroke-linecap="round" stroke-linejoin="round"/>
<path d="M67.8441 68.1766C70.8764 68.1766 73.3345 65.7184 73.3345 62.6862C73.3345 59.654 70.8764 57.1959 67.8441 57.1959C64.8119 57.1959 62.3538 59.654 62.3538 62.6862C62.3538 65.7184 64.8119 68.1766 67.8441 68.1766Z" stroke="#E9A5B2" stroke-width="2" stroke-linecap="round" stroke-linejoin="round"/>
</g>
<path d="M110.024 16.352V19.616H113.864V21.104H110.024V24.512H114.344V26H108.2V14.864H114.344V16.352H110.024ZM125.727 26H123.903L118.415 17.696V26H116.591V14.864H118.415L123.903 23.152V14.864H125.727V26ZM137.706 14.88L133.53 26H131.418L127.226 14.88H129.178L132.474 24.128L135.786 14.88H137.706ZM141.055 14.88V26H139.231V14.88H141.055ZM141.791 12.496L138.255 14.24V12.896L141.791 10.944V12.496ZM148.522 26.112C147.487 26.112 146.533 25.872 145.658 25.392C144.794 24.9013 144.106 24.224 143.594 23.36C143.093 22.4853 142.842 21.504 142.842 20.416C142.842 19.328 143.093 18.352 143.594 17.488C144.106 16.624 144.794 15.952 145.658 15.472C146.533 14.9813 147.487 14.736 148.522 14.736C149.567 14.736 150.522 14.9813 151.386 15.472C152.261 15.952 152.949 16.624 153.45 17.488C153.951 18.352 154.202 19.328 154.202 20.416C154.202 21.504 153.951 22.4853 153.45 23.36C152.949 24.224 152.261 24.9013 151.386 25.392C150.522 25.872 149.567 26.112 148.522 26.112ZM148.522 24.528C149.258 24.528 149.914 24.3627 150.49 24.032C151.066 23.6907 151.514 23.2107 151.834 22.592C152.165 21.9627 152.33 21.2373 152.33 20.416C152.33 19.5947 152.165 18.8747 151.834 18.256C151.514 17.6373 151.066 17.1627 150.49 16.832C149.914 16.5013 149.258 16.336 148.522 16.336C147.786 16.336 147.13 16.5013 146.554 16.832C145.978 17.1627 145.525 17.6373 145.194 18.256C144.874 18.8747 144.714 19.5947 144.714 20.416C144.714 21.2373 144.874 21.9627 145.194 22.592C145.525 23.2107 145.978 23.6907 146.554 24.032C147.13 24.3627 147.786 24.528 148.522 24.528Z" fill="#E9A5B2"/>
<path d="M115.19 37.565C114.93 36.967 114.531 36.499 113.994 36.161C113.465 35.8143 112.841 35.641 112.122 35.641C111.446 35.641 110.839 35.797 110.302 36.109C109.765 36.421 109.34 36.8673 109.028 37.448C108.716 38.02 108.56 38.6873 108.56 39.45C108.56 40.2127 108.716 40.8843 109.028 41.465C109.34 42.0457 109.765 42.492 110.302 42.804C110.839 43.116 111.446 43.272 112.122 43.272C112.755 43.272 113.322 43.1377 113.825 42.869C114.336 42.5917 114.744 42.2017 115.047 41.699C115.359 41.1877 115.537 40.594 115.58 39.918H111.758V39.177H116.542V39.84C116.499 40.6373 116.282 41.361 115.892 42.011C115.502 42.6523 114.978 43.1593 114.319 43.532C113.669 43.9047 112.937 44.091 112.122 44.091C111.281 44.091 110.519 43.896 109.834 43.506C109.149 43.1073 108.608 42.557 108.209 41.855C107.819 41.1443 107.624 40.3427 107.624 39.45C107.624 38.5573 107.819 37.76 108.209 37.058C108.608 36.3473 109.149 35.797 109.834 35.407C110.519 35.0083 111.281 34.809 112.122 34.809C113.093 34.809 113.942 35.0517 114.67 35.537C115.398 36.0223 115.927 36.6983 116.256 37.565H115.19ZM119.119 38.163C119.318 37.721 119.622 37.3787 120.029 37.136C120.445 36.8933 120.952 36.772 121.55 36.772V37.721H121.303C120.644 37.721 120.116 37.8987 119.717 38.254C119.318 38.6093 119.119 39.203 119.119 40.035V44H118.209V36.902H119.119V38.163ZM122.503 40.438C122.503 39.71 122.646 39.073 122.932 38.527C123.227 37.9723 123.63 37.5477 124.141 37.253C124.661 36.9497 125.246 36.798 125.896 36.798C126.572 36.798 127.153 36.954 127.638 37.266C128.132 37.578 128.487 37.9767 128.704 38.462V36.902H129.614V44H128.704V42.427C128.479 42.9123 128.119 43.3153 127.625 43.636C127.14 43.948 126.559 44.104 125.883 44.104C125.242 44.104 124.661 43.9523 124.141 43.649C123.63 43.3457 123.227 42.9167 122.932 42.362C122.646 41.8073 122.503 41.166 122.503 40.438ZM128.704 40.451C128.704 39.879 128.587 39.3763 128.353 38.943C128.119 38.5097 127.798 38.176 127.391 37.942C126.992 37.708 126.55 37.591 126.065 37.591C125.562 37.591 125.112 37.7037 124.713 37.929C124.314 38.1543 123.998 38.4837 123.764 38.917C123.539 39.3417 123.426 39.8487 123.426 40.438C123.426 41.0187 123.539 41.53 123.764 41.972C123.998 42.4053 124.314 42.739 124.713 42.973C125.112 43.1983 125.562 43.311 126.065 43.311C126.55 43.311 126.992 43.194 127.391 42.96C127.798 42.726 128.119 42.3923 128.353 41.959C128.587 41.5257 128.704 41.023 128.704 40.451ZM132.874 37.669V42.076C132.874 42.5093 132.957 42.8083 133.121 42.973C133.286 43.1377 133.576 43.22 133.992 43.22H134.824V44H133.849C133.208 44 132.731 43.8527 132.419 43.558C132.107 43.2547 131.951 42.7607 131.951 42.076V37.669H130.963V36.902H131.951V35.121H132.874V36.902H134.824V37.669H132.874ZM136.78 35.563C136.598 35.563 136.442 35.498 136.312 35.368C136.182 35.238 136.117 35.0777 136.117 34.887C136.117 34.6963 136.182 34.5403 136.312 34.419C136.442 34.289 136.598 34.224 136.78 34.224C136.962 34.224 137.118 34.289 137.248 34.419C137.378 34.5403 137.443 34.6963 137.443 34.887C137.443 35.0777 137.378 35.238 137.248 35.368C137.118 35.498 136.962 35.563 136.78 35.563ZM137.235 36.902V44H136.325V36.902H137.235ZM141.74 44.104C140.925 44.104 140.258 43.9177 139.738 43.545C139.227 43.1637 138.941 42.648 138.88 41.998H139.816C139.859 42.3967 140.046 42.7217 140.375 42.973C140.713 43.2157 141.164 43.337 141.727 43.337C142.221 43.337 142.607 43.22 142.884 42.986C143.17 42.752 143.313 42.4617 143.313 42.115C143.313 41.8723 143.235 41.673 143.079 41.517C142.923 41.361 142.724 41.2397 142.481 41.153C142.247 41.0577 141.926 40.958 141.519 40.854C140.99 40.7153 140.561 40.5767 140.232 40.438C139.903 40.2993 139.621 40.0957 139.387 39.827C139.162 39.5497 139.049 39.1813 139.049 38.722C139.049 38.3753 139.153 38.0547 139.361 37.76C139.569 37.4653 139.864 37.2313 140.245 37.058C140.626 36.8847 141.06 36.798 141.545 36.798C142.308 36.798 142.923 36.993 143.391 37.383C143.859 37.7643 144.11 38.293 144.145 38.969H143.235C143.209 38.553 143.044 38.2193 142.741 37.968C142.446 37.708 142.039 37.578 141.519 37.578C141.06 37.578 140.687 37.6863 140.401 37.903C140.115 38.1197 139.972 38.3883 139.972 38.709C139.972 38.9863 140.054 39.216 140.219 39.398C140.392 39.5713 140.605 39.71 140.856 39.814C141.107 39.9093 141.445 40.0177 141.87 40.139C142.381 40.2777 142.789 40.412 143.092 40.542C143.395 40.672 143.655 40.8627 143.872 41.114C144.089 41.3653 144.201 41.699 144.21 42.115C144.21 42.4963 144.106 42.8387 143.898 43.142C143.69 43.4367 143.4 43.6707 143.027 43.844C142.654 44.0173 142.225 44.104 141.74 44.104ZM146.079 44.065C145.888 44.065 145.728 44 145.598 43.87C145.476 43.74 145.416 43.5797 145.416 43.389C145.416 43.1983 145.476 43.0423 145.598 42.921C145.728 42.791 145.888 42.726 146.079 42.726C146.261 42.726 146.412 42.791 146.534 42.921C146.664 43.0423 146.729 43.1983 146.729 43.389C146.729 43.5797 146.664 43.74 146.534 43.87C146.412 44 146.261 44.065 146.079 44.065ZM146.079 38.41C145.888 38.41 145.728 38.345 145.598 38.215C145.476 38.085 145.416 37.9247 145.416 37.734C145.416 37.5433 145.476 37.3873 145.598 37.266C145.728 37.136 145.888 37.071 146.079 37.071C146.261 37.071 146.412 37.136 146.534 37.266C146.664 37.3873 146.729 37.5433 146.729 37.734C146.729 37.9247 146.664 38.085 146.534 38.215C146.412 38.345 146.261 38.41 146.079 38.41ZM158.312 40.087C158.312 40.399 158.303 40.6373 158.286 40.802H152.397C152.423 41.3393 152.553 41.7987 152.787 42.18C153.021 42.5613 153.328 42.8517 153.71 43.051C154.091 43.2417 154.507 43.337 154.958 43.337C155.547 43.337 156.041 43.194 156.44 42.908C156.847 42.622 157.116 42.2363 157.246 41.751H158.208C158.034 42.4443 157.662 43.012 157.09 43.454C156.526 43.8873 155.816 44.104 154.958 44.104C154.29 44.104 153.692 43.9567 153.164 43.662C152.635 43.3587 152.219 42.934 151.916 42.388C151.621 41.8333 151.474 41.1877 151.474 40.451C151.474 39.7143 151.621 39.0687 151.916 38.514C152.21 37.9593 152.622 37.5347 153.151 37.24C153.679 36.9453 154.282 36.798 154.958 36.798C155.634 36.798 156.223 36.9453 156.726 37.24C157.237 37.5347 157.627 37.9333 157.896 38.436C158.173 38.93 158.312 39.4803 158.312 40.087ZM157.389 40.061C157.397 39.5323 157.289 39.0817 157.064 38.709C156.847 38.3363 156.548 38.0547 156.167 37.864C155.785 37.6733 155.369 37.578 154.919 37.578C154.243 37.578 153.666 37.7947 153.19 38.228C152.713 38.6613 152.449 39.2723 152.397 40.061H157.389ZM163.305 36.772C164.154 36.772 164.847 37.0363 165.385 37.565C165.922 38.085 166.191 38.8433 166.191 39.84V44H165.294V39.944C165.294 39.1727 165.099 38.5833 164.709 38.176C164.327 37.7687 163.803 37.565 163.136 37.565C162.451 37.565 161.905 37.7817 161.498 38.215C161.09 38.6483 160.887 39.2853 160.887 40.126V44H159.977V36.902H160.887V38.111C161.112 37.6777 161.437 37.3483 161.862 37.123C162.286 36.889 162.767 36.772 163.305 36.772ZM171.354 40.451C171.354 39.7143 171.502 39.073 171.796 38.527C172.091 37.9723 172.498 37.5477 173.018 37.253C173.538 36.9497 174.132 36.798 174.799 36.798C175.675 36.798 176.394 37.0147 176.957 37.448C177.529 37.8813 177.898 38.4707 178.062 39.216H177.087C176.966 38.7047 176.702 38.306 176.294 38.02C175.896 37.7253 175.397 37.578 174.799 37.578C174.323 37.578 173.894 37.6863 173.512 37.903C173.131 38.1197 172.828 38.4447 172.602 38.878C172.386 39.3027 172.277 39.827 172.277 40.451C172.277 41.075 172.386 41.6037 172.602 42.037C172.828 42.4703 173.131 42.7953 173.512 43.012C173.894 43.2287 174.323 43.337 174.799 43.337C175.397 43.337 175.896 43.194 176.294 42.908C176.702 42.6133 176.966 42.206 177.087 41.686H178.062C177.898 42.414 177.529 42.999 176.957 43.441C176.385 43.883 175.666 44.104 174.799 44.104C174.132 44.104 173.538 43.9567 173.018 43.662C172.498 43.3587 172.091 42.934 171.796 42.388C171.502 41.8333 171.354 41.1877 171.354 40.451ZM182.85 44.104C182.183 44.104 181.58 43.9567 181.043 43.662C180.514 43.3587 180.094 42.934 179.782 42.388C179.479 41.8333 179.327 41.1877 179.327 40.451C179.327 39.7143 179.483 39.073 179.795 38.527C180.107 37.9723 180.532 37.5477 181.069 37.253C181.606 36.9497 182.209 36.798 182.876 36.798C183.543 36.798 184.146 36.9497 184.683 37.253C185.229 37.5477 185.654 37.9723 185.957 38.527C186.269 39.073 186.425 39.7143 186.425 40.451C186.425 41.179 186.269 41.8203 185.957 42.375C185.645 42.9297 185.216 43.3587 184.67 43.662C184.124 43.9567 183.517 44.104 182.85 44.104ZM182.85 43.311C183.318 43.311 183.751 43.207 184.15 42.999C184.549 42.7823 184.869 42.4617 185.112 42.037C185.363 41.6037 185.489 41.075 185.489 40.451C185.489 39.827 185.368 39.3027 185.125 38.878C184.882 38.4447 184.562 38.124 184.163 37.916C183.764 37.6993 183.331 37.591 182.863 37.591C182.395 37.591 181.962 37.6993 181.563 37.916C181.164 38.124 180.844 38.4447 180.601 38.878C180.367 39.3027 180.25 39.827 180.25 40.451C180.25 41.075 180.367 41.6037 180.601 42.037C180.844 42.4617 181.16 42.7823 181.55 42.999C181.949 43.207 182.382 43.311 182.85 43.311ZM196.534 36.772C197.366 36.772 198.042 37.0363 198.562 37.565C199.091 38.085 199.355 38.8433 199.355 39.84V44H198.458V39.944C198.458 39.1727 198.272 38.5833 197.899 38.176C197.526 37.7687 197.019 37.565 196.378 37.565C195.711 37.565 195.178 37.786 194.779 38.228C194.38 38.67 194.181 39.3113 194.181 40.152V44H193.284V39.944C193.284 39.1727 193.098 38.5833 192.725 38.176C192.352 37.7687 191.841 37.565 191.191 37.565C190.524 37.565 189.991 37.786 189.592 38.228C189.193 38.67 188.994 39.3113 188.994 40.152V44H188.084V36.902H188.994V38.124C189.219 37.682 189.54 37.3483 189.956 37.123C190.372 36.889 190.836 36.772 191.347 36.772C191.962 36.772 192.5 36.9193 192.959 37.214C193.427 37.5087 193.765 37.942 193.973 38.514C194.164 37.9507 194.489 37.5217 194.948 37.227C195.416 36.9237 195.945 36.772 196.534 36.772ZM202.273 38.462C202.498 37.9853 202.854 37.591 203.339 37.279C203.833 36.9583 204.418 36.798 205.094 36.798C205.735 36.798 206.312 36.9497 206.823 37.253C207.343 37.5477 207.746 37.9723 208.032 38.527C208.327 39.073 208.474 39.71 208.474 40.438C208.474 41.166 208.327 41.8073 208.032 42.362C207.746 42.9167 207.343 43.3457 206.823 43.649C206.312 43.9523 205.735 44.104 205.094 44.104C204.427 44.104 203.846 43.948 203.352 43.636C202.858 43.3153 202.498 42.9167 202.273 42.44V47.354H201.376V36.902H202.273V38.462ZM207.551 40.438C207.551 39.8487 207.434 39.3417 207.2 38.917C206.975 38.4837 206.663 38.1543 206.264 37.929C205.865 37.7037 205.415 37.591 204.912 37.591C204.427 37.591 203.98 37.708 203.573 37.942C203.174 38.176 202.858 38.5097 202.624 38.943C202.39 39.3763 202.273 39.879 202.273 40.451C202.273 41.023 202.39 41.5257 202.624 41.959C202.858 42.3923 203.174 42.726 203.573 42.96C203.98 43.194 204.427 43.311 204.912 43.311C205.415 43.311 205.865 43.1983 206.264 42.973C206.663 42.739 206.975 42.4053 207.2 41.972C207.434 41.53 207.551 41.0187 207.551 40.438ZM211.058 38.163C211.258 37.721 211.561 37.3787 211.968 37.136C212.384 36.8933 212.891 36.772 213.489 36.772V37.721H213.242C212.584 37.721 212.055 37.8987 211.656 38.254C211.258 38.6093 211.058 39.203 211.058 40.035V44H210.148V36.902H211.058V38.163ZM214.442 40.438C214.442 39.71 214.585 39.073 214.871 38.527C215.166 37.9723 215.569 37.5477 216.08 37.253C216.6 36.9497 217.185 36.798 217.835 36.798C218.511 36.798 219.092 36.954 219.577 37.266C220.071 37.578 220.427 37.9767 220.643 38.462V36.902H221.553V44H220.643V42.427C220.418 42.9123 220.058 43.3153 219.564 43.636C219.079 43.948 218.498 44.104 217.822 44.104C217.181 44.104 216.6 43.9523 216.08 43.649C215.569 43.3457 215.166 42.9167 214.871 42.362C214.585 41.8073 214.442 41.166 214.442 40.438ZM220.643 40.451C220.643 39.879 220.526 39.3763 220.292 38.943C220.058 38.5097 219.738 38.176 219.33 37.942C218.932 37.708 218.49 37.591 218.004 37.591C217.502 37.591 217.051 37.7037 216.652 37.929C216.254 38.1543 215.937 38.4837 215.703 38.917C215.478 39.3417 215.365 39.8487 215.365 40.438C215.365 41.0187 215.478 41.53 215.703 41.972C215.937 42.4053 216.254 42.739 216.652 42.973C217.051 43.1983 217.502 43.311 218.004 43.311C218.49 43.311 218.932 43.194 219.33 42.96C219.738 42.726 220.058 42.3923 220.292 41.959C220.526 41.5257 220.643 41.023 220.643 40.451ZM226.075 44.104C225.26 44.104 224.593 43.9177 224.073 43.545C223.561 43.1637 223.275 42.648 223.215 41.998H224.151C224.194 42.3967 224.38 42.7217 224.71 42.973C225.048 43.2157 225.498 43.337 226.062 43.337C226.556 43.337 226.941 43.22 227.219 42.986C227.505 42.752 227.648 42.4617 227.648 42.115C227.648 41.8723 227.57 41.673 227.414 41.517C227.258 41.361 227.058 41.2397 226.816 41.153C226.582 41.0577 226.261 40.958 225.854 40.854C225.325 40.7153 224.896 40.5767 224.567 40.438C224.237 40.2993 223.956 40.0957 223.722 39.827C223.496 39.5497 223.384 39.1813 223.384 38.722C223.384 38.3753 223.488 38.0547 223.696 37.76C223.904 37.4653 224.198 37.2313 224.58 37.058C224.961 36.8847 225.394 36.798 225.88 36.798C226.642 36.798 227.258 36.993 227.726 37.383C228.194 37.7643 228.445 38.293 228.48 38.969H227.57C227.544 38.553 227.379 38.2193 227.076 37.968C226.781 37.708 226.374 37.578 225.854 37.578C225.394 37.578 225.022 37.6863 224.736 37.903C224.45 38.1197 224.307 38.3883 224.307 38.709C224.307 38.9863 224.389 39.216 224.554 39.398C224.727 39.5713 224.939 39.71 225.191 39.814C225.442 39.9093 225.78 40.0177 226.205 40.139C226.716 40.2777 227.123 40.412 227.427 40.542C227.73 40.672 227.99 40.8627 228.207 41.114C228.423 41.3653 228.536 41.699 228.545 42.115C228.545 42.4963 228.441 42.8387 228.233 43.142C228.025 43.4367 227.734 43.6707 227.362 43.844C226.989 44.0173 226.56 44.104 226.075 44.104ZM236.269 44.104C235.454 44.104 234.787 43.9177 234.267 43.545C233.756 43.1637 233.47 42.648 233.409 41.998H234.345C234.388 42.3967 234.575 42.7217 234.904 42.973C235.242 43.2157 235.693 43.337 236.256 43.337C236.75 43.337 237.136 43.22 237.413 42.986C237.699 42.752 237.842 42.4617 237.842 42.115C237.842 41.8723 237.764 41.673 237.608 41.517C237.452 41.361 237.253 41.2397 237.01 41.153C236.776 41.0577 236.455 40.958 236.048 40.854C235.519 40.7153 235.09 40.5767 234.761 40.438C234.432 40.2993 234.15 40.0957 233.916 39.827C233.691 39.5497 233.578 39.1813 233.578 38.722C233.578 38.3753 233.682 38.0547 233.89 37.76C234.098 37.4653 234.393 37.2313 234.774 37.058C235.155 36.8847 235.589 36.798 236.074 36.798C236.837 36.798 237.452 36.993 237.92 37.383C238.388 37.7643 238.639 38.293 238.674 38.969H237.764C237.738 38.553 237.573 38.2193 237.27 37.968C236.975 37.708 236.568 37.578 236.048 37.578C235.589 37.578 235.216 37.6863 234.93 37.903C234.644 38.1197 234.501 38.3883 234.501 38.709C234.501 38.9863 234.583 39.216 234.748 39.398C234.921 39.5713 235.134 39.71 235.385 39.814C235.636 39.9093 235.974 40.0177 236.399 40.139C236.91 40.2777 237.318 40.412 237.621 40.542C237.924 40.672 238.184 40.8627 238.401 41.114C238.618 41.3653 238.73 41.699 238.739 42.115C238.739 42.4963 238.635 42.8387 238.427 43.142C238.219 43.4367 237.929 43.6707 237.556 43.844C237.183 44.0173 236.754 44.104 236.269 44.104ZM246.601 36.902V44H245.691V42.752C245.483 43.194 245.162 43.532 244.729 43.766C244.296 44 243.81 44.117 243.273 44.117C242.424 44.117 241.73 43.857 241.193 43.337C240.656 42.8083 240.387 42.0457 240.387 41.049V36.902H241.284V40.945C241.284 41.7163 241.475 42.3057 241.856 42.713C242.246 43.1203 242.775 43.324 243.442 43.324C244.127 43.324 244.673 43.1073 245.08 42.674C245.487 42.2407 245.691 41.6037 245.691 40.763V36.902H246.601ZM249.576 38.462C249.801 37.9853 250.156 37.591 250.642 37.279C251.136 36.9583 251.721 36.798 252.397 36.798C253.038 36.798 253.614 36.9497 254.126 37.253C254.646 37.5477 255.049 37.9723 255.335 38.527C255.629 39.073 255.777 39.71 255.777 40.438C255.777 41.166 255.629 41.8073 255.335 42.362C255.049 42.9167 254.646 43.3457 254.126 43.649C253.614 43.9523 253.038 44.104 252.397 44.104C251.729 44.104 251.149 43.948 250.655 43.636C250.161 43.3153 249.801 42.9167 249.576 42.44V47.354H248.679V36.902H249.576V38.462ZM254.854 40.438C254.854 39.8487 254.737 39.3417 254.503 38.917C254.277 38.4837 253.965 38.1543 253.567 37.929C253.168 37.7037 252.717 37.591 252.215 37.591C251.729 37.591 251.283 37.708 250.876 37.942C250.477 38.176 250.161 38.5097 249.927 38.943C249.693 39.3763 249.576 39.879 249.576 40.451C249.576 41.023 249.693 41.5257 249.927 41.959C250.161 42.3923 250.477 42.726 250.876 42.96C251.283 43.194 251.729 43.311 252.215 43.311C252.717 43.311 253.168 43.1983 253.567 42.973C253.965 42.739 254.277 42.4053 254.503 41.972C254.737 41.53 254.854 41.0187 254.854 40.438ZM263.873 40.087C263.873 40.399 263.864 40.6373 263.847 40.802H257.958C257.984 41.3393 258.114 41.7987 258.348 42.18C258.582 42.5613 258.89 42.8517 259.271 43.051C259.652 43.2417 260.068 43.337 260.519 43.337C261.108 43.337 261.602 43.194 262.001 42.908C262.408 42.622 262.677 42.2363 262.807 41.751H263.769C263.596 42.4443 263.223 43.012 262.651 43.454C262.088 43.8873 261.377 44.104 260.519 44.104C259.852 44.104 259.254 43.9567 258.725 43.662C258.196 43.3587 257.78 42.934 257.477 42.388C257.182 41.8333 257.035 41.1877 257.035 40.451C257.035 39.7143 257.182 39.0687 257.477 38.514C257.772 37.9593 258.183 37.5347 258.712 37.24C259.241 36.9453 259.843 36.798 260.519 36.798C261.195 36.798 261.784 36.9453 262.287 37.24C262.798 37.5347 263.188 37.9333 263.457 38.436C263.734 38.93 263.873 39.4803 263.873 40.087ZM262.95 40.061C262.959 39.5323 262.85 39.0817 262.625 38.709C262.408 38.3363 262.109 38.0547 261.728 37.864C261.347 37.6733 260.931 37.578 260.48 37.578C259.804 37.578 259.228 37.7947 258.751 38.228C258.274 38.6613 258.01 39.2723 257.958 40.061H262.95ZM266.448 38.163C266.647 37.721 266.951 37.3787 267.358 37.136C267.774 36.8933 268.281 36.772 268.879 36.772V37.721H268.632C267.973 37.721 267.445 37.8987 267.046 38.254C266.647 38.6093 266.448 39.203 266.448 40.035V44H265.538V36.902H266.448V38.163ZM270.703 35.563C270.521 35.563 270.365 35.498 270.235 35.368C270.105 35.238 270.04 35.0777 270.04 34.887C270.04 34.6963 270.105 34.5403 270.235 34.419C270.365 34.289 270.521 34.224 270.703 34.224C270.885 34.224 271.041 34.289 271.171 34.419C271.301 34.5403 271.366 34.6963 271.366 34.887C271.366 35.0777 271.301 35.238 271.171 35.368C271.041 35.498 270.885 35.563 270.703 35.563ZM271.158 36.902V44H270.248V36.902H271.158ZM276.326 44.104C275.658 44.104 275.056 43.9567 274.519 43.662C273.99 43.3587 273.57 42.934 273.258 42.388C272.954 41.8333 272.803 41.1877 272.803 40.451C272.803 39.7143 272.959 39.073 273.271 38.527C273.583 37.9723 274.007 37.5477 274.545 37.253C275.082 36.9497 275.684 36.798 276.352 36.798C277.019 36.798 277.621 36.9497 278.159 37.253C278.705 37.5477 279.129 37.9723 279.433 38.527C279.745 39.073 279.901 39.7143 279.901 40.451C279.901 41.179 279.745 41.8203 279.433 42.375C279.121 42.9297 278.692 43.3587 278.146 43.662C277.6 43.9567 276.993 44.104 276.326 44.104ZM276.326 43.311C276.794 43.311 277.227 43.207 277.626 42.999C278.024 42.7823 278.345 42.4617 278.588 42.037C278.839 41.6037 278.965 41.075 278.965 40.451C278.965 39.827 278.843 39.3027 278.601 38.878C278.358 38.4447 278.037 38.124 277.639 37.916C277.24 37.6993 276.807 37.591 276.339 37.591C275.871 37.591 275.437 37.6993 275.039 37.916C274.64 38.124 274.319 38.4447 274.077 38.878C273.843 39.3027 273.726 39.827 273.726 40.451C273.726 41.075 273.843 41.6037 274.077 42.037C274.319 42.4617 274.636 42.7823 275.026 42.999C275.424 43.207 275.858 43.311 276.326 43.311ZM282.47 38.163C282.669 37.721 282.972 37.3787 283.38 37.136C283.796 36.8933 284.303 36.772 284.901 36.772V37.721H284.654C283.995 37.721 283.466 37.8987 283.068 38.254C282.669 38.6093 282.47 39.203 282.47 40.035V44H281.56V36.902H282.47V38.163ZM292.691 40.087C292.691 40.399 292.683 40.6373 292.665 40.802H286.776C286.802 41.3393 286.932 41.7987 287.166 42.18C287.4 42.5613 287.708 42.8517 288.089 43.051C288.471 43.2417 288.887 43.337 289.337 43.337C289.927 43.337 290.421 43.194 290.819 42.908C291.227 42.622 291.495 42.2363 291.625 41.751H292.587C292.414 42.4443 292.041 43.012 291.469 43.454C290.906 43.8873 290.195 44.104 289.337 44.104C288.67 44.104 288.072 43.9567 287.543 43.662C287.015 43.3587 286.599 42.934 286.295 42.388C286.001 41.8333 285.853 41.1877 285.853 40.451C285.853 39.7143 286.001 39.0687 286.295 38.514C286.59 37.9593 287.002 37.5347 287.53 37.24C288.059 36.9453 288.661 36.798 289.337 36.798C290.013 36.798 290.603 36.9453 291.105 37.24C291.617 37.5347 292.007 37.9333 292.275 38.436C292.553 38.93 292.691 39.4803 292.691 40.087ZM291.768 40.061C291.777 39.5323 291.669 39.0817 291.443 38.709C291.227 38.3363 290.928 38.0547 290.546 37.864C290.165 37.6733 289.749 37.578 289.298 37.578C288.622 37.578 288.046 37.7947 287.569 38.228C287.093 38.6613 286.828 39.2723 286.776 40.061H291.768ZM296.8 44.104C295.986 44.104 295.318 43.9177 294.798 43.545C294.287 43.1637 294.001 42.648 293.94 41.998H294.876C294.92 42.3967 295.106 42.7217 295.435 42.973C295.773 43.2157 296.224 43.337 296.787 43.337C297.281 43.337 297.667 43.22 297.944 42.986C298.23 42.752 298.373 42.4617 298.373 42.115C298.373 41.8723 298.295 41.673 298.139 41.517C297.983 41.361 297.784 41.2397 297.541 41.153C297.307 41.0577 296.987 40.958 296.579 40.854C296.051 40.7153 295.622 40.5767 295.292 40.438C294.963 40.2993 294.681 40.0957 294.447 39.827C294.222 39.5497 294.109 39.1813 294.109 38.722C294.109 38.3753 294.213 38.0547 294.421 37.76C294.629 37.4653 294.924 37.2313 295.305 37.058C295.687 36.8847 296.12 36.798 296.605 36.798C297.368 36.798 297.983 36.993 298.451 37.383C298.919 37.7643 299.171 38.293 299.205 38.969H298.295C298.269 38.553 298.105 38.2193 297.801 37.968C297.507 37.708 297.099 37.578 296.579 37.578C296.12 37.578 295.747 37.6863 295.461 37.903C295.175 38.1197 295.032 38.3883 295.032 38.709C295.032 38.9863 295.115 39.216 295.279 39.398C295.453 39.5713 295.665 39.71 295.916 39.814C296.168 39.9093 296.506 40.0177 296.93 40.139C297.442 40.2777 297.849 40.412 298.152 40.542C298.456 40.672 298.716 40.8627 298.932 41.114C299.149 41.3653 299.262 41.699 299.27 42.115C299.27 42.4963 299.166 42.8387 298.958 43.142C298.75 43.4367 298.46 43.6707 298.087 43.844C297.715 44.0173 297.286 44.104 296.8 44.104ZM304.135 40.438C304.135 39.71 304.278 39.073 304.564 38.527C304.858 37.9723 305.261 37.5477 305.773 37.253C306.293 36.9497 306.878 36.798 307.528 36.798C308.204 36.798 308.784 36.954 309.27 37.266C309.764 37.578 310.119 37.9767 310.336 38.462V36.902H311.246V44H310.336V42.427C310.11 42.9123 309.751 43.3153 309.257 43.636C308.771 43.948 308.191 44.104 307.515 44.104C306.873 44.104 306.293 43.9523 305.773 43.649C305.261 43.3457 304.858 42.9167 304.564 42.362C304.278 41.8073 304.135 41.166 304.135 40.438ZM310.336 40.451C310.336 39.879 310.219 39.3763 309.985 38.943C309.751 38.5097 309.43 38.176 309.023 37.942C308.624 37.708 308.182 37.591 307.697 37.591C307.194 37.591 306.743 37.7037 306.345 37.929C305.946 38.1543 305.63 38.4837 305.396 38.917C305.17 39.3417 305.058 39.8487 305.058 40.438C305.058 41.0187 305.17 41.53 305.396 41.972C305.63 42.4053 305.946 42.739 306.345 42.973C306.743 43.1983 307.194 43.311 307.697 43.311C308.182 43.311 308.624 43.194 309.023 42.96C309.43 42.726 309.751 42.3923 309.985 41.959C310.219 41.5257 310.336 41.023 310.336 40.451ZM322.507 41.608C322.507 42.0153 322.407 42.4053 322.208 42.778C322.008 43.142 321.709 43.4453 321.311 43.688C320.912 43.9307 320.427 44.065 319.855 44.091V45.131H319.283V44.078C318.511 44.0087 317.887 43.7573 317.411 43.324C316.934 42.882 316.678 42.336 316.644 41.686H317.619C317.653 42.076 317.809 42.4313 318.087 42.752C318.373 43.064 318.771 43.2547 319.283 43.324V39.723C318.702 39.567 318.234 39.411 317.879 39.255C317.532 39.099 317.237 38.8607 316.995 38.54C316.752 38.2107 316.631 37.773 316.631 37.227C316.631 36.5423 316.869 35.979 317.346 35.537C317.822 35.0863 318.468 34.8437 319.283 34.809V33.717H319.855V34.822C320.574 34.8913 321.15 35.1253 321.584 35.524C322.017 35.9227 322.273 36.421 322.351 37.019H321.389C321.337 36.6983 321.176 36.3993 320.908 36.122C320.648 35.8447 320.297 35.6713 319.855 35.602V39.073C320.418 39.2203 320.877 39.3763 321.233 39.541C321.597 39.697 321.9 39.9397 322.143 40.269C322.385 40.5983 322.507 41.0447 322.507 41.608ZM317.554 37.188C317.554 37.6733 317.701 38.0417 317.996 38.293C318.299 38.5357 318.728 38.7393 319.283 38.904V35.563C318.763 35.589 318.342 35.7407 318.022 36.018C317.71 36.2953 317.554 36.6853 317.554 37.188ZM319.855 43.35C320.409 43.3153 320.838 43.142 321.142 42.83C321.445 42.5093 321.597 42.115 321.597 41.647C321.597 41.153 321.445 40.7803 321.142 40.529C320.847 40.2777 320.418 40.0653 319.855 39.892V43.35ZM330.328 35.459H325.57V38.787C325.787 38.4837 326.103 38.2367 326.519 38.046C326.935 37.8467 327.386 37.747 327.871 37.747C328.582 37.747 329.163 37.8943 329.613 38.189C330.064 38.475 330.389 38.852 330.588 39.32C330.788 39.7793 330.887 40.2733 330.887 40.802C330.887 41.4087 330.77 41.959 330.536 42.453C330.311 42.9383 329.96 43.324 329.483 43.61C329.015 43.896 328.43 44.039 327.728 44.039C326.836 44.039 326.112 43.8093 325.557 43.35C325.003 42.882 324.665 42.2537 324.543 41.465H325.44C325.553 42.037 325.813 42.479 326.22 42.791C326.628 43.103 327.13 43.259 327.728 43.259C328.482 43.259 329.05 43.038 329.431 42.596C329.821 42.1453 330.016 41.5517 330.016 40.815C330.016 40.0957 329.821 39.5367 329.431 39.138C329.041 38.7307 328.482 38.527 327.754 38.527C327.252 38.527 326.81 38.644 326.428 38.878C326.047 39.112 325.765 39.4283 325.583 39.827H324.725V34.666H330.328V35.459ZM332.476 39.255C332.476 37.7643 332.706 36.6073 333.165 35.784C333.624 34.9607 334.448 34.549 335.635 34.549C336.822 34.549 337.646 34.9607 338.105 35.784C338.564 36.6073 338.794 37.7643 338.794 39.255C338.794 40.7717 338.564 41.946 338.105 42.778C337.646 43.61 336.822 44.026 335.635 44.026C334.439 44.026 333.611 43.61 333.152 42.778C332.701 41.946 332.476 40.7717 332.476 39.255ZM337.897 39.255C337.897 38.449 337.841 37.7687 337.728 37.214C337.615 36.6593 337.394 36.213 337.065 35.875C336.736 35.537 336.259 35.368 335.635 35.368C335.011 35.368 334.534 35.537 334.205 35.875C333.876 36.213 333.655 36.6593 333.542 37.214C333.429 37.7687 333.373 38.449 333.373 39.255C333.373 40.087 333.429 40.7847 333.542 41.348C333.655 41.9027 333.876 42.349 334.205 42.687C334.534 43.025 335.011 43.194 335.635 43.194C336.259 43.194 336.736 43.025 337.065 42.687C337.394 42.349 337.615 41.9027 337.728 41.348C337.841 40.7847 337.897 40.087 337.897 39.255ZM340.838 44.065C340.647 44.065 340.487 44 340.357 43.87C340.235 43.74 340.175 43.5797 340.175 43.389C340.175 43.1983 340.235 43.0423 340.357 42.921C340.487 42.791 340.647 42.726 340.838 42.726C341.02 42.726 341.171 42.791 341.293 42.921C341.423 43.0423 341.488 43.1983 341.488 43.389C341.488 43.5797 341.423 43.74 341.293 43.87C341.171 44 341.02 44.065 340.838 44.065ZM342.848 39.255C342.848 37.7643 343.078 36.6073 343.537 35.784C343.996 34.9607 344.82 34.549 346.007 34.549C347.194 34.549 348.018 34.9607 348.477 35.784C348.936 36.6073 349.166 37.7643 349.166 39.255C349.166 40.7717 348.936 41.946 348.477 42.778C348.018 43.61 347.194 44.026 346.007 44.026C344.811 44.026 343.983 43.61 343.524 42.778C343.073 41.946 342.848 40.7717 342.848 39.255ZM348.269 39.255C348.269 38.449 348.213 37.7687 348.1 37.214C347.987 36.6593 347.766 36.213 347.437 35.875C347.108 35.537 346.631 35.368 346.007 35.368C345.383 35.368 344.906 35.537 344.577 35.875C344.248 36.213 344.027 36.6593 343.914 37.214C343.801 37.7687 343.745 38.449 343.745 39.255C343.745 40.087 343.801 40.7847 343.914 41.348C344.027 41.9027 344.248 42.349 344.577 42.687C344.906 43.025 345.383 43.194 346.007 43.194C346.631 43.194 347.108 43.025 347.437 42.687C347.766 42.349 347.987 41.9027 348.1 41.348C348.213 40.7847 348.269 40.087 348.269 39.255ZM350.859 39.255C350.859 37.7643 351.088 36.6073 351.548 35.784C352.007 34.9607 352.83 34.549 354.018 34.549C355.205 34.549 356.028 34.9607 356.488 35.784C356.947 36.6073 357.177 37.7643 357.177 39.255C357.177 40.7717 356.947 41.946 356.488 42.778C356.028 43.61 355.205 44.026 354.018 44.026C352.822 44.026 351.994 43.61 351.535 42.778C351.084 41.946 350.859 40.7717 350.859 39.255ZM356.28 39.255C356.28 38.449 356.223 37.7687 356.111 37.214C355.998 36.6593 355.777 36.213 355.448 35.875C355.118 35.537 354.642 35.368 354.018 35.368C353.394 35.368 352.917 35.537 352.588 35.875C352.258 36.213 352.037 36.6593 351.925 37.214C351.812 37.7687 351.756 38.449 351.756 39.255C351.756 40.087 351.812 40.7847 351.925 41.348C352.037 41.9027 352.258 42.349 352.588 42.687C352.917 43.025 353.394 43.194 354.018 43.194C354.642 43.194 355.118 43.025 355.448 42.687C355.777 42.349 355.998 41.9027 356.111 41.348C356.223 40.7847 356.28 40.087 356.28 39.255ZM358.869 39.255C358.869 37.7643 359.099 36.6073 359.558 35.784C360.018 34.9607 360.841 34.549 362.028 34.549C363.216 34.549 364.039 34.9607 364.498 35.784C364.958 36.6073 365.187 37.7643 365.187 39.255C365.187 40.7717 364.958 41.946 364.498 42.778C364.039 43.61 363.216 44.026 362.028 44.026C360.832 44.026 360.005 43.61 359.545 42.778C359.095 41.946 358.869 40.7717 358.869 39.255ZM364.29 39.255C364.29 38.449 364.234 37.7687 364.121 37.214C364.009 36.6593 363.788 36.213 363.458 35.875C363.129 35.537 362.652 35.368 362.028 35.368C361.404 35.368 360.928 35.537 360.598 35.875C360.269 36.213 360.048 36.6593 359.935 37.214C359.823 37.7687 359.766 38.449 359.766 39.255C359.766 40.087 359.823 40.7847 359.935 41.348C360.048 41.9027 360.269 42.349 360.598 42.687C360.928 43.025 361.404 43.194 362.028 43.194C362.652 43.194 363.129 43.025 363.458 42.687C363.788 42.349 364.009 41.9027 364.121 41.348C364.234 40.7847 364.29 40.087 364.29 39.255ZM111.147 63.104C110.48 63.104 109.877 62.9567 109.34 62.662C108.811 62.3587 108.391 61.934 108.079 61.388C107.776 60.8333 107.624 60.1877 107.624 59.451C107.624 58.7143 107.78 58.073 108.092 57.527C108.404 56.9723 108.829 56.5477 109.366 56.253C109.903 55.9497 110.506 55.798 111.173 55.798C111.84 55.798 112.443 55.9497 112.98 56.253C113.526 56.5477 113.951 56.9723 114.254 57.527C114.566 58.073 114.722 58.7143 114.722 59.451C114.722 60.179 114.566 60.8203 114.254 61.375C113.942 61.9297 113.513 62.3587 112.967 62.662C112.421 62.9567 111.814 63.104 111.147 63.104ZM111.147 62.311C111.615 62.311 112.048 62.207 112.447 61.999C112.846 61.7823 113.166 61.4617 113.409 61.037C113.66 60.6037 113.786 60.075 113.786 59.451C113.786 58.827 113.665 58.3027 113.422 57.878C113.179 57.4447 112.859 57.124 112.46 56.916C112.061 56.6993 111.628 56.591 111.16 56.591C110.692 56.591 110.259 56.6993 109.86 56.916C109.461 57.124 109.141 57.4447 108.898 57.878C108.664 58.3027 108.547 58.827 108.547 59.451C108.547 60.075 108.664 60.6037 108.898 61.037C109.141 61.4617 109.457 61.7823 109.847 61.999C110.246 62.207 110.679 62.311 111.147 62.311ZM120.858 57.163C121.058 56.721 121.361 56.3787 121.768 56.136C122.184 55.8933 122.691 55.772 123.289 55.772V56.721H123.042C122.384 56.721 121.855 56.8987 121.456 57.254C121.058 57.6093 120.858 58.203 120.858 59.035V63H119.948V55.902H120.858V57.163ZM131.08 59.087C131.08 59.399 131.071 59.6373 131.054 59.802H125.165C125.191 60.3393 125.321 60.7987 125.555 61.18C125.789 61.5613 126.097 61.8517 126.478 62.051C126.859 62.2417 127.275 62.337 127.726 62.337C128.315 62.337 128.809 62.194 129.208 61.908C129.615 61.622 129.884 61.2363 130.014 60.751H130.976C130.803 61.4443 130.43 62.012 129.858 62.454C129.295 62.8873 128.584 63.104 127.726 63.104C127.059 63.104 126.461 62.9567 125.932 62.662C125.403 62.3587 124.987 61.934 124.684 61.388C124.389 60.8333 124.242 60.1877 124.242 59.451C124.242 58.7143 124.389 58.0687 124.684 57.514C124.979 56.9593 125.39 56.5347 125.919 56.24C126.448 55.9453 127.05 55.798 127.726 55.798C128.402 55.798 128.991 55.9453 129.494 56.24C130.005 56.5347 130.395 56.9333 130.664 57.436C130.941 57.93 131.08 58.4803 131.08 59.087ZM130.157 59.061C130.166 58.5323 130.057 58.0817 129.832 57.709C129.615 57.3363 129.316 57.0547 128.935 56.864C128.554 56.6733 128.138 56.578 127.687 56.578C127.011 56.578 126.435 56.7947 125.958 57.228C125.481 57.6613 125.217 58.2723 125.165 59.061H130.157ZM133.928 56.669V61.076C133.928 61.5093 134.01 61.8083 134.175 61.973C134.34 62.1377 134.63 62.22 135.046 62.22H135.878V63H134.903C134.262 63 133.785 62.8527 133.473 62.558C133.161 62.2547 133.005 61.7607 133.005 61.076V56.669H132.017V55.902H133.005V54.121H133.928V55.902H135.878V56.669H133.928ZM137.834 54.563C137.652 54.563 137.496 54.498 137.366 54.368C137.236 54.238 137.171 54.0777 137.171 53.887C137.171 53.6963 137.236 53.5403 137.366 53.419C137.496 53.289 137.652 53.224 137.834 53.224C138.016 53.224 138.172 53.289 138.302 53.419C138.432 53.5403 138.497 53.6963 138.497 53.887C138.497 54.0777 138.432 54.238 138.302 54.368C138.172 54.498 138.016 54.563 137.834 54.563ZM138.289 55.902V63H137.379V55.902H138.289ZM141.26 57.163C141.459 56.721 141.762 56.3787 142.17 56.136C142.586 55.8933 143.093 55.772 143.691 55.772V56.721H143.444C142.785 56.721 142.256 56.8987 141.858 57.254C141.459 57.6093 141.26 58.203 141.26 59.035V63H140.35V55.902H141.26V57.163ZM144.644 59.438C144.644 58.71 144.787 58.073 145.073 57.527C145.367 56.9723 145.77 56.5477 146.282 56.253C146.802 55.9497 147.387 55.798 148.037 55.798C148.713 55.798 149.293 55.954 149.779 56.266C150.273 56.578 150.628 56.9767 150.845 57.462V55.902H151.755V63H150.845V61.427C150.619 61.9123 150.26 62.3153 149.766 62.636C149.28 62.948 148.7 63.104 148.024 63.104C147.382 63.104 146.802 62.9523 146.282 62.649C145.77 62.3457 145.367 61.9167 145.073 61.362C144.787 60.8073 144.644 60.166 144.644 59.438ZM150.845 59.451C150.845 58.879 150.728 58.3763 150.494 57.943C150.26 57.5097 149.939 57.176 149.532 56.942C149.133 56.708 148.691 56.591 148.206 56.591C147.703 56.591 147.252 56.7037 146.854 56.929C146.455 57.1543 146.139 57.4837 145.905 57.917C145.679 58.3417 145.567 58.8487 145.567 59.438C145.567 60.0187 145.679 60.53 145.905 60.972C146.139 61.4053 146.455 61.739 146.854 61.973C147.252 62.1983 147.703 62.311 148.206 62.311C148.691 62.311 149.133 62.194 149.532 61.96C149.939 61.726 150.26 61.3923 150.494 60.959C150.728 60.5257 150.845 60.023 150.845 59.451ZM149.623 53.809L146.958 55.356V54.654L149.623 52.99V53.809ZM163.821 59.087C163.821 59.399 163.813 59.6373 163.795 59.802H157.906C157.932 60.3393 158.062 60.7987 158.296 61.18C158.53 61.5613 158.838 61.8517 159.219 62.051C159.601 62.2417 160.017 62.337 160.467 62.337C161.057 62.337 161.551 62.194 161.949 61.908C162.357 61.622 162.625 61.2363 162.755 60.751H163.717C163.544 61.4443 163.171 62.012 162.599 62.454C162.036 62.8873 161.325 63.104 160.467 63.104C159.8 63.104 159.202 62.9567 158.673 62.662C158.145 62.3587 157.729 61.934 157.425 61.388C157.131 60.8333 156.983 60.1877 156.983 59.451C156.983 58.7143 157.131 58.0687 157.425 57.514C157.72 56.9593 158.132 56.5347 158.66 56.24C159.189 55.9453 159.791 55.798 160.467 55.798C161.143 55.798 161.733 55.9453 162.235 56.24C162.747 56.5347 163.137 56.9333 163.405 57.436C163.683 57.93 163.821 58.4803 163.821 59.087ZM162.898 59.061C162.907 58.5323 162.799 58.0817 162.573 57.709C162.357 57.3363 162.058 57.0547 161.676 56.864C161.295 56.6733 160.879 56.578 160.428 56.578C159.752 56.578 159.176 56.7947 158.699 57.228C158.223 57.6613 157.958 58.2723 157.906 59.061H162.898ZM168.814 55.772C169.664 55.772 170.357 56.0363 170.894 56.565C171.432 57.085 171.7 57.8433 171.7 58.84V63H170.803V58.944C170.803 58.1727 170.608 57.5833 170.218 57.176C169.837 56.7687 169.313 56.565 168.645 56.565C167.961 56.565 167.415 56.7817 167.007 57.215C166.6 57.6483 166.396 58.2853 166.396 59.126V63H165.486V55.902H166.396V57.111C166.622 56.6777 166.947 56.3483 167.371 56.123C167.796 55.889 168.277 55.772 168.814 55.772ZM178.177 57.462C178.403 56.9853 178.758 56.591 179.243 56.279C179.737 55.9583 180.322 55.798 180.998 55.798C181.64 55.798 182.216 55.9497 182.727 56.253C183.247 56.5477 183.65 56.9723 183.936 57.527C184.231 58.073 184.378 58.71 184.378 59.438C184.378 60.166 184.231 60.8073 183.936 61.362C183.65 61.9167 183.247 62.3457 182.727 62.649C182.216 62.9523 181.64 63.104 180.998 63.104C180.331 63.104 179.75 62.948 179.256 62.636C178.762 62.3153 178.403 61.9167 178.177 61.44V66.354H177.28V55.902H178.177V57.462ZM183.455 59.438C183.455 58.8487 183.338 58.3417 183.104 57.917C182.879 57.4837 182.567 57.1543 182.168 56.929C181.77 56.7037 181.319 56.591 180.816 56.591C180.331 56.591 179.885 56.708 179.477 56.942C179.079 57.176 178.762 57.5097 178.528 57.943C178.294 58.3763 178.177 58.879 178.177 59.451C178.177 60.023 178.294 60.5257 178.528 60.959C178.762 61.3923 179.079 61.726 179.477 61.96C179.885 62.194 180.331 62.311 180.816 62.311C181.319 62.311 181.77 62.1983 182.168 61.973C182.567 61.739 182.879 61.4053 183.104 60.972C183.338 60.53 183.455 60.0187 183.455 59.438ZM192.202 55.902V63H191.292V61.752C191.084 62.194 190.763 62.532 190.33 62.766C189.896 63 189.411 63.117 188.874 63.117C188.024 63.117 187.331 62.857 186.794 62.337C186.256 61.8083 185.988 61.0457 185.988 60.049V55.902H186.885V59.945C186.885 60.7163 187.075 61.3057 187.457 61.713C187.847 62.1203 188.375 62.324 189.043 62.324C189.727 62.324 190.273 62.1073 190.681 61.674C191.088 61.2407 191.292 60.6037 191.292 59.763V55.902H192.202ZM197.607 55.772C198.457 55.772 199.15 56.0363 199.687 56.565C200.225 57.085 200.493 57.8433 200.493 58.84V63H199.596V58.944C199.596 58.1727 199.401 57.5833 199.011 57.176C198.63 56.7687 198.106 56.565 197.438 56.565C196.754 56.565 196.208 56.7817 195.8 57.215C195.393 57.6483 195.189 58.2853 195.189 59.126V63H194.279V55.902H195.189V57.111C195.415 56.6777 195.74 56.3483 196.164 56.123C196.589 55.889 197.07 55.772 197.607 55.772ZM203.689 56.669V61.076C203.689 61.5093 203.771 61.8083 203.936 61.973C204.1 62.1377 204.391 62.22 204.807 62.22H205.639V63H204.664C204.022 63 203.546 62.8527 203.234 62.558C202.922 62.2547 202.766 61.7607 202.766 61.076V56.669H201.778V55.902H202.766V54.121H203.689V55.902H205.639V56.669H203.689ZM210.247 63.104C209.579 63.104 208.977 62.9567 208.44 62.662C207.911 62.3587 207.491 61.934 207.179 61.388C206.875 60.8333 206.724 60.1877 206.724 59.451C206.724 58.7143 206.88 58.073 207.192 57.527C207.504 56.9723 207.928 56.5477 208.466 56.253C209.003 55.9497 209.605 55.798 210.273 55.798C210.94 55.798 211.542 55.9497 212.08 56.253C212.626 56.5477 213.05 56.9723 213.354 57.527C213.666 58.073 213.822 58.7143 213.822 59.451C213.822 60.179 213.666 60.8203 213.354 61.375C213.042 61.9297 212.613 62.3587 212.067 62.662C211.521 62.9567 210.914 63.104 210.247 63.104ZM210.247 62.311C210.715 62.311 211.148 62.207 211.547 61.999C211.945 61.7823 212.266 61.4617 212.509 61.037C212.76 60.6037 212.886 60.075 212.886 59.451C212.886 58.827 212.764 58.3027 212.522 57.878C212.279 57.4447 211.958 57.124 211.56 56.916C211.161 56.6993 210.728 56.591 210.26 56.591C209.792 56.591 209.358 56.6993 208.96 56.916C208.561 57.124 208.24 57.4447 207.998 57.878C207.764 58.3027 207.647 58.827 207.647 59.451C207.647 60.075 207.764 60.6037 207.998 61.037C208.24 61.4617 208.557 61.7823 208.947 61.999C209.345 62.207 209.779 62.311 210.247 62.311ZM217.924 63.104C217.11 63.104 216.442 62.9177 215.922 62.545C215.411 62.1637 215.125 61.648 215.064 60.998H216C216.044 61.3967 216.23 61.7217 216.559 61.973C216.897 62.2157 217.348 62.337 217.911 62.337C218.405 62.337 218.791 62.22 219.068 61.986C219.354 61.752 219.497 61.4617 219.497 61.115C219.497 60.8723 219.419 60.673 219.263 60.517C219.107 60.361 218.908 60.2397 218.665 60.153C218.431 60.0577 218.111 59.958 217.703 59.854C217.175 59.7153 216.746 59.5767 216.416 59.438C216.087 59.2993 215.805 59.0957 215.571 58.827C215.346 58.5497 215.233 58.1813 215.233 57.722C215.233 57.3753 215.337 57.0547 215.545 56.76C215.753 56.4653 216.048 56.2313 216.429 56.058C216.811 55.8847 217.244 55.798 217.729 55.798C218.492 55.798 219.107 55.993 219.575 56.383C220.043 56.7643 220.295 57.293 220.329 57.969H219.419C219.393 57.553 219.229 57.2193 218.925 56.968C218.631 56.708 218.223 56.578 217.703 56.578C217.244 56.578 216.871 56.6863 216.585 56.903C216.299 57.1197 216.156 57.3883 216.156 57.709C216.156 57.9863 216.239 58.216 216.403 58.398C216.577 58.5713 216.789 58.71 217.04 58.814C217.292 58.9093 217.63 59.0177 218.054 59.139C218.566 59.2777 218.973 59.412 219.276 59.542C219.58 59.672 219.84 59.8627 220.056 60.114C220.273 60.3653 220.386 60.699 220.394 61.115C220.394 61.4963 220.29 61.8387 220.082 62.142C219.874 62.4367 219.584 62.6707 219.211 62.844C218.839 63.0173 218.41 63.104 217.924 63.104ZM226.572 57.462C226.797 56.9853 227.152 56.591 227.638 56.279C228.132 55.9583 228.717 55.798 229.393 55.798C230.034 55.798 230.61 55.9497 231.122 56.253C231.642 56.5477 232.045 56.9723 232.331 57.527C232.625 58.073 232.773 58.71 232.773 59.438C232.773 60.166 232.625 60.8073 232.331 61.362C232.045 61.9167 231.642 62.3457 231.122 62.649C230.61 62.9523 230.034 63.104 229.393 63.104C228.725 63.104 228.145 62.948 227.651 62.636C227.157 62.3153 226.797 61.9167 226.572 61.44V66.354H225.675V55.902H226.572V57.462ZM231.85 59.438C231.85 58.8487 231.733 58.3417 231.499 57.917C231.273 57.4837 230.961 57.1543 230.563 56.929C230.164 56.7037 229.713 56.591 229.211 56.591C228.725 56.591 228.279 56.708 227.872 56.942C227.473 57.176 227.157 57.5097 226.923 57.943C226.689 58.3763 226.572 58.879 226.572 59.451C226.572 60.023 226.689 60.5257 226.923 60.959C227.157 61.3923 227.473 61.726 227.872 61.96C228.279 62.194 228.725 62.311 229.211 62.311C229.713 62.311 230.164 62.1983 230.563 61.973C230.961 61.739 231.273 61.4053 231.499 60.972C231.733 60.53 231.85 60.0187 231.85 59.438ZM234.902 54.563C234.72 54.563 234.564 54.498 234.434 54.368C234.304 54.238 234.239 54.0777 234.239 53.887C234.239 53.6963 234.304 53.5403 234.434 53.419C234.564 53.289 234.72 53.224 234.902 53.224C235.084 53.224 235.24 53.289 235.37 53.419C235.5 53.5403 235.565 53.6963 235.565 53.887C235.565 54.0777 235.5 54.238 235.37 54.368C235.24 54.498 235.084 54.563 234.902 54.563ZM235.357 55.902V63H234.447V55.902H235.357ZM237.002 59.451C237.002 58.7143 237.149 58.073 237.444 57.527C237.739 56.9723 238.146 56.5477 238.666 56.253C239.186 55.9497 239.78 55.798 240.447 55.798C241.322 55.798 242.042 56.0147 242.605 56.448C243.177 56.8813 243.545 57.4707 243.71 58.216H242.735C242.614 57.7047 242.349 57.306 241.942 57.02C241.543 56.7253 241.045 56.578 240.447 56.578C239.97 56.578 239.541 56.6863 239.16 56.903C238.779 57.1197 238.475 57.4447 238.25 57.878C238.033 58.3027 237.925 58.827 237.925 59.451C237.925 60.075 238.033 60.6037 238.25 61.037C238.475 61.4703 238.779 61.7953 239.16 62.012C239.541 62.2287 239.97 62.337 240.447 62.337C241.045 62.337 241.543 62.194 241.942 61.908C242.349 61.6133 242.614 61.206 242.735 60.686H243.71C243.545 61.414 243.177 61.999 242.605 62.441C242.033 62.883 241.314 63.104 240.447 63.104C239.78 63.104 239.186 62.9567 238.666 62.662C238.146 62.3587 237.739 61.934 237.444 61.388C237.149 60.8333 237.002 60.1877 237.002 59.451ZM249.226 63L246.301 59.815V63H245.391V53.38H246.301V59.074L249.161 55.902H250.435L247.068 59.438L250.461 63H249.226ZM261.353 55.902V63H260.443V61.752C260.235 62.194 259.914 62.532 259.481 62.766C259.048 63 258.562 63.117 258.025 63.117C257.176 63.117 256.482 62.857 255.945 62.337C255.408 61.8083 255.139 61.0457 255.139 60.049V55.902H256.036V59.945C256.036 60.7163 256.227 61.3057 256.608 61.713C256.998 62.1203 257.527 62.324 258.194 62.324C258.879 62.324 259.425 62.1073 259.832 61.674C260.239 61.2407 260.443 60.6037 260.443 59.763V55.902H261.353ZM264.328 57.462C264.553 56.9853 264.908 56.591 265.394 56.279C265.888 55.9583 266.473 55.798 267.149 55.798C267.79 55.798 268.366 55.9497 268.878 56.253C269.398 56.5477 269.801 56.9723 270.087 57.527C270.381 58.073 270.529 58.71 270.529 59.438C270.529 60.166 270.381 60.8073 270.087 61.362C269.801 61.9167 269.398 62.3457 268.878 62.649C268.366 62.9523 267.79 63.104 267.149 63.104C266.481 63.104 265.901 62.948 265.407 62.636C264.913 62.3153 264.553 61.9167 264.328 61.44V66.354H263.431V55.902H264.328V57.462ZM269.606 59.438C269.606 58.8487 269.489 58.3417 269.255 57.917C269.029 57.4837 268.717 57.1543 268.319 56.929C267.92 56.7037 267.469 56.591 266.967 56.591C266.481 56.591 266.035 56.708 265.628 56.942C265.229 57.176 264.913 57.5097 264.679 57.943C264.445 58.3763 264.328 58.879 264.328 59.451C264.328 60.023 264.445 60.5257 264.679 60.959C264.913 61.3923 265.229 61.726 265.628 61.96C266.035 62.194 266.481 62.311 266.967 62.311C267.469 62.311 267.92 62.1983 268.319 61.973C268.717 61.739 269.029 61.4053 269.255 60.972C269.489 60.53 269.606 60.0187 269.606 59.438ZM278.214 63.104C277.4 63.104 276.732 62.9177 276.212 62.545C275.701 62.1637 275.415 61.648 275.354 60.998H276.29C276.334 61.3967 276.52 61.7217 276.849 61.973C277.187 62.2157 277.638 62.337 278.201 62.337C278.695 62.337 279.081 62.22 279.358 61.986C279.644 61.752 279.787 61.4617 279.787 61.115C279.787 60.8723 279.709 60.673 279.553 60.517C279.397 60.361 279.198 60.2397 278.955 60.153C278.721 60.0577 278.401 59.958 277.993 59.854C277.465 59.7153 277.036 59.5767 276.706 59.438C276.377 59.2993 276.095 59.0957 275.861 58.827C275.636 58.5497 275.523 58.1813 275.523 57.722C275.523 57.3753 275.627 57.0547 275.835 56.76C276.043 56.4653 276.338 56.2313 276.719 56.058C277.101 55.8847 277.534 55.798 278.019 55.798C278.782 55.798 279.397 55.993 279.865 56.383C280.333 56.7643 280.585 57.293 280.619 57.969H279.709C279.683 57.553 279.519 57.2193 279.215 56.968C278.921 56.708 278.513 56.578 277.993 56.578C277.534 56.578 277.161 56.6863 276.875 56.903C276.589 57.1197 276.446 57.3883 276.446 57.709C276.446 57.9863 276.529 58.216 276.693 58.398C276.867 58.5713 277.079 58.71 277.33 58.814C277.582 58.9093 277.92 59.0177 278.344 59.139C278.856 59.2777 279.263 59.412 279.566 59.542C279.87 59.672 280.13 59.8627 280.346 60.114C280.563 60.3653 280.676 60.699 280.684 61.115C280.684 61.4963 280.58 61.8387 280.372 62.142C280.164 62.4367 279.874 62.6707 279.501 62.844C279.129 63.0173 278.7 63.104 278.214 63.104ZM282.852 54.563C282.67 54.563 282.514 54.498 282.384 54.368C282.254 54.238 282.189 54.0777 282.189 53.887C282.189 53.6963 282.254 53.5403 282.384 53.419C282.514 53.289 282.67 53.224 282.852 53.224C283.034 53.224 283.19 53.289 283.32 53.419C283.45 53.5403 283.515 53.6963 283.515 53.887C283.515 54.0777 283.45 54.238 283.32 54.368C283.19 54.498 283.034 54.563 282.852 54.563ZM283.307 55.902V63H282.397V55.902H283.307ZM288.696 55.772C289.545 55.772 290.239 56.0363 290.776 56.565C291.313 57.085 291.582 57.8433 291.582 58.84V63H290.685V58.944C290.685 58.1727 290.49 57.5833 290.1 57.176C289.719 56.7687 289.194 56.565 288.527 56.565C287.842 56.565 287.296 56.7817 286.889 57.215C286.482 57.6483 286.278 58.2853 286.278 59.126V63H285.368V55.902H286.278V57.111C286.503 56.6777 286.828 56.3483 287.253 56.123C287.678 55.889 288.159 55.772 288.696 55.772ZM296.746 59.451C296.746 58.7143 296.893 58.073 297.188 57.527C297.483 56.9723 297.89 56.5477 298.41 56.253C298.93 55.9497 299.524 55.798 300.191 55.798C301.066 55.798 301.786 56.0147 302.349 56.448C302.921 56.8813 303.289 57.4707 303.454 58.216H302.479C302.358 57.7047 302.093 57.306 301.686 57.02C301.287 56.7253 300.789 56.578 300.191 56.578C299.714 56.578 299.285 56.6863 298.904 56.903C298.523 57.1197 298.219 57.4447 297.994 57.878C297.777 58.3027 297.669 58.827 297.669 59.451C297.669 60.075 297.777 60.6037 297.994 61.037C298.219 61.4703 298.523 61.7953 298.904 62.012C299.285 62.2287 299.714 62.337 300.191 62.337C300.789 62.337 301.287 62.194 301.686 61.908C302.093 61.6133 302.358 61.206 302.479 60.686H303.454C303.289 61.414 302.921 61.999 302.349 62.441C301.777 62.883 301.058 63.104 300.191 63.104C299.524 63.104 298.93 62.9567 298.41 62.662C297.89 62.3587 297.483 61.934 297.188 61.388C296.893 60.8333 296.746 60.1877 296.746 59.451ZM304.719 59.438C304.719 58.71 304.862 58.073 305.148 57.527C305.442 56.9723 305.845 56.5477 306.357 56.253C306.877 55.9497 307.462 55.798 308.112 55.798C308.788 55.798 309.368 55.954 309.854 56.266C310.348 56.578 310.703 56.9767 310.92 57.462V55.902H311.83V63H310.92V61.427C310.694 61.9123 310.335 62.3153 309.841 62.636C309.355 62.948 308.775 63.104 308.099 63.104C307.457 63.104 306.877 62.9523 306.357 62.649C305.845 62.3457 305.442 61.9167 305.148 61.362C304.862 60.8073 304.719 60.166 304.719 59.438ZM310.92 59.451C310.92 58.879 310.803 58.3763 310.569 57.943C310.335 57.5097 310.014 57.176 309.607 56.942C309.208 56.708 308.766 56.591 308.281 56.591C307.778 56.591 307.327 56.7037 306.929 56.929C306.53 57.1543 306.214 57.4837 305.98 57.917C305.754 58.3417 305.642 58.8487 305.642 59.438C305.642 60.0187 305.754 60.53 305.98 60.972C306.214 61.4053 306.53 61.739 306.929 61.973C307.327 62.1983 307.778 62.311 308.281 62.311C308.766 62.311 309.208 62.194 309.607 61.96C310.014 61.726 310.335 61.3923 310.569 60.959C310.803 60.5257 310.92 60.023 310.92 59.451ZM314.817 57.163C315.017 56.721 315.32 56.3787 315.727 56.136C316.143 55.8933 316.65 55.772 317.248 55.772V56.721H317.001C316.343 56.721 315.814 56.8987 315.415 57.254C315.017 57.6093 314.817 58.203 314.817 59.035V63H313.907V55.902H314.817V57.163ZM321.594 55.798C322.261 55.798 322.842 55.954 323.336 56.266C323.83 56.578 324.185 56.9723 324.402 57.449V55.902H325.312V63.182C325.312 63.832 325.169 64.4083 324.883 64.911C324.606 65.4137 324.216 65.7993 323.713 66.068C323.21 66.3453 322.638 66.484 321.997 66.484C321.087 66.484 320.329 66.2673 319.722 65.834C319.124 65.4007 318.751 64.8113 318.604 64.066H319.501C319.657 64.56 319.952 64.9543 320.385 65.249C320.827 65.5437 321.364 65.691 321.997 65.691C322.456 65.691 322.868 65.5913 323.232 65.392C323.596 65.2013 323.882 64.9153 324.09 64.534C324.298 64.1527 324.402 63.702 324.402 63.182V61.427C324.177 61.9123 323.817 62.3153 323.323 62.636C322.838 62.948 322.261 63.104 321.594 63.104C320.944 63.104 320.359 62.9523 319.839 62.649C319.328 62.3457 318.925 61.9167 318.63 61.362C318.344 60.8073 318.201 60.166 318.201 59.438C318.201 58.71 318.344 58.073 318.63 57.527C318.925 56.9723 319.328 56.5477 319.839 56.253C320.359 55.9497 320.944 55.798 321.594 55.798ZM324.402 59.451C324.402 58.879 324.285 58.3763 324.051 57.943C323.817 57.5097 323.496 57.176 323.089 56.942C322.69 56.708 322.248 56.591 321.763 56.591C321.26 56.591 320.81 56.7037 320.411 56.929C320.012 57.1543 319.696 57.4837 319.462 57.917C319.237 58.3417 319.124 58.8487 319.124 59.438C319.124 60.0187 319.237 60.53 319.462 60.972C319.696 61.4053 320.012 61.739 320.411 61.973C320.81 62.1983 321.26 62.311 321.763 62.311C322.248 62.311 322.69 62.194 323.089 61.96C323.496 61.726 323.817 61.3923 324.051 60.959C324.285 60.5257 324.402 60.023 324.402 59.451ZM330.497 63.104C329.829 63.104 329.227 62.9567 328.69 62.662C328.161 62.3587 327.741 61.934 327.429 61.388C327.125 60.8333 326.974 60.1877 326.974 59.451C326.974 58.7143 327.13 58.073 327.442 57.527C327.754 56.9723 328.178 56.5477 328.716 56.253C329.253 55.9497 329.855 55.798 330.523 55.798C331.19 55.798 331.792 55.9497 332.33 56.253C332.876 56.5477 333.3 56.9723 333.604 57.527C333.916 58.073 334.072 58.7143 334.072 59.451C334.072 60.179 333.916 60.8203 333.604 61.375C333.292 61.9297 332.863 62.3587 332.317 62.662C331.771 62.9567 331.164 63.104 330.497 63.104ZM330.497 62.311C330.965 62.311 331.398 62.207 331.797 61.999C332.195 61.7823 332.516 61.4617 332.759 61.037C333.01 60.6037 333.136 60.075 333.136 59.451C333.136 58.827 333.014 58.3027 332.772 57.878C332.529 57.4447 332.208 57.124 331.81 56.916C331.411 56.6993 330.978 56.591 330.51 56.591C330.042 56.591 329.608 56.6993 329.21 56.916C328.811 57.124 328.49 57.4447 328.248 57.878C328.014 58.3027 327.897 58.827 327.897 59.451C327.897 60.075 328.014 60.6037 328.248 61.037C328.49 61.4617 328.807 61.7823 329.197 61.999C329.595 62.207 330.029 62.311 330.497 62.311Z" fill="black"/>
<defs>
<clipPath id="clip0_1_165">
<rect width="76" height="76" fill="white" transform="translate(5 3)"/>
</clipPath>
</defs>
</svg>
