<svg width="400" height="81" viewBox="0 0 400 81" fill="none" xmlns="http://www.w3.org/2000/svg">
<path d="M60.6214 56.1607H28.0986C26.4476 56.1607 25.1241 54.8241 25.1241 53.1862V22.1179C25.1241 20.4669 26.4607 19.1434 28.0986 19.1434H77.8655C79.5166 19.1434 80.84 20.48 80.84 22.1179V36.0207" stroke="#E9A5B2" stroke-width="2" stroke-linecap="round" stroke-linejoin="round"/>
<path d="M25.491 28.6827H80.84" stroke="#E9A5B2" stroke-width="2" stroke-miterlimit="10"/>
<path d="M34.3228 36.0207H53.9124" stroke="#E9A5B2" stroke-width="2" stroke-linecap="round" stroke-linejoin="round"/>
<path d="M34.3228 41.5504H53.9124" stroke="#E9A5B2" stroke-width="2" stroke-linecap="round" stroke-linejoin="round"/>
<path d="M34.3228 47.0145H43.22" stroke="#E9A5B2" stroke-width="2" stroke-linecap="round" stroke-linejoin="round"/>
<path d="M83.5917 49.3338H65.8234C65.1142 49.3338 64.5393 49.9087 64.5393 50.6179V61.5855C64.5393 62.2947 65.1142 62.8697 65.8234 62.8697H83.5917C84.3009 62.8697 84.8759 62.2947 84.8759 61.5855V50.6179C84.8759 49.9087 84.3009 49.3338 83.5917 49.3338Z" stroke="#E9A5B2" stroke-width="2" stroke-linecap="round" stroke-linejoin="round"/>
<path d="M72.0869 37.8552H76.8959C79.0841 37.8552 80.8531 39.6241 80.8531 41.8124V49.3338H68.1428V41.8124C68.1428 39.6241 69.9117 37.8552 72.1 37.8552H72.0869Z" stroke="#E9A5B2" stroke-width="2" stroke-linecap="round" stroke-linejoin="round"/>
<path d="M117.912 13.88V25H116.088V17.384L112.696 25H111.432L108.024 17.384V25H106.2V13.88H108.168L112.072 22.6L115.96 13.88H117.912ZM122.133 15.352V18.616H125.973V20.104H122.133V23.512H126.453V25H120.309V13.864H126.453V15.352H122.133ZM132.332 13.88C133.516 13.88 134.551 14.1093 135.436 14.568C136.332 15.016 137.02 15.6667 137.5 16.52C137.991 17.3627 138.236 18.3493 138.236 19.48C138.236 20.6107 137.991 21.592 137.5 22.424C137.02 23.256 136.332 23.896 135.436 24.344C134.551 24.7813 133.516 25 132.332 25H128.7V13.88H132.332ZM132.332 23.512C133.633 23.512 134.631 23.16 135.324 22.456C136.017 21.752 136.364 20.76 136.364 19.48C136.364 18.1893 136.017 17.1813 135.324 16.456C134.631 15.7307 133.633 15.368 132.332 15.368H130.524V23.512H132.332ZM141.868 13.88V25H140.044V13.88H141.868ZM149.335 25.112C148.3 25.112 147.345 24.872 146.471 24.392C145.607 23.9013 144.919 23.224 144.407 22.36C143.905 21.4853 143.655 20.504 143.655 19.416C143.655 18.328 143.905 17.352 144.407 16.488C144.919 15.624 145.607 14.952 146.471 14.472C147.345 13.9813 148.3 13.736 149.335 13.736C150.38 13.736 151.335 13.9813 152.199 14.472C153.073 14.952 153.761 15.624 154.263 16.488C154.764 17.352 155.015 18.328 155.015 19.416C155.015 20.504 154.764 21.4853 154.263 22.36C153.761 23.224 153.073 23.9013 152.199 24.392C151.335 24.872 150.38 25.112 149.335 25.112ZM149.335 23.528C150.071 23.528 150.727 23.3627 151.303 23.032C151.879 22.6907 152.327 22.2107 152.647 21.592C152.977 20.9627 153.143 20.2373 153.143 19.416C153.143 18.5947 152.977 17.8747 152.647 17.256C152.327 16.6373 151.879 16.1627 151.303 15.832C150.727 15.5013 150.071 15.336 149.335 15.336C148.599 15.336 147.943 15.5013 147.367 15.832C146.791 16.1627 146.337 16.6373 146.007 17.256C145.687 17.8747 145.527 18.5947 145.527 19.416C145.527 20.2373 145.687 20.9627 146.007 21.592C146.337 22.2107 146.791 22.6907 147.367 23.032C147.943 23.3627 148.599 23.528 149.335 23.528ZM160.473 25.112C159.727 25.112 159.055 24.984 158.457 24.728C157.86 24.4613 157.391 24.088 157.049 23.608C156.708 23.128 156.537 22.568 156.537 21.928H158.489C158.532 22.408 158.719 22.8027 159.049 23.112C159.391 23.4213 159.865 23.576 160.473 23.576C161.103 23.576 161.593 23.4267 161.945 23.128C162.297 22.8187 162.473 22.424 162.473 21.944C162.473 21.5707 162.361 21.2667 162.137 21.032C161.924 20.7973 161.652 20.616 161.321 20.488C161.001 20.36 160.553 20.2213 159.977 20.072C159.252 19.88 158.66 19.688 158.201 19.496C157.753 19.2933 157.369 18.984 157.049 18.568C156.729 18.152 156.569 17.5973 156.569 16.904C156.569 16.264 156.729 15.704 157.049 15.224C157.369 14.744 157.817 14.376 158.393 14.12C158.969 13.864 159.636 13.736 160.393 13.736C161.471 13.736 162.351 14.008 163.033 14.552C163.727 15.0853 164.111 15.8213 164.185 16.76H162.169C162.137 16.3547 161.945 16.008 161.593 15.72C161.241 15.432 160.777 15.288 160.201 15.288C159.679 15.288 159.252 15.4213 158.921 15.688C158.591 15.9547 158.425 16.3387 158.425 16.84C158.425 17.1813 158.527 17.464 158.729 17.688C158.943 17.9013 159.209 18.072 159.529 18.2C159.849 18.328 160.287 18.4667 160.841 18.616C161.577 18.8187 162.175 19.0213 162.633 19.224C163.103 19.4267 163.497 19.7413 163.817 20.168C164.148 20.584 164.313 21.144 164.313 21.848C164.313 22.4133 164.159 22.9467 163.849 23.448C163.551 23.9493 163.108 24.3547 162.521 24.664C161.945 24.9627 161.263 25.112 160.473 25.112ZM174.254 13.88C175.438 13.88 176.473 14.1093 177.358 14.568C178.254 15.016 178.942 15.6667 179.422 16.52C179.913 17.3627 180.158 18.3493 180.158 19.48C180.158 20.6107 179.913 21.592 179.422 22.424C178.942 23.256 178.254 23.896 177.358 24.344C176.473 24.7813 175.438 25 174.254 25H170.622V13.88H174.254ZM174.254 23.512C175.555 23.512 176.553 23.16 177.246 22.456C177.939 21.752 178.286 20.76 178.286 19.48C178.286 18.1893 177.939 17.1813 177.246 16.456C176.553 15.7307 175.555 15.368 174.254 15.368H172.446V23.512H174.254ZM183.79 15.352V18.616H187.63V20.104H183.79V23.512H188.11V25H181.966V13.864H188.11V15.352H183.79ZM202.289 17.192C202.289 17.7573 202.155 18.2907 201.889 18.792C201.622 19.2933 201.195 19.704 200.609 20.024C200.022 20.3333 199.27 20.488 198.353 20.488H196.337V25H194.513V13.88H198.353C199.206 13.88 199.926 14.0293 200.513 14.328C201.11 14.616 201.553 15.0107 201.841 15.512C202.139 16.0133 202.289 16.5733 202.289 17.192ZM198.353 19C199.046 19 199.563 18.8453 199.905 18.536C200.246 18.216 200.417 17.768 200.417 17.192C200.417 15.976 199.729 15.368 198.353 15.368H196.337V19H198.353ZM210.732 22.728H206.076L205.276 25H203.372L207.356 13.864H209.468L213.452 25H211.532L210.732 22.728ZM210.22 21.24L208.412 16.072L206.588 21.24H210.22ZM223.232 17.08C222.944 16.5253 222.544 16.1093 222.032 15.832C221.52 15.544 220.928 15.4 220.256 15.4C219.52 15.4 218.864 15.5653 218.288 15.896C217.712 16.2267 217.259 16.696 216.928 17.304C216.608 17.912 216.448 18.616 216.448 19.416C216.448 20.216 216.608 20.9253 216.928 21.544C217.259 22.152 217.712 22.6213 218.288 22.952C218.864 23.2827 219.52 23.448 220.256 23.448C221.248 23.448 222.054 23.1707 222.672 22.616C223.291 22.0613 223.67 21.3093 223.808 20.36H219.632V18.904H225.76V20.328C225.643 21.192 225.334 21.9867 224.832 22.712C224.342 23.4373 223.696 24.0187 222.896 24.456C222.107 24.8827 221.227 25.096 220.256 25.096C219.211 25.096 218.256 24.856 217.392 24.376C216.528 23.8853 215.84 23.208 215.328 22.344C214.827 21.48 214.576 20.504 214.576 19.416C214.576 18.328 214.827 17.352 215.328 16.488C215.84 15.624 216.528 14.952 217.392 14.472C218.267 13.9813 219.222 13.736 220.256 13.736C221.44 13.736 222.491 14.0293 223.408 14.616C224.336 15.192 225.008 16.0133 225.424 17.08H223.232ZM232.631 25.112C231.597 25.112 230.642 24.872 229.767 24.392C228.903 23.9013 228.215 23.224 227.703 22.36C227.202 21.4853 226.951 20.504 226.951 19.416C226.951 18.328 227.202 17.352 227.703 16.488C228.215 15.624 228.903 14.952 229.767 14.472C230.642 13.9813 231.597 13.736 232.631 13.736C233.677 13.736 234.631 13.9813 235.495 14.472C236.37 14.952 237.058 15.624 237.559 16.488C238.061 17.352 238.311 18.328 238.311 19.416C238.311 20.504 238.061 21.4853 237.559 22.36C237.058 23.224 236.37 23.9013 235.495 24.392C234.631 24.872 233.677 25.112 232.631 25.112ZM232.631 23.528C233.367 23.528 234.023 23.3627 234.599 23.032C235.175 22.6907 235.623 22.2107 235.943 21.592C236.274 20.9627 236.439 20.2373 236.439 19.416C236.439 18.5947 236.274 17.8747 235.943 17.256C235.623 16.6373 235.175 16.1627 234.599 15.832C234.023 15.5013 233.367 15.336 232.631 15.336C231.895 15.336 231.239 15.5013 230.663 15.832C230.087 16.1627 229.634 16.6373 229.303 17.256C228.983 17.8747 228.823 18.5947 228.823 19.416C228.823 20.2373 228.983 20.9627 229.303 21.592C229.634 22.2107 230.087 22.6907 230.663 23.032C231.239 23.3627 231.895 23.528 232.631 23.528Z" fill="#E9A5B2"/>
<path d="M105.806 42.058C105.867 41.2693 106.17 40.6497 106.716 40.199C107.271 39.7397 107.986 39.51 108.861 39.51C109.442 39.51 109.94 39.614 110.356 39.822C110.772 40.03 111.084 40.316 111.292 40.68C111.509 41.0353 111.617 41.4383 111.617 41.889C111.617 42.435 111.457 42.9073 111.136 43.306C110.815 43.7047 110.36 43.9517 109.771 44.047V44.112C110.386 44.2333 110.876 44.502 111.24 44.918C111.604 45.3253 111.786 45.8627 111.786 46.53C111.786 47.2753 111.535 47.8863 111.032 48.363C110.538 48.831 109.819 49.065 108.874 49.065C107.973 49.065 107.232 48.831 106.651 48.363C106.07 47.8863 105.737 47.2147 105.65 46.348H106.534C106.612 46.9287 106.855 47.401 107.262 47.765C107.669 48.1203 108.207 48.298 108.874 48.298C109.533 48.298 110.035 48.1247 110.382 47.778C110.737 47.4313 110.915 46.9893 110.915 46.452C110.915 45.1347 109.966 44.476 108.068 44.476H107.782V43.709H108.081C109.849 43.709 110.733 43.1327 110.733 41.98C110.733 41.4773 110.568 41.0743 110.239 40.771C109.91 40.459 109.442 40.303 108.835 40.303C108.246 40.303 107.756 40.459 107.366 40.771C106.985 41.0743 106.759 41.5033 106.69 42.058H105.806ZM116.796 45.451C116.796 44.7143 116.943 44.073 117.238 43.527C117.533 42.9723 117.94 42.5477 118.46 42.253C118.98 41.9497 119.574 41.798 120.241 41.798C121.116 41.798 121.836 42.0147 122.399 42.448C122.971 42.8813 123.339 43.4707 123.504 44.216H122.529C122.408 43.7047 122.143 43.306 121.736 43.02C121.337 42.7253 120.839 42.578 120.241 42.578C119.764 42.578 119.335 42.6863 118.954 42.903C118.573 43.1197 118.269 43.4447 118.044 43.878C117.827 44.3027 117.719 44.827 117.719 45.451C117.719 46.075 117.827 46.6037 118.044 47.037C118.269 47.4703 118.573 47.7953 118.954 48.012C119.335 48.2287 119.764 48.337 120.241 48.337C120.839 48.337 121.337 48.194 121.736 47.908C122.143 47.6133 122.408 47.206 122.529 46.686H123.504C123.339 47.414 122.971 47.999 122.399 48.441C121.827 48.883 121.108 49.104 120.241 49.104C119.574 49.104 118.98 48.9567 118.46 48.662C117.94 48.3587 117.533 47.934 117.238 47.388C116.943 46.8333 116.796 46.1877 116.796 45.451ZM131.334 41.902V49H130.424V47.752C130.216 48.194 129.895 48.532 129.462 48.766C129.028 49 128.543 49.117 128.006 49.117C127.156 49.117 126.463 48.857 125.926 48.337C125.388 47.8083 125.12 47.0457 125.12 46.049V41.902H126.017V45.945C126.017 46.7163 126.207 47.3057 126.589 47.713C126.979 48.1203 127.507 48.324 128.175 48.324C128.859 48.324 129.405 48.1073 129.813 47.674C130.22 47.2407 130.424 46.6037 130.424 45.763V41.902H131.334ZM136.518 49.104C135.851 49.104 135.248 48.9567 134.711 48.662C134.182 48.3587 133.762 47.934 133.45 47.388C133.147 46.8333 132.995 46.1877 132.995 45.451C132.995 44.7143 133.151 44.073 133.463 43.527C133.775 42.9723 134.2 42.5477 134.737 42.253C135.274 41.9497 135.877 41.798 136.544 41.798C137.211 41.798 137.814 41.9497 138.351 42.253C138.897 42.5477 139.322 42.9723 139.625 43.527C139.937 44.073 140.093 44.7143 140.093 45.451C140.093 46.179 139.937 46.8203 139.625 47.375C139.313 47.9297 138.884 48.3587 138.338 48.662C137.792 48.9567 137.185 49.104 136.518 49.104ZM136.518 48.311C136.986 48.311 137.419 48.207 137.818 47.999C138.217 47.7823 138.537 47.4617 138.78 47.037C139.031 46.6037 139.157 46.075 139.157 45.451C139.157 44.827 139.036 44.3027 138.793 43.878C138.55 43.4447 138.23 43.124 137.831 42.916C137.432 42.6993 136.999 42.591 136.531 42.591C136.063 42.591 135.63 42.6993 135.231 42.916C134.832 43.124 134.512 43.4447 134.269 43.878C134.035 44.3027 133.918 44.827 133.918 45.451C133.918 46.075 134.035 46.6037 134.269 47.037C134.512 47.4617 134.828 47.7823 135.218 47.999C135.617 48.207 136.05 48.311 136.518 48.311ZM142.935 42.669V47.076C142.935 47.5093 143.017 47.8083 143.182 47.973C143.347 48.1377 143.637 48.22 144.053 48.22H144.885V49H143.91C143.269 49 142.792 48.8527 142.48 48.558C142.168 48.2547 142.012 47.7607 142.012 47.076V42.669H141.024V41.902H142.012V40.121H142.935V41.902H144.885V42.669H142.935ZM145.97 45.438C145.97 44.71 146.113 44.073 146.399 43.527C146.693 42.9723 147.096 42.5477 147.608 42.253C148.128 41.9497 148.713 41.798 149.363 41.798C150.039 41.798 150.619 41.954 151.105 42.266C151.599 42.578 151.954 42.9767 152.171 43.462V41.902H153.081V49H152.171V47.427C151.945 47.9123 151.586 48.3153 151.092 48.636C150.606 48.948 150.026 49.104 149.35 49.104C148.708 49.104 148.128 48.9523 147.608 48.649C147.096 48.3457 146.693 47.9167 146.399 47.362C146.113 46.8073 145.97 46.166 145.97 45.438ZM152.171 45.451C152.171 44.879 152.054 44.3763 151.82 43.943C151.586 43.5097 151.265 43.176 150.858 42.942C150.459 42.708 150.017 42.591 149.532 42.591C149.029 42.591 148.578 42.7037 148.18 42.929C147.781 43.1543 147.465 43.4837 147.231 43.917C147.005 44.3417 146.893 44.8487 146.893 45.438C146.893 46.0187 147.005 46.53 147.231 46.972C147.465 47.4053 147.781 47.739 148.18 47.973C148.578 48.1983 149.029 48.311 149.532 48.311C150.017 48.311 150.459 48.194 150.858 47.96C151.265 47.726 151.586 47.3923 151.82 46.959C152.054 46.5257 152.171 46.023 152.171 45.451ZM157.602 49.104C156.787 49.104 156.12 48.9177 155.6 48.545C155.089 48.1637 154.803 47.648 154.742 46.998H155.678C155.721 47.3967 155.908 47.7217 156.237 47.973C156.575 48.2157 157.026 48.337 157.589 48.337C158.083 48.337 158.469 48.22 158.746 47.986C159.032 47.752 159.175 47.4617 159.175 47.115C159.175 46.8723 159.097 46.673 158.941 46.517C158.785 46.361 158.586 46.2397 158.343 46.153C158.109 46.0577 157.788 45.958 157.381 45.854C156.852 45.7153 156.423 45.5767 156.094 45.438C155.765 45.2993 155.483 45.0957 155.249 44.827C155.024 44.5497 154.911 44.1813 154.911 43.722C154.911 43.3753 155.015 43.0547 155.223 42.76C155.431 42.4653 155.726 42.2313 156.107 42.058C156.488 41.8847 156.922 41.798 157.407 41.798C158.17 41.798 158.785 41.993 159.253 42.383C159.721 42.7643 159.972 43.293 160.007 43.969H159.097C159.071 43.553 158.906 43.2193 158.603 42.968C158.308 42.708 157.901 42.578 157.381 42.578C156.922 42.578 156.549 42.6863 156.263 42.903C155.977 43.1197 155.834 43.3883 155.834 43.709C155.834 43.9863 155.916 44.216 156.081 44.398C156.254 44.5713 156.467 44.71 156.718 44.814C156.969 44.9093 157.307 45.0177 157.732 45.139C158.243 45.2777 158.651 45.412 158.954 45.542C159.257 45.672 159.517 45.8627 159.734 46.114C159.951 46.3653 160.063 46.699 160.072 47.115C160.072 47.4963 159.968 47.8387 159.76 48.142C159.552 48.4367 159.262 48.6707 158.889 48.844C158.516 49.0173 158.087 49.104 157.602 49.104ZM167.797 49.104C166.982 49.104 166.315 48.9177 165.795 48.545C165.283 48.1637 164.997 47.648 164.937 46.998H165.873C165.916 47.3967 166.102 47.7217 166.432 47.973C166.77 48.2157 167.22 48.337 167.784 48.337C168.278 48.337 168.663 48.22 168.941 47.986C169.227 47.752 169.37 47.4617 169.37 47.115C169.37 46.8723 169.292 46.673 169.136 46.517C168.98 46.361 168.78 46.2397 168.538 46.153C168.304 46.0577 167.983 45.958 167.576 45.854C167.047 45.7153 166.618 45.5767 166.289 45.438C165.959 45.2993 165.678 45.0957 165.444 44.827C165.218 44.5497 165.106 44.1813 165.106 43.722C165.106 43.3753 165.21 43.0547 165.418 42.76C165.626 42.4653 165.92 42.2313 166.302 42.058C166.683 41.8847 167.116 41.798 167.602 41.798C168.364 41.798 168.98 41.993 169.448 42.383C169.916 42.7643 170.167 43.293 170.202 43.969H169.292C169.266 43.553 169.101 43.2193 168.798 42.968C168.503 42.708 168.096 42.578 167.576 42.578C167.116 42.578 166.744 42.6863 166.458 42.903C166.172 43.1197 166.028 43.3883 166.028 43.709C166.028 43.9863 166.111 44.216 166.276 44.398C166.449 44.5713 166.661 44.71 166.913 44.814C167.164 44.9093 167.502 45.0177 167.927 45.139C168.438 45.2777 168.845 45.412 169.149 45.542C169.452 45.672 169.712 45.8627 169.929 46.114C170.145 46.3653 170.258 46.699 170.267 47.115C170.267 47.4963 170.163 47.8387 169.955 48.142C169.747 48.4367 169.456 48.6707 169.084 48.844C168.711 49.0173 168.282 49.104 167.797 49.104ZM172.434 40.563C172.252 40.563 172.096 40.498 171.966 40.368C171.836 40.238 171.771 40.0777 171.771 39.887C171.771 39.6963 171.836 39.5403 171.966 39.419C172.096 39.289 172.252 39.224 172.434 39.224C172.616 39.224 172.772 39.289 172.902 39.419C173.032 39.5403 173.097 39.6963 173.097 39.887C173.097 40.0777 173.032 40.238 172.902 40.368C172.772 40.498 172.616 40.563 172.434 40.563ZM172.889 41.902V49H171.979V41.902H172.889ZM178.278 41.772C179.127 41.772 179.821 42.0363 180.358 42.565C180.895 43.085 181.164 43.8433 181.164 44.84V49H180.267V44.944C180.267 44.1727 180.072 43.5833 179.682 43.176C179.301 42.7687 178.776 42.565 178.109 42.565C177.424 42.565 176.878 42.7817 176.471 43.215C176.064 43.6483 175.86 44.2853 175.86 45.126V49H174.95V41.902H175.86V43.111C176.085 42.6777 176.41 42.3483 176.835 42.123C177.26 41.889 177.741 41.772 178.278 41.772ZM187.199 40.563C187.017 40.563 186.861 40.498 186.731 40.368C186.601 40.238 186.536 40.0777 186.536 39.887C186.536 39.6963 186.601 39.5403 186.731 39.419C186.861 39.289 187.017 39.224 187.199 39.224C187.381 39.224 187.537 39.289 187.667 39.419C187.797 39.5403 187.862 39.6963 187.862 39.887C187.862 40.0777 187.797 40.238 187.667 40.368C187.537 40.498 187.381 40.563 187.199 40.563ZM187.654 41.902V49H186.744V41.902H187.654ZM193.043 41.772C193.892 41.772 194.585 42.0363 195.123 42.565C195.66 43.085 195.929 43.8433 195.929 44.84V49H195.032V44.944C195.032 44.1727 194.837 43.5833 194.447 43.176C194.065 42.7687 193.541 42.565 192.874 42.565C192.189 42.565 191.643 42.7817 191.236 43.215C190.828 43.6483 190.625 44.2853 190.625 45.126V49H189.715V41.902H190.625V43.111C190.85 42.6777 191.175 42.3483 191.6 42.123C192.024 41.889 192.505 41.772 193.043 41.772ZM199.124 42.669V47.076C199.124 47.5093 199.207 47.8083 199.371 47.973C199.536 48.1377 199.826 48.22 200.242 48.22H201.074V49H200.099C199.458 49 198.981 48.8527 198.669 48.558C198.357 48.2547 198.201 47.7607 198.201 47.076V42.669H197.213V41.902H198.201V40.121H199.124V41.902H201.074V42.669H199.124ZM208.997 45.087C208.997 45.399 208.988 45.6373 208.971 45.802H203.082C203.108 46.3393 203.238 46.7987 203.472 47.18C203.706 47.5613 204.014 47.8517 204.395 48.051C204.776 48.2417 205.192 48.337 205.643 48.337C206.232 48.337 206.726 48.194 207.125 47.908C207.532 47.622 207.801 47.2363 207.931 46.751H208.893C208.72 47.4443 208.347 48.012 207.775 48.454C207.212 48.8873 206.501 49.104 205.643 49.104C204.976 49.104 204.378 48.9567 203.849 48.662C203.32 48.3587 202.904 47.934 202.601 47.388C202.306 46.8333 202.159 46.1877 202.159 45.451C202.159 44.7143 202.306 44.0687 202.601 43.514C202.896 42.9593 203.307 42.5347 203.836 42.24C204.365 41.9453 204.967 41.798 205.643 41.798C206.319 41.798 206.908 41.9453 207.411 42.24C207.922 42.5347 208.312 42.9333 208.581 43.436C208.858 43.93 208.997 44.4803 208.997 45.087ZM208.074 45.061C208.083 44.5323 207.974 44.0817 207.749 43.709C207.532 43.3363 207.233 43.0547 206.852 42.864C206.471 42.6733 206.055 42.578 205.604 42.578C204.928 42.578 204.352 42.7947 203.875 43.228C203.398 43.6613 203.134 44.2723 203.082 45.061H208.074ZM211.572 43.163C211.771 42.721 212.075 42.3787 212.482 42.136C212.898 41.8933 213.405 41.772 214.003 41.772V42.721H213.756C213.097 42.721 212.569 42.8987 212.17 43.254C211.771 43.6093 211.572 44.203 211.572 45.035V49H210.662V41.902H211.572V43.163ZM221.794 45.087C221.794 45.399 221.785 45.6373 221.768 45.802H215.879C215.905 46.3393 216.035 46.7987 216.269 47.18C216.503 47.5613 216.811 47.8517 217.192 48.051C217.573 48.2417 217.989 48.337 218.44 48.337C219.029 48.337 219.523 48.194 219.922 47.908C220.329 47.622 220.598 47.2363 220.728 46.751H221.69C221.517 47.4443 221.144 48.012 220.572 48.454C220.009 48.8873 219.298 49.104 218.44 49.104C217.773 49.104 217.175 48.9567 216.646 48.662C216.117 48.3587 215.701 47.934 215.398 47.388C215.103 46.8333 214.956 46.1877 214.956 45.451C214.956 44.7143 215.103 44.0687 215.398 43.514C215.693 42.9593 216.104 42.5347 216.633 42.24C217.162 41.9453 217.764 41.798 218.44 41.798C219.116 41.798 219.705 41.9453 220.208 42.24C220.719 42.5347 221.109 42.9333 221.378 43.436C221.655 43.93 221.794 44.4803 221.794 45.087ZM220.871 45.061C220.88 44.5323 220.771 44.0817 220.546 43.709C220.329 43.3363 220.03 43.0547 219.649 42.864C219.268 42.6733 218.852 42.578 218.401 42.578C217.725 42.578 217.149 42.7947 216.672 43.228C216.195 43.6613 215.931 44.2723 215.879 45.061H220.871ZM219.571 39.809L216.906 41.356V40.654L219.571 38.99V39.809ZM225.903 49.104C225.088 49.104 224.421 48.9177 223.901 48.545C223.39 48.1637 223.104 47.648 223.043 46.998H223.979C224.022 47.3967 224.209 47.7217 224.538 47.973C224.876 48.2157 225.327 48.337 225.89 48.337C226.384 48.337 226.77 48.22 227.047 47.986C227.333 47.752 227.476 47.4617 227.476 47.115C227.476 46.8723 227.398 46.673 227.242 46.517C227.086 46.361 226.887 46.2397 226.644 46.153C226.41 46.0577 226.089 45.958 225.682 45.854C225.153 45.7153 224.724 45.5767 224.395 45.438C224.066 45.2993 223.784 45.0957 223.55 44.827C223.325 44.5497 223.212 44.1813 223.212 43.722C223.212 43.3753 223.316 43.0547 223.524 42.76C223.732 42.4653 224.027 42.2313 224.408 42.058C224.789 41.8847 225.223 41.798 225.708 41.798C226.471 41.798 227.086 41.993 227.554 42.383C228.022 42.7643 228.273 43.293 228.308 43.969H227.398C227.372 43.553 227.207 43.2193 226.904 42.968C226.609 42.708 226.202 42.578 225.682 42.578C225.223 42.578 224.85 42.6863 224.564 42.903C224.278 43.1197 224.135 43.3883 224.135 43.709C224.135 43.9863 224.217 44.216 224.382 44.398C224.555 44.5713 224.768 44.71 225.019 44.814C225.27 44.9093 225.608 45.0177 226.033 45.139C226.544 45.2777 226.952 45.412 227.255 45.542C227.558 45.672 227.818 45.8627 228.035 46.114C228.252 46.3653 228.364 46.699 228.373 47.115C228.373 47.4963 228.269 47.8387 228.061 48.142C227.853 48.4367 227.563 48.6707 227.19 48.844C226.817 49.0173 226.388 49.104 225.903 49.104ZM233.237 45.451C233.237 44.7143 233.385 44.073 233.679 43.527C233.974 42.9723 234.381 42.5477 234.901 42.253C235.421 41.9497 236.015 41.798 236.682 41.798C237.558 41.798 238.277 42.0147 238.84 42.448C239.412 42.8813 239.781 43.4707 239.945 44.216H238.97C238.849 43.7047 238.585 43.306 238.177 43.02C237.779 42.7253 237.28 42.578 236.682 42.578C236.206 42.578 235.777 42.6863 235.395 42.903C235.014 43.1197 234.711 43.4447 234.485 43.878C234.269 44.3027 234.16 44.827 234.16 45.451C234.16 46.075 234.269 46.6037 234.485 47.037C234.711 47.4703 235.014 47.7953 235.395 48.012C235.777 48.2287 236.206 48.337 236.682 48.337C237.28 48.337 237.779 48.194 238.177 47.908C238.585 47.6133 238.849 47.206 238.97 46.686H239.945C239.781 47.414 239.412 47.999 238.84 48.441C238.268 48.883 237.549 49.104 236.682 49.104C236.015 49.104 235.421 48.9567 234.901 48.662C234.381 48.3587 233.974 47.934 233.679 47.388C233.385 46.8333 233.237 46.1877 233.237 45.451ZM244.733 49.104C244.066 49.104 243.463 48.9567 242.926 48.662C242.397 48.3587 241.977 47.934 241.665 47.388C241.362 46.8333 241.21 46.1877 241.21 45.451C241.21 44.7143 241.366 44.073 241.678 43.527C241.99 42.9723 242.415 42.5477 242.952 42.253C243.489 41.9497 244.092 41.798 244.759 41.798C245.426 41.798 246.029 41.9497 246.566 42.253C247.112 42.5477 247.537 42.9723 247.84 43.527C248.152 44.073 248.308 44.7143 248.308 45.451C248.308 46.179 248.152 46.8203 247.84 47.375C247.528 47.9297 247.099 48.3587 246.553 48.662C246.007 48.9567 245.4 49.104 244.733 49.104ZM244.733 48.311C245.201 48.311 245.634 48.207 246.033 47.999C246.432 47.7823 246.752 47.4617 246.995 47.037C247.246 46.6037 247.372 46.075 247.372 45.451C247.372 44.827 247.251 44.3027 247.008 43.878C246.765 43.4447 246.445 43.124 246.046 42.916C245.647 42.6993 245.214 42.591 244.746 42.591C244.278 42.591 243.845 42.6993 243.446 42.916C243.047 43.124 242.727 43.4447 242.484 43.878C242.25 44.3027 242.133 44.827 242.133 45.451C242.133 46.075 242.25 46.6037 242.484 47.037C242.727 47.4617 243.043 47.7823 243.433 47.999C243.832 48.207 244.265 48.311 244.733 48.311ZM253.295 41.772C254.144 41.772 254.837 42.0363 255.375 42.565C255.912 43.085 256.181 43.8433 256.181 44.84V49H255.284V44.944C255.284 44.1727 255.089 43.5833 254.699 43.176C254.317 42.7687 253.793 42.565 253.126 42.565C252.441 42.565 251.895 42.7817 251.488 43.215C251.08 43.6483 250.877 44.2853 250.877 45.126V49H249.967V41.902H250.877V43.111C251.102 42.6777 251.427 42.3483 251.852 42.123C252.276 41.889 252.757 41.772 253.295 41.772ZM268.963 39.913L265.518 49H264.478L261.033 39.913H262.021L264.998 48.012L268.001 39.913H268.963ZM270.785 40.563C270.603 40.563 270.447 40.498 270.317 40.368C270.187 40.238 270.122 40.0777 270.122 39.887C270.122 39.6963 270.187 39.5403 270.317 39.419C270.447 39.289 270.603 39.224 270.785 39.224C270.967 39.224 271.123 39.289 271.253 39.419C271.383 39.5403 271.448 39.6963 271.448 39.887C271.448 40.0777 271.383 40.238 271.253 40.368C271.123 40.498 270.967 40.563 270.785 40.563ZM271.24 41.902V49H270.33V41.902H271.24ZM275.745 49.104C274.93 49.104 274.263 48.9177 273.743 48.545C273.231 48.1637 272.945 47.648 272.885 46.998H273.821C273.864 47.3967 274.05 47.7217 274.38 47.973C274.718 48.2157 275.168 48.337 275.732 48.337C276.226 48.337 276.611 48.22 276.889 47.986C277.175 47.752 277.318 47.4617 277.318 47.115C277.318 46.8723 277.24 46.673 277.084 46.517C276.928 46.361 276.728 46.2397 276.486 46.153C276.252 46.0577 275.931 45.958 275.524 45.854C274.995 45.7153 274.566 45.5767 274.237 45.438C273.907 45.2993 273.626 45.0957 273.392 44.827C273.166 44.5497 273.054 44.1813 273.054 43.722C273.054 43.3753 273.158 43.0547 273.366 42.76C273.574 42.4653 273.868 42.2313 274.25 42.058C274.631 41.8847 275.064 41.798 275.55 41.798C276.312 41.798 276.928 41.993 277.396 42.383C277.864 42.7643 278.115 43.293 278.15 43.969H277.24C277.214 43.553 277.049 43.2193 276.746 42.968C276.451 42.708 276.044 42.578 275.524 42.578C275.064 42.578 274.692 42.6863 274.406 42.903C274.12 43.1197 273.977 43.3883 273.977 43.709C273.977 43.9863 274.059 44.216 274.224 44.398C274.397 44.5713 274.609 44.71 274.861 44.814C275.112 44.9093 275.45 45.0177 275.875 45.139C276.386 45.2777 276.793 45.412 277.097 45.542C277.4 45.672 277.66 45.8627 277.877 46.114C278.093 46.3653 278.206 46.699 278.215 47.115C278.215 47.4963 278.111 47.8387 277.903 48.142C277.695 48.4367 277.404 48.6707 277.032 48.844C276.659 49.0173 276.23 49.104 275.745 49.104ZM279.512 45.438C279.512 44.71 279.655 44.073 279.941 43.527C280.235 42.9723 280.638 42.5477 281.15 42.253C281.67 41.9497 282.255 41.798 282.905 41.798C283.581 41.798 284.161 41.954 284.647 42.266C285.141 42.578 285.496 42.9767 285.713 43.462V41.902H286.623V49H285.713V47.427C285.487 47.9123 285.128 48.3153 284.634 48.636C284.148 48.948 283.568 49.104 282.892 49.104C282.25 49.104 281.67 48.9523 281.15 48.649C280.638 48.3457 280.235 47.9167 279.941 47.362C279.655 46.8073 279.512 46.166 279.512 45.438ZM285.713 45.451C285.713 44.879 285.596 44.3763 285.362 43.943C285.128 43.5097 284.807 43.176 284.4 42.942C284.001 42.708 283.559 42.591 283.074 42.591C282.571 42.591 282.12 42.7037 281.722 42.929C281.323 43.1543 281.007 43.4837 280.773 43.917C280.547 44.3417 280.435 44.8487 280.435 45.438C280.435 46.0187 280.547 46.53 280.773 46.972C281.007 47.4053 281.323 47.739 281.722 47.973C282.12 48.1983 282.571 48.311 283.074 48.311C283.559 48.311 284.001 48.194 284.4 47.96C284.807 47.726 285.128 47.3923 285.362 46.959C285.596 46.5257 285.713 46.023 285.713 45.451ZM289.532 47.492L288.18 50.898H287.556L288.518 47.492H289.532ZM299.78 46.842H295.646L294.853 49H293.891L297.206 40.03H298.233L301.535 49H300.573L299.78 46.842ZM299.507 46.088L297.713 41.174L295.919 46.088H299.507ZM311.445 41.772C312.277 41.772 312.953 42.0363 313.473 42.565C314.002 43.085 314.266 43.8433 314.266 44.84V49H313.369V44.944C313.369 44.1727 313.183 43.5833 312.81 43.176C312.437 42.7687 311.93 42.565 311.289 42.565C310.622 42.565 310.089 42.786 309.69 43.228C309.291 43.67 309.092 44.3113 309.092 45.152V49H308.195V44.944C308.195 44.1727 308.009 43.5833 307.636 43.176C307.263 42.7687 306.752 42.565 306.102 42.565C305.435 42.565 304.902 42.786 304.503 43.228C304.104 43.67 303.905 44.3113 303.905 45.152V49H302.995V41.902H303.905V43.124C304.13 42.682 304.451 42.3483 304.867 42.123C305.283 41.889 305.747 41.772 306.258 41.772C306.873 41.772 307.411 41.9193 307.87 42.214C308.338 42.5087 308.676 42.942 308.884 43.514C309.075 42.9507 309.4 42.5217 309.859 42.227C310.327 41.9237 310.856 41.772 311.445 41.772ZM317.197 40.654V44.047H320.642V44.801H317.197V48.246H321.032V49H316.287V39.9H321.032V40.654H317.197ZM326.543 49L324.71 46.14L322.942 49H321.98L324.268 45.451L322.006 41.902H323.033L324.84 44.723L326.595 41.902H327.544L325.282 45.412L327.57 49H326.543ZM329.637 47.492L328.285 50.898H327.661L328.623 47.492H329.637ZM114.919 59.03V68H114.009V60.837L110.811 68H110.148L106.95 60.863V68H106.04V59.03H107.002L110.473 66.804L113.944 59.03H114.919ZM116.567 64.438C116.567 63.71 116.71 63.073 116.996 62.527C117.291 61.9723 117.694 61.5477 118.205 61.253C118.725 60.9497 119.31 60.798 119.96 60.798C120.636 60.798 121.217 60.954 121.702 61.266C122.196 61.578 122.552 61.9767 122.768 62.462V60.902H123.678V68H122.768V66.427C122.543 66.9123 122.183 67.3153 121.689 67.636C121.204 67.948 120.623 68.104 119.947 68.104C119.306 68.104 118.725 67.9523 118.205 67.649C117.694 67.3457 117.291 66.9167 116.996 66.362C116.71 65.8073 116.567 65.166 116.567 64.438ZM122.768 64.451C122.768 63.879 122.651 63.3763 122.417 62.943C122.183 62.5097 121.863 62.176 121.455 61.942C121.057 61.708 120.615 61.591 120.129 61.591C119.627 61.591 119.176 61.7037 118.777 61.929C118.379 62.1543 118.062 62.4837 117.828 62.917C117.603 63.3417 117.49 63.8487 117.49 64.438C117.49 65.0187 117.603 65.53 117.828 65.972C118.062 66.4053 118.379 66.739 118.777 66.973C119.176 67.1983 119.627 67.311 120.129 67.311C120.615 67.311 121.057 67.194 121.455 66.96C121.863 66.726 122.183 66.3923 122.417 65.959C122.651 65.5257 122.768 65.023 122.768 64.451ZM128.2 68.104C127.385 68.104 126.718 67.9177 126.198 67.545C125.686 67.1637 125.4 66.648 125.34 65.998H126.276C126.319 66.3967 126.505 66.7217 126.835 66.973C127.173 67.2157 127.623 67.337 128.187 67.337C128.681 67.337 129.066 67.22 129.344 66.986C129.63 66.752 129.773 66.4617 129.773 66.115C129.773 65.8723 129.695 65.673 129.539 65.517C129.383 65.361 129.183 65.2397 128.941 65.153C128.707 65.0577 128.386 64.958 127.979 64.854C127.45 64.7153 127.021 64.5767 126.692 64.438C126.362 64.2993 126.081 64.0957 125.847 63.827C125.621 63.5497 125.509 63.1813 125.509 62.722C125.509 62.3753 125.613 62.0547 125.821 61.76C126.029 61.4653 126.323 61.2313 126.705 61.058C127.086 60.8847 127.519 60.798 128.005 60.798C128.767 60.798 129.383 60.993 129.851 61.383C130.319 61.7643 130.57 62.293 130.605 62.969H129.695C129.669 62.553 129.504 62.2193 129.201 61.968C128.906 61.708 128.499 61.578 127.979 61.578C127.519 61.578 127.147 61.6863 126.861 61.903C126.575 62.1197 126.432 62.3883 126.432 62.709C126.432 62.9863 126.514 63.216 126.679 63.398C126.852 63.5713 127.064 63.71 127.316 63.814C127.567 63.9093 127.905 64.0177 128.33 64.139C128.841 64.2777 129.248 64.412 129.552 64.542C129.855 64.672 130.115 64.8627 130.332 65.114C130.548 65.3653 130.661 65.699 130.67 66.115C130.67 66.4963 130.566 66.8387 130.358 67.142C130.15 67.4367 129.859 67.6707 129.487 67.844C129.114 68.0173 128.685 68.104 128.2 68.104ZM133.566 61.669V66.076C133.566 66.5093 133.648 66.8083 133.813 66.973C133.977 67.1377 134.268 67.22 134.684 67.22H135.516V68H134.541C133.899 68 133.423 67.8527 133.111 67.558C132.799 67.2547 132.643 66.7607 132.643 66.076V61.669H131.655V60.902H132.643V59.121H133.566V60.902H135.516V61.669H133.566ZM143.439 64.087C143.439 64.399 143.43 64.6373 143.413 64.802H137.524C137.55 65.3393 137.68 65.7987 137.914 66.18C138.148 66.5613 138.455 66.8517 138.837 67.051C139.218 67.2417 139.634 67.337 140.085 67.337C140.674 67.337 141.168 67.194 141.567 66.908C141.974 66.622 142.243 66.2363 142.373 65.751H143.335C143.161 66.4443 142.789 67.012 142.217 67.454C141.653 67.8873 140.943 68.104 140.085 68.104C139.417 68.104 138.819 67.9567 138.291 67.662C137.762 67.3587 137.346 66.934 137.043 66.388C136.748 65.8333 136.601 65.1877 136.601 64.451C136.601 63.7143 136.748 63.0687 137.043 62.514C137.337 61.9593 137.749 61.5347 138.278 61.24C138.806 60.9453 139.409 60.798 140.085 60.798C140.761 60.798 141.35 60.9453 141.853 61.24C142.364 61.5347 142.754 61.9333 143.023 62.436C143.3 62.93 143.439 63.4803 143.439 64.087ZM142.516 64.061C142.524 63.5323 142.416 63.0817 142.191 62.709C141.974 62.3363 141.675 62.0547 141.294 61.864C140.912 61.6733 140.496 61.578 140.046 61.578C139.37 61.578 138.793 61.7947 138.317 62.228C137.84 62.6613 137.576 63.2723 137.524 64.061H142.516ZM146.013 62.163C146.213 61.721 146.516 61.3787 146.923 61.136C147.339 60.8933 147.846 60.772 148.444 60.772V61.721H148.197C147.539 61.721 147.01 61.8987 146.611 62.254C146.213 62.6093 146.013 63.203 146.013 64.035V68H145.103V60.902H146.013V62.163ZM159.231 60.902L155.019 71.341H154.07L155.448 67.961L152.536 60.902H153.537L155.955 66.96L158.295 60.902H159.231ZM163.616 63.45C163.616 62.5573 163.811 61.76 164.201 61.058C164.591 60.3473 165.124 59.797 165.8 59.407C166.476 59.0083 167.23 58.809 168.062 58.809C169.076 58.809 169.943 59.0517 170.662 59.537C171.39 60.0137 171.919 60.6897 172.248 61.565H171.182C170.922 60.9497 170.524 60.4687 169.986 60.122C169.458 59.7753 168.816 59.602 168.062 59.602C167.395 59.602 166.793 59.758 166.255 60.07C165.727 60.382 165.311 60.8327 165.007 61.422C164.704 62.0027 164.552 62.6787 164.552 63.45C164.552 64.2213 164.704 64.8973 165.007 65.478C165.311 66.0587 165.727 66.505 166.255 66.817C166.793 67.129 167.395 67.285 168.062 67.285C168.816 67.285 169.458 67.116 169.986 66.778C170.524 66.4313 170.922 65.9547 171.182 65.348H172.248C171.919 66.2147 171.39 66.8863 170.662 67.363C169.934 67.8397 169.068 68.078 168.062 68.078C167.23 68.078 166.476 67.883 165.8 67.493C165.124 67.0943 164.591 66.544 164.201 65.842C163.811 65.14 163.616 64.3427 163.616 63.45ZM173.645 64.438C173.645 63.71 173.788 63.073 174.074 62.527C174.369 61.9723 174.772 61.5477 175.283 61.253C175.803 60.9497 176.388 60.798 177.038 60.798C177.714 60.798 178.295 60.954 178.78 61.266C179.274 61.578 179.63 61.9767 179.846 62.462V60.902H180.756V68H179.846V66.427C179.621 66.9123 179.261 67.3153 178.767 67.636C178.282 67.948 177.701 68.104 177.025 68.104C176.384 68.104 175.803 67.9523 175.283 67.649C174.772 67.3457 174.369 66.9167 174.074 66.362C173.788 65.8073 173.645 65.166 173.645 64.438ZM179.846 64.451C179.846 63.879 179.729 63.3763 179.495 62.943C179.261 62.5097 178.941 62.176 178.533 61.942C178.135 61.708 177.693 61.591 177.207 61.591C176.705 61.591 176.254 61.7037 175.855 61.929C175.457 62.1543 175.14 62.4837 174.906 62.917C174.681 63.3417 174.568 63.8487 174.568 64.438C174.568 65.0187 174.681 65.53 174.906 65.972C175.14 66.4053 175.457 66.739 175.855 66.973C176.254 67.1983 176.705 67.311 177.207 67.311C177.693 67.311 178.135 67.194 178.533 66.96C178.941 66.726 179.261 66.3923 179.495 65.959C179.729 65.5257 179.846 65.023 179.846 64.451ZM183.731 62.475C183.965 61.981 184.325 61.578 184.81 61.266C185.304 60.954 185.885 60.798 186.552 60.798C187.202 60.798 187.783 60.9497 188.294 61.253C188.805 61.5477 189.204 61.9723 189.49 62.527C189.785 63.073 189.932 63.71 189.932 64.438C189.932 65.166 189.785 65.8073 189.49 66.362C189.204 66.9167 188.801 67.3457 188.281 67.649C187.77 67.9523 187.193 68.104 186.552 68.104C185.876 68.104 185.291 67.9523 184.797 67.649C184.312 67.337 183.956 66.934 183.731 66.44V68H182.834V58.38H183.731V62.475ZM189.009 64.438C189.009 63.8487 188.892 63.3417 188.658 62.917C188.433 62.4837 188.121 62.1543 187.722 61.929C187.323 61.7037 186.873 61.591 186.37 61.591C185.885 61.591 185.438 61.708 185.031 61.942C184.632 62.176 184.316 62.5097 184.082 62.943C183.848 63.3763 183.731 63.879 183.731 64.451C183.731 65.023 183.848 65.5257 184.082 65.959C184.316 66.3923 184.632 66.726 185.031 66.96C185.438 67.194 185.885 67.311 186.37 67.311C186.873 67.311 187.323 67.1983 187.722 66.973C188.121 66.739 188.433 66.4053 188.658 65.972C188.892 65.53 189.009 65.0187 189.009 64.438ZM191.19 64.438C191.19 63.71 191.333 63.073 191.619 62.527C191.914 61.9723 192.317 61.5477 192.828 61.253C193.348 60.9497 193.933 60.798 194.583 60.798C195.259 60.798 195.84 60.954 196.325 61.266C196.819 61.578 197.175 61.9767 197.391 62.462V60.902H198.301V68H197.391V66.427C197.166 66.9123 196.806 67.3153 196.312 67.636C195.827 67.948 195.246 68.104 194.57 68.104C193.929 68.104 193.348 67.9523 192.828 67.649C192.317 67.3457 191.914 66.9167 191.619 66.362C191.333 65.8073 191.19 65.166 191.19 64.438ZM197.391 64.451C197.391 63.879 197.274 63.3763 197.04 62.943C196.806 62.5097 196.486 62.176 196.078 61.942C195.68 61.708 195.238 61.591 194.752 61.591C194.25 61.591 193.799 61.7037 193.4 61.929C193.002 62.1543 192.685 62.4837 192.451 62.917C192.226 63.3417 192.113 63.8487 192.113 64.438C192.113 65.0187 192.226 65.53 192.451 65.972C192.685 66.4053 193.002 66.739 193.4 66.973C193.799 67.1983 194.25 67.311 194.752 67.311C195.238 67.311 195.68 67.194 196.078 66.96C196.486 66.726 196.806 66.3923 197.04 65.959C197.274 65.5257 197.391 65.023 197.391 64.451ZM201.289 58.38V68H200.379V58.38H201.289ZM203.506 68.065C203.315 68.065 203.155 68 203.025 67.87C202.903 67.74 202.843 67.5797 202.843 67.389C202.843 67.1983 202.903 67.0423 203.025 66.921C203.155 66.791 203.315 66.726 203.506 66.726C203.688 66.726 203.839 66.791 203.961 66.921C204.091 67.0423 204.156 67.1983 204.156 67.389C204.156 67.5797 204.091 67.74 203.961 67.87C203.839 68 203.688 68.065 203.506 68.065Z" fill="black"/>
</svg>
